<svg xmlns="http://www.w3.org/2000/svg" xmlns:xlink="http://www.w3.org/1999/xlink" xmlns:lucid="lucid" width="1940" height="1120"><g transform="translate(-120 -40)" lucid:page-tab-id="0_0"><path d="M0 0h3676.8v1323.2H0z" fill="#fff"/><path d="M180 140h160v160H180z" stroke="#000" stroke-width="2" fill="#fff"/><use xlink:href="#a" transform="matrix(1,0,0,1,185,145) translate(50.525 80.025)"/><path d="M260 302v78.5" stroke="#000" stroke-width="2" fill="none"/><path d="M261 302.03h-2V301h2z"/><path d="M260 395.76l-4.64-14.26h9.28z" stroke="#000" stroke-width="2"/><path d="M220 400h80v540h-80z" stroke="#000" stroke-width="2" fill="#fff"/><path d="M302 420h191.5" stroke="#000" stroke-width="2" fill="none"/><path d="M302.03 421H301v-2h1.03z"/><path d="M508.76 420l-14.26 4.64v-9.28z" stroke="#000" stroke-width="2"/><path d="M280 360h240v60H280z" stroke="#000" stroke-opacity="0" stroke-width="2" fill="#fff" fill-opacity="0"/><use xlink:href="#b" transform="matrix(1,0,0,1,285,365) translate(49.05 17.525)"/><use xlink:href="#c" transform="matrix(1,0,0,1,285,365) translate(119 17.525)"/><use xlink:href="#d" transform="matrix(1,0,0,1,285,365) translate(68.025 39.125)"/><path d="M480 140h160v160H480z" stroke="#000" stroke-width="2" fill="#fff"/><use xlink:href="#e" transform="matrix(1,0,0,1,485,145) translate(5.549999999999997 80.025)"/><path d="M560 302v78.5M560 302.03V301" stroke="#000" stroke-width="2" fill="none"/><path d="M560 395.76l-4.64-14.26h9.28z" stroke="#000" stroke-width="2"/><path d="M520 400h80v540h-80zM800 140h160v160H800z" stroke="#000" stroke-width="2" fill="#fff"/><use xlink:href="#f" transform="matrix(1,0,0,1,805,145) translate(44.525 80.025)"/><path d="M840 400h80v540h-80z" stroke="#000" stroke-width="2" fill="#fff"/><path d="M602 420h191.5M602.03 420H601" stroke="#000" stroke-width="2" fill="none"/><path d="M808.76 420l-14.26 4.64v-9.28z" stroke="#000" stroke-width="2"/><path d="M580 360h240v60H580z" stroke="#000" stroke-opacity="0" stroke-width="2" fill="#fff" fill-opacity="0"/><use xlink:href="#g" transform="matrix(1,0,0,1,585,365) translate(39.025000000000006 17.525)"/><use xlink:href="#h" transform="matrix(1,0,0,1,585,365) translate(83.025 17.525)"/><use xlink:href="#i" transform="matrix(1,0,0,1,585,365) translate(170.975 17.525)"/><use xlink:href="#d" transform="matrix(1,0,0,1,585,365) translate(68.025 39.125)"/><path d="M1380 540h180v60h-180z" stroke="#000" stroke-opacity="0" stroke-width="2" fill="#fff" fill-opacity="0"/><use xlink:href="#j" transform="matrix(1,0,0,1,1385,545) translate(1.8249999999999886 17.525)"/><use xlink:href="#k" transform="matrix(1,0,0,1,1385,545) translate(104.725 17.525)"/><use xlink:href="#l" transform="matrix(1,0,0,1,1385,545) translate(142.675 17.525)"/><use xlink:href="#m" transform="matrix(1,0,0,1,1385,545) translate(158.175 17.525)"/><use xlink:href="#n" transform="matrix(1,0,0,1,1385,545) translate(2.0749999999999886 39.125)"/><use xlink:href="#d" transform="matrix(1,0,0,1,1385,545) translate(73.975 39.125)"/><path d="M1380 640h180v60h-180z" stroke="#000" stroke-opacity="0" stroke-width="2" fill="#fff" fill-opacity="0"/><use xlink:href="#j" transform="matrix(1,0,0,1,1385,645) translate(1.8249999999999886 17.525)"/><use xlink:href="#k" transform="matrix(1,0,0,1,1385,645) translate(104.725 17.525)"/><use xlink:href="#l" transform="matrix(1,0,0,1,1385,645) translate(142.675 17.525)"/><use xlink:href="#m" transform="matrix(1,0,0,1,1385,645) translate(158.175 17.525)"/><use xlink:href="#n" transform="matrix(1,0,0,1,1385,645) translate(2.0749999999999886 39.125)"/><use xlink:href="#d" transform="matrix(1,0,0,1,1385,645) translate(73.975 39.125)"/><path d="M920 400h240v60H920z" stroke="#000" stroke-opacity="0" stroke-width="2" fill="#fff" fill-opacity="0"/><use xlink:href="#o" transform="matrix(1,0,0,1,925,405) translate(50.05 30.025)"/><use xlink:href="#p" transform="matrix(1,0,0,1,925,405) translate(122.95 30.025)"/><path d="M922 456h718.5" stroke="#000" stroke-width="2" fill="none"/><path d="M922.03 457H921v-2h1.03z"/><path d="M1655.76 456l-14.26 4.64v-9.28z" stroke="#000" stroke-width="2"/><path d="M920 460h240v60H920z" stroke="#000" stroke-opacity="0" stroke-width="2" fill="#fff" fill-opacity="0"/><use xlink:href="#o" transform="matrix(1,0,0,1,925,465) translate(50.05 30.025)"/><use xlink:href="#p" transform="matrix(1,0,0,1,925,465) translate(122.95 30.025)"/><path d="M922 516h958.5M922.03 516H921" stroke="#000" stroke-width="2" fill="none"/><path d="M1895.76 516l-14.26 4.64v-9.28z" stroke="#000" stroke-width="2"/><path d="M140 60h100v20l-10 10h-90z" fill="#fff"/><path d="M240 60v20l-10 10h-90" stroke="#000" stroke-width="2" fill="none"/><path d="M140 60h1900v1080H140z" stroke="#000" stroke-width="2" fill="none"/><use xlink:href="#q" transform="matrix(1,0,0,1,148,60) translate(0 18.6)"/><use xlink:href="#r" transform="matrix(1,0,0,1,152,98) translate(0 18.6)"/><use xlink:href="#s" transform="matrix(1,0,0,1,152,98) translate(82 18.6)"/><use xlink:href="#t" transform="matrix(1,0,0,1,152,98) translate(141.95 18.6)"/><path d="M880 302v78.5" stroke="#000" stroke-width="2" fill="none"/><path d="M881 302.03h-2V301h2z"/><path d="M880 395.76l-4.64-14.26h9.28z" stroke="#000" stroke-width="2"/><path d="M1260 120h160v160h-160z" stroke="#000" stroke-width="2" fill="#fff"/><use xlink:href="#u" transform="matrix(1,0,0,1,1265,125) translate(15.100000000000001 80.025)"/><path d="M1300 380h80v540h-80z" stroke="#000" stroke-width="2" fill="#fff"/><path d="M1340 282v78.5" stroke="#000" stroke-width="2" fill="none"/><path d="M1341 282.03h-2V281h2z"/><path d="M1340 375.76l-4.64-14.26h9.28z" stroke="#000" stroke-width="2"/><path d="M1620 120h160v160h-160z" stroke="#000" stroke-width="2" fill="#fff"/><use xlink:href="#b" transform="matrix(1,0,0,1,1625,125) translate(35.025 80.025)"/><use xlink:href="#v" transform="matrix(1,0,0,1,1625,125) translate(104.975 80.025)"/><path d="M1660 380h80v540h-80zM1860 120h160v160h-160z" stroke="#000" stroke-width="2" fill="#fff"/><g><use xlink:href="#b" transform="matrix(1,0,0,1,1865,125) translate(35.025 80.025)"/><use xlink:href="#w" transform="matrix(1,0,0,1,1865,125) translate(104.975 80.025)"/></g><path d="M1900 380h80v540h-80z" stroke="#000" stroke-width="2" fill="#fff"/><path d="M1700 282v78.5" stroke="#000" stroke-width="2" fill="none"/><path d="M1701 282.03h-2V281h2z"/><path d="M1700 375.76l-4.64-14.26h9.28z" stroke="#000" stroke-width="2"/><path d="M1940 282v78.5" stroke="#000" stroke-width="2" fill="none"/><path d="M1941 282.03h-2V281h2z"/><path d="M1940 375.76l-4.64-14.26h9.28z" stroke="#000" stroke-width="2"/><path d="M1382 714.67h479.5" stroke="#000" stroke-width="2" fill="none"/><path d="M1382.03 715.67H1381v-2h1.03z"/><path d="M1876.76 714.67l-14.26 4.63v-9.27z" stroke="#000" stroke-width="2"/><path d="M1382 604h239.5" stroke="#000" stroke-width="2" fill="none"/><path d="M1382.03 605H1381v-2h1.03z"/><path d="M1636.76 604l-14.26 4.64v-9.28z" stroke="#000" stroke-width="2"/><path d="M1060 840h240v60h-240z" stroke="#000" stroke-opacity="0" stroke-width="2" fill="#fff" fill-opacity="0"/><g><use xlink:href="#x" transform="matrix(1,0,0,1,1065,845) translate(75.025 30.025)"/></g><path d="M1298 900H338.5" stroke="#000" stroke-width="2" fill="none"/><path d="M1299 901h-1.03v-2h1.03z"/><path d="M323.24 900l14.26-4.64v9.28z" stroke="#000" stroke-width="2"/><defs><path d="M143 4C61 4 22-44 18-125c-5-107 100-154 193-111 17 8 29 25 37 43l-32 9c-13-25-37-40-76-40-61 0-88 39-88 99 0 61 29 100 91 101 35 0 62-11 79-27v-45h-74v-28h105v86C228-13 192 4 143 4" id="y"/><path d="M141-36C126-15 110 5 73 4 37 3 15-17 15-53c-1-64 63-63 125-63 3-35-9-54-41-54-24 1-41 7-42 31l-33-3c5-37 33-52 76-52 45 0 72 20 72 64v82c-1 20 7 32 28 27v20c-31 9-61-2-59-35zM48-53c0 20 12 33 32 33 41-3 63-29 60-74-43 2-92-5-92 41" id="z"/><path d="M210-169c-67 3-38 105-44 169h-31v-121c0-29-5-50-35-48C34-165 62-65 56 0H25l-1-190h30c1 10-1 24 2 32 10-44 99-50 107 0 11-21 27-35 58-36 85-2 47 119 55 194h-31v-121c0-29-5-49-35-48" id="A"/><path d="M100-194c63 0 86 42 84 106H49c0 40 14 67 53 68 26 1 43-12 49-29l28 8c-11 28-37 45-77 45C44 4 14-33 15-96c1-61 26-98 85-98zm52 81c6-60-76-77-97-28-3 7-6 17-6 28h103" id="B"/><g id="a"><use transform="matrix(0.05,0,0,0.05,0,0)" xlink:href="#y"/><use transform="matrix(0.05,0,0,0.05,14,0)" xlink:href="#z"/><use transform="matrix(0.05,0,0,0.05,24,0)" xlink:href="#A"/><use transform="matrix(0.05,0,0,0.05,38.95,0)" xlink:href="#B"/></g><path d="M153-248C145-148 188 4 80 4 36 3 13-21 6-62l32-5c4 25 16 42 43 43 27 0 39-20 39-49v-147H72v-28h81" id="C"/><path d="M100-194c62-1 85 37 85 99 1 63-27 99-86 99S16-35 15-95c0-66 28-99 85-99zM99-20c44 1 53-31 53-75 0-43-8-75-51-75s-53 32-53 75 10 74 51 75" id="D"/><path d="M177-190C167-65 218 103 67 71c-23-6-38-20-44-43l32-5c15 47 100 32 89-28v-30C133-14 115 1 83 1 29 1 15-40 15-95c0-56 16-97 71-98 29-1 48 16 59 35 1-10 0-23 2-32h30zM94-22c36 0 50-32 50-73 0-42-14-75-50-75-39 0-46 34-46 75s6 73 46 73" id="E"/><path d="M85-194c31 0 48 13 60 33l-1-100h32l1 261h-30c-2-10 0-23-3-31C134-8 116 4 85 4 32 4 16-35 15-94c0-66 23-100 70-100zm9 24c-40 0-46 34-46 75 0 40 6 74 45 74 42 0 51-32 51-76 0-42-9-74-50-73" id="F"/><path d="M114-163C36-179 61-72 57 0H25l-1-190h30c1 12-1 29 2 39 6-27 23-49 58-41v29" id="G"/><g id="b"><use transform="matrix(0.05,0,0,0.05,0,0)" xlink:href="#C"/><use transform="matrix(0.05,0,0,0.05,9,0)" xlink:href="#D"/><use transform="matrix(0.05,0,0,0.05,19,0)" xlink:href="#E"/><use transform="matrix(0.05,0,0,0.05,29,0)" xlink:href="#z"/><use transform="matrix(0.05,0,0,0.05,39,0)" xlink:href="#F"/><use transform="matrix(0.05,0,0,0.05,49,0)" xlink:href="#D"/><use transform="matrix(0.05,0,0,0.05,59,0)" xlink:href="#G"/></g><path d="M135-143c-3-34-86-38-87 0 15 53 115 12 119 90S17 21 10-45l28-5c4 36 97 45 98 0-10-56-113-15-118-90-4-57 82-63 122-42 12 7 21 19 24 35" id="H"/><path d="M96-169c-40 0-48 33-48 73s9 75 48 75c24 0 41-14 43-38l32 2c-6 37-31 61-74 61-59 0-76-41-82-99-10-93 101-131 147-64 4 7 5 14 7 22l-32 3c-4-21-16-35-41-35" id="I"/><path d="M24 0v-261h32V0H24" id="J"/><path d="M106-169C34-169 62-67 57 0H25v-261h32l-1 103c12-21 28-36 61-36 89 0 53 116 60 194h-32v-121c2-32-8-49-39-48" id="K"/><g id="c"><use transform="matrix(0.05,0,0,0.05,0,0)" xlink:href="#B"/><use transform="matrix(0.05,0,0,0.05,10,0)" xlink:href="#H"/><use transform="matrix(0.05,0,0,0.05,19,0)" xlink:href="#I"/><use transform="matrix(0.05,0,0,0.05,28,0)" xlink:href="#D"/><use transform="matrix(0.05,0,0,0.05,38,0)" xlink:href="#J"/><use transform="matrix(0.05,0,0,0.05,41.95,0)" xlink:href="#K"/><use transform="matrix(0.05,0,0,0.05,51.95,0)" xlink:href="#B"/></g><path d="M115-194c53 0 69 39 70 98 0 66-23 100-70 100C84 3 66-7 56-30L54 0H23l1-261h32v101c10-23 28-34 59-34zm-8 174c40 0 45-34 45-75 0-40-5-75-45-74-42 0-51 32-51 76 0 43 10 73 51 73" id="L"/><path d="M59-47c-2 24 18 29 38 22v24C64 9 27 4 27-40v-127H5v-23h24l9-43h21v43h35v23H59v120" id="M"/><path d="M117-194c89-4 53 116 60 194h-32v-121c0-31-8-49-39-48C34-167 62-67 57 0H25l-1-190h30c1 10-1 24 2 32 11-22 29-35 61-36" id="N"/><g id="d"><use transform="matrix(0.05,0,0,0.05,0,0)" xlink:href="#I"/><use transform="matrix(0.05,0,0,0.05,9,0)" xlink:href="#D"/><use transform="matrix(0.05,0,0,0.05,19,0)" xlink:href="#A"/><use transform="matrix(0.05,0,0,0.05,33.95,0)" xlink:href="#L"/><use transform="matrix(0.05,0,0,0.05,43.95,0)" xlink:href="#z"/><use transform="matrix(0.05,0,0,0.05,53.95,0)" xlink:href="#M"/><use transform="matrix(0.05,0,0,0.05,58.95,0)" xlink:href="#B"/><use transform="matrix(0.05,0,0,0.05,68.95,0)" xlink:href="#N"/><use transform="matrix(0.05,0,0,0.05,78.95,0)" xlink:href="#M"/><use transform="matrix(0.05,0,0,0.05,83.95,0)" xlink:href="#B"/></g><path d="M33 0v-248h34V0H33" id="O"/><path d="M115-194c55 1 70 41 70 98S169 2 115 4C84 4 66-9 55-30l1 105H24l-1-265h31l2 30c10-21 28-34 59-34zm-8 174c40 0 45-34 45-75s-6-73-45-74c-42 0-51 32-51 76 0 43 10 73 51 73" id="P"/><path d="M84 4C-5 8 30-112 23-190h32v120c0 31 7 50 39 49 72-2 45-101 50-169h31l1 190h-30c-1-10 1-25-2-33-11 22-28 36-60 37" id="Q"/><path d="M185-189c-5-48-123-54-124 2 14 75 158 14 163 119 3 78-121 87-175 55-17-10-28-26-33-46l33-7c5 56 141 63 141-1 0-78-155-14-162-118-5-82 145-84 179-34 5 7 8 16 11 25" id="R"/><g id="e"><use transform="matrix(0.05,0,0,0.05,0,0)" xlink:href="#O"/><use transform="matrix(0.05,0,0,0.05,5,0)" xlink:href="#N"/><use transform="matrix(0.05,0,0,0.05,15,0)" xlink:href="#P"/><use transform="matrix(0.05,0,0,0.05,25,0)" xlink:href="#Q"/><use transform="matrix(0.05,0,0,0.05,35,0)" xlink:href="#M"/><use transform="matrix(0.05,0,0,0.05,40,0)" xlink:href="#y"/><use transform="matrix(0.05,0,0,0.05,54,0)" xlink:href="#z"/><use transform="matrix(0.05,0,0,0.05,64,0)" xlink:href="#A"/><use transform="matrix(0.05,0,0,0.05,78.95,0)" xlink:href="#B"/><use transform="matrix(0.05,0,0,0.05,88.95,0)" xlink:href="#R"/><use transform="matrix(0.05,0,0,0.05,100.95,0)" xlink:href="#B"/><use transform="matrix(0.05,0,0,0.05,110.95,0)" xlink:href="#J"/><use transform="matrix(0.05,0,0,0.05,114.9,0)" xlink:href="#B"/><use transform="matrix(0.05,0,0,0.05,124.9,0)" xlink:href="#I"/><use transform="matrix(0.05,0,0,0.05,133.9,0)" xlink:href="#M"/></g><path d="M160-131c35 5 61 23 61 61C221 17 115-2 30 0v-248c76 3 177-17 177 60 0 33-19 50-47 57zm-97-11c50-1 110 9 110-42 0-47-63-36-110-37v79zm0 115c55-2 124 14 124-45 0-56-70-42-124-44v89" id="S"/><g id="f"><use transform="matrix(0.05,0,0,0.05,0,0)" xlink:href="#S"/><use transform="matrix(0.05,0,0,0.05,12,0)" xlink:href="#z"/><use transform="matrix(0.05,0,0,0.05,22,0)" xlink:href="#M"/><use transform="matrix(0.05,0,0,0.05,27,0)" xlink:href="#z"/><use transform="matrix(0.05,0,0,0.05,37,0)" xlink:href="#J"/><use transform="matrix(0.05,0,0,0.05,40.95,0)" xlink:href="#K"/><use transform="matrix(0.05,0,0,0.05,50.95,0)" xlink:href="#z"/></g><g id="g"><use transform="matrix(0.05,0,0,0.05,0,0)" xlink:href="#O"/><use transform="matrix(0.05,0,0,0.05,5,0)" xlink:href="#M"/><use transform="matrix(0.05,0,0,0.05,10,0)" xlink:href="#B"/><use transform="matrix(0.05,0,0,0.05,20,0)" xlink:href="#N"/><use transform="matrix(0.05,0,0,0.05,30,0)" xlink:href="#H"/></g><path d="M145-31C134-9 116 4 85 4 32 4 16-35 15-94c0-59 17-99 70-100 32-1 48 14 60 33 0-11-1-24 2-32h30l-1 268h-32zM93-21c41 0 51-33 51-76s-8-73-50-73c-40 0-46 35-46 75s5 74 45 74" id="T"/><path d="M24-231v-30h32v30H24zM24 0v-190h32V0H24" id="U"/><g id="h"><use transform="matrix(0.05,0,0,0.05,0,0)" xlink:href="#B"/><use transform="matrix(0.05,0,0,0.05,10,0)" xlink:href="#T"/><use transform="matrix(0.05,0,0,0.05,20,0)" xlink:href="#Q"/><use transform="matrix(0.05,0,0,0.05,30,0)" xlink:href="#U"/><use transform="matrix(0.05,0,0,0.05,33.95,0)" xlink:href="#P"/><use transform="matrix(0.05,0,0,0.05,43.95,0)" xlink:href="#z"/><use transform="matrix(0.05,0,0,0.05,53.95,0)" xlink:href="#F"/><use transform="matrix(0.05,0,0,0.05,63.95,0)" xlink:href="#D"/><use transform="matrix(0.05,0,0,0.05,73.95,0)" xlink:href="#H"/></g><g id="i"><use transform="matrix(0.05,0,0,0.05,0,0)" xlink:href="#N"/><use transform="matrix(0.05,0,0,0.05,10,0)" xlink:href="#D"/></g><path d="M212-179c-10-28-35-45-73-45-59 0-87 40-87 99 0 60 29 101 89 101 43 0 62-24 78-52l27 14C228-24 195 4 139 4 59 4 22-46 18-125c-6-104 99-153 187-111 19 9 31 26 39 46" id="V"/><g id="j"><use transform="matrix(0.05,0,0,0.05,0,0)" xlink:href="#V"/><use transform="matrix(0.05,0,0,0.05,12.950000000000001,0)" xlink:href="#D"/><use transform="matrix(0.05,0,0,0.05,22.950000000000003,0)" xlink:href="#A"/><use transform="matrix(0.05,0,0,0.05,37.900000000000006,0)" xlink:href="#L"/><use transform="matrix(0.05,0,0,0.05,47.900000000000006,0)" xlink:href="#z"/><use transform="matrix(0.05,0,0,0.05,57.900000000000006,0)" xlink:href="#M"/><use transform="matrix(0.05,0,0,0.05,62.900000000000006,0)" xlink:href="#B"/><use transform="matrix(0.05,0,0,0.05,72.9,0)" xlink:href="#N"/><use transform="matrix(0.05,0,0,0.05,82.9,0)" xlink:href="#M"/><use transform="matrix(0.05,0,0,0.05,87.9,0)" xlink:href="#B"/></g><path d="M108 0H70L1-190h34L89-25l56-165h34" id="W"/><g id="k"><use transform="matrix(0.05,0,0,0.05,0,0)" xlink:href="#W"/><use transform="matrix(0.05,0,0,0.05,9,0)" xlink:href="#U"/><use transform="matrix(0.05,0,0,0.05,12.949999999999998,0)" xlink:href="#F"/><use transform="matrix(0.05,0,0,0.05,22.95,0)" xlink:href="#z"/></g><path d="M18-150v-26h174v26H18zm0 90v-26h174v26H18" id="X"/><use transform="matrix(0.05,0,0,0.05,0,0)" xlink:href="#X" id="l"/><path d="M101-251c68 0 85 55 85 127S166 4 100 4C33 4 14-52 14-124c0-73 17-127 87-127zm-1 229c47 0 54-49 54-102s-4-102-53-102c-51 0-55 48-55 102 0 53 5 102 54 102" id="Y"/><use transform="matrix(0.05,0,0,0.05,0,0)" xlink:href="#Y" id="m"/><path d="M233-177c-1 41-23 64-60 70L243 0h-38l-65-103H63V0H30v-248c88 3 205-21 203 71zM63-129c60-2 137 13 137-47 0-61-80-42-137-45v92" id="Z"/><g id="n"><use transform="matrix(0.05,0,0,0.05,0,0)" xlink:href="#Z"/><use transform="matrix(0.05,0,0,0.05,12.950000000000001,0)" xlink:href="#B"/><use transform="matrix(0.05,0,0,0.05,22.950000000000003,0)" xlink:href="#A"/><use transform="matrix(0.05,0,0,0.05,37.900000000000006,0)" xlink:href="#D"/><use transform="matrix(0.05,0,0,0.05,47.900000000000006,0)" xlink:href="#W"/><use transform="matrix(0.05,0,0,0.05,56.900000000000006,0)" xlink:href="#B"/></g><g id="o"><use transform="matrix(0.05,0,0,0.05,0,0)" xlink:href="#Z"/><use transform="matrix(0.05,0,0,0.05,12.950000000000001,0)" xlink:href="#B"/><use transform="matrix(0.05,0,0,0.05,22.950000000000003,0)" xlink:href="#I"/><use transform="matrix(0.05,0,0,0.05,31.950000000000003,0)" xlink:href="#B"/><use transform="matrix(0.05,0,0,0.05,41.95,0)" xlink:href="#L"/><use transform="matrix(0.05,0,0,0.05,51.95,0)" xlink:href="#B"/><use transform="matrix(0.05,0,0,0.05,61.95,0)" xlink:href="#G"/></g><path d="M205 0l-28-72H64L36 0H1l101-248h38L239 0h-34zm-38-99l-47-123c-12 45-31 82-46 123h93" id="aa"/><g id="p"><use transform="matrix(0.05,0,0,0.05,0,0)" xlink:href="#aa"/><use transform="matrix(0.05,0,0,0.05,12,0)" xlink:href="#M"/><use transform="matrix(0.05,0,0,0.05,17,0)" xlink:href="#z"/><use transform="matrix(0.05,0,0,0.05,27,0)" xlink:href="#T"/><use transform="matrix(0.05,0,0,0.05,37,0)" xlink:href="#Q"/><use transform="matrix(0.05,0,0,0.05,47,0)" xlink:href="#B"/></g><path d="M30 0v-248h33v221h125V0H30" id="ab"/><path d="M96-169c-40 0-48 33-48 73s9 75 48 75c24 0 41-14 43-38l32 2c-6 37-31 61-74 61-59 0-76-41-82-99-10-93 101-131 147-64 4 7 5 14 7 22l-32 3c-4-21-16-35-41-35zm3 187c19-1 33 8 33 26 0 31-30 33-64 32V58c18 2 39 4 41-13 1-15-18-13-34-13L87 0h19" id="ac"/><g id="q"><use transform="matrix(0.05,0,0,0.05,0,0)" xlink:href="#ab"/><use transform="matrix(0.05,0,0,0.05,10,0)" xlink:href="#z"/><use transform="matrix(0.05,0,0,0.05,20,0)" xlink:href="#ac"/><use transform="matrix(0.05,0,0,0.05,29,0)" xlink:href="#D"/></g><path d="M30 0v-248h187v28H63v79h144v27H63v87h162V0H30" id="ad"/><g id="r"><use transform="matrix(0.05,0,0,0.05,0,0)" xlink:href="#ad"/><use transform="matrix(0.05,0,0,0.05,12,0)" xlink:href="#N"/><use transform="matrix(0.05,0,0,0.05,22,0)" xlink:href="#T"/><use transform="matrix(0.05,0,0,0.05,32,0)" xlink:href="#Q"/><use transform="matrix(0.05,0,0,0.05,42,0)" xlink:href="#z"/><use transform="matrix(0.05,0,0,0.05,52,0)" xlink:href="#N"/><use transform="matrix(0.05,0,0,0.05,62,0)" xlink:href="#M"/><use transform="matrix(0.05,0,0,0.05,67,0)" xlink:href="#D"/></g><g id="s"><use transform="matrix(0.05,0,0,0.05,0,0)" xlink:href="#K"/><use transform="matrix(0.05,0,0,0.05,10,0)" xlink:href="#D"/><use transform="matrix(0.05,0,0,0.05,20,0)" xlink:href="#Q"/><use transform="matrix(0.05,0,0,0.05,30,0)" xlink:href="#W"/><use transform="matrix(0.05,0,0,0.05,39,0)" xlink:href="#B"/><use transform="matrix(0.05,0,0,0.05,49,0)" xlink:href="#G"/></g><g id="t"><use transform="matrix(0.05,0,0,0.05,0,0)" xlink:href="#I"/><use transform="matrix(0.05,0,0,0.05,9,0)" xlink:href="#D"/><use transform="matrix(0.05,0,0,0.05,19,0)" xlink:href="#A"/><use transform="matrix(0.05,0,0,0.05,33.95,0)" xlink:href="#L"/><use transform="matrix(0.05,0,0,0.05,43.95,0)" xlink:href="#z"/><use transform="matrix(0.05,0,0,0.05,53.95,0)" xlink:href="#M"/><use transform="matrix(0.05,0,0,0.05,58.95,0)" xlink:href="#B"/><use transform="matrix(0.05,0,0,0.05,68.95,0)" xlink:href="#N"/><use transform="matrix(0.05,0,0,0.05,78.95,0)" xlink:href="#M"/><use transform="matrix(0.05,0,0,0.05,83.95,0)" xlink:href="#B"/><use transform="matrix(0.05,0,0,0.05,93.95,0)" xlink:href="#H"/></g><path d="M137 0h-34L2-248h35l83 218 83-218h36" id="ae"/><path d="M101-234c-31-9-42 10-38 44h38v23H63V0H32v-167H5v-23h27c-7-52 17-82 69-68v24" id="af"/><g id="u"><use transform="matrix(0.05,0,0,0.05,0,0)" xlink:href="#ae"/><use transform="matrix(0.05,0,0,0.05,11,0)" xlink:href="#B"/><use transform="matrix(0.05,0,0,0.05,21,0)" xlink:href="#G"/><use transform="matrix(0.05,0,0,0.05,26.950000000000003,0)" xlink:href="#U"/><use transform="matrix(0.05,0,0,0.05,30.899999999999995,0)" xlink:href="#af"/><use transform="matrix(0.05,0,0,0.05,35.9,0)" xlink:href="#U"/><use transform="matrix(0.05,0,0,0.05,39.85,0)" xlink:href="#I"/><use transform="matrix(0.05,0,0,0.05,48.85,0)" xlink:href="#z"/><use transform="matrix(0.05,0,0,0.05,58.85,0)" xlink:href="#S"/><use transform="matrix(0.05,0,0,0.05,70.85,0)" xlink:href="#z"/><use transform="matrix(0.05,0,0,0.05,80.85,0)" xlink:href="#M"/><use transform="matrix(0.05,0,0,0.05,85.85,0)" xlink:href="#z"/><use transform="matrix(0.05,0,0,0.05,95.85,0)" xlink:href="#J"/><use transform="matrix(0.05,0,0,0.05,99.8,0)" xlink:href="#K"/><use transform="matrix(0.05,0,0,0.05,109.80000000000001,0)" xlink:href="#z"/></g><path d="M27 0v-27h64v-190l-56 39v-29l58-41h29v221h61V0H27" id="ag"/><use transform="matrix(0.05,0,0,0.05,0,0)" xlink:href="#ag" id="v"/><path d="M101-251c82-7 93 87 43 132L82-64C71-53 59-42 53-27h129V0H18c2-99 128-94 128-182 0-28-16-43-45-43s-46 15-49 41l-32-3c6-41 34-60 81-64" id="ah"/><use transform="matrix(0.05,0,0,0.05,0,0)" xlink:href="#ah" id="w"/><g id="x"><use transform="matrix(0.05,0,0,0.05,0,0)" xlink:href="#y"/><use transform="matrix(0.05,0,0,0.05,14,0)" xlink:href="#z"/><use transform="matrix(0.05,0,0,0.05,24,0)" xlink:href="#N"/><use transform="matrix(0.05,0,0,0.05,34,0)" xlink:href="#K"/><use transform="matrix(0.05,0,0,0.05,44,0)" xlink:href="#z"/><use transform="matrix(0.05,0,0,0.05,54,0)" xlink:href="#F"/><use transform="matrix(0.05,0,0,0.05,64,0)" xlink:href="#D"/><use transform="matrix(0.05,0,0,0.05,74,0)" xlink:href="#G"/></g></defs></g></svg>