<svg xmlns="http://www.w3.org/2000/svg" xmlns:xlink="http://www.w3.org/1999/xlink" xmlns:lucid="lucid" width="10160" height="1280"><g transform="translate(5160 860)" lucid:page-tab-id="0_0"><path d="M-5419.2-1259.2H5483.2v2582.4H-5419.2z" fill="#fff"/><path d="M-1200-840h260v380h-260z" stroke="#000" stroke-width="2" fill="#fff"/><path d="M-1200-802.4h260m-260 160.3h260" stroke="#000" stroke-width="2" fill="none"/><use xlink:href="#a" transform="matrix(1,0,0,1,-1192,-832) translate(100.55 14.6)"/><use xlink:href="#b" transform="matrix(1,0,0,1,-1188,-794.4) translate(0 54.5)"/><use xlink:href="#c" transform="matrix(1,0,0,1,-1188,-794.4) translate(15 54.5)"/><use xlink:href="#d" transform="matrix(1,0,0,1,-1188,-794.4) translate(69.95 54.5)"/><use xlink:href="#b" transform="matrix(1,0,0,1,-1188,-794.4) translate(0 76.10000000000001)"/><use xlink:href="#e" transform="matrix(1,0,0,1,-1188,-794.4) translate(15 76.10000000000001)"/><use xlink:href="#f" transform="matrix(1,0,0,1,-1188,-794.4) translate(63.900000000000006 76.10000000000001)"/><use xlink:href="#b" transform="matrix(1,0,0,1,-1188,-794.4) translate(0 97.70000000000002)"/><use xlink:href="#g" transform="matrix(1,0,0,1,-1188,-794.4) translate(15 97.70000000000002)"/><use xlink:href="#h" transform="matrix(1,0,0,1,-1188,-794.4) translate(53.95 97.70000000000002)"/><use xlink:href="#i" transform="matrix(1,0,0,1,-1188,-634.0999999999999) translate(0 54.19999999999999)"/><use xlink:href="#j" transform="matrix(1,0,0,1,-1188,-634.0999999999999) translate(15.5 54.19999999999999)"/><use xlink:href="#k" transform="matrix(1,0,0,1,-1188,-634.0999999999999) translate(67.4 54.19999999999999)"/><use xlink:href="#i" transform="matrix(1,0,0,1,-1188,-634.0999999999999) translate(0 75.8)"/><use xlink:href="#l" transform="matrix(1,0,0,1,-1188,-634.0999999999999) translate(15.5 75.8)"/><use xlink:href="#m" transform="matrix(1,0,0,1,-1188,-634.0999999999999) translate(39.45 75.8)"/><use xlink:href="#i" transform="matrix(1,0,0,1,-1188,-634.0999999999999) translate(0 97.4)"/><use xlink:href="#n" transform="matrix(1,0,0,1,-1188,-634.0999999999999) translate(15.5 97.4)"/><use xlink:href="#o" transform="matrix(1,0,0,1,-1188,-634.0999999999999) translate(54.75 97.4)"/><use xlink:href="#i" transform="matrix(1,0,0,1,-1188,-634.0999999999999) translate(0 119)"/><use xlink:href="#p" transform="matrix(1,0,0,1,-1188,-634.0999999999999) translate(15.5 119)"/><use xlink:href="#q" transform="matrix(1,0,0,1,-1188,-634.0999999999999) translate(53.45 119)"/><use xlink:href="#r" transform="matrix(1,0,0,1,-1188,-634.0999999999999) translate(156.9 119)"/><path d="M-4160 180h460v220h-460z" stroke="#000" stroke-width="2" fill="#fff"/><path d="M-4160 217.6h460m-460 112.8h460" stroke="#000" stroke-width="2" fill="none"/><use xlink:href="#s" transform="matrix(1,0,0,1,-4152,188) translate(156.05 14.6)"/><use xlink:href="#t" transform="matrix(1,0,0,1,-4148,225.6) translate(0 30.5)"/><use xlink:href="#u" transform="matrix(1,0,0,1,-4148,225.6) translate(54.95 30.5)"/><use xlink:href="#v" transform="matrix(1,0,0,1,-4148,225.6) translate(103.85 30.5)"/><use xlink:href="#w" transform="matrix(1,0,0,1,-4148,225.6) translate(119.35 30.5)"/><use xlink:href="#x" transform="matrix(1,0,0,1,-4148,225.6) translate(176.35 30.5)"/><use xlink:href="#y" transform="matrix(1,0,0,1,-4148,225.6) translate(0 52.1)"/><use xlink:href="#l" transform="matrix(1,0,0,1,-4148,225.6) translate(48.900000000000006 52.1)"/><use xlink:href="#v" transform="matrix(1,0,0,1,-4148,225.6) translate(72.85000000000001 52.1)"/><use xlink:href="#z" transform="matrix(1,0,0,1,-4148,225.6) translate(88.35000000000001 52.1)"/><use xlink:href="#A" transform="matrix(1,0,0,1,-4148,225.6) translate(0 73.7)"/><use xlink:href="#n" transform="matrix(1,0,0,1,-4148,225.6) translate(38.95 73.7)"/><use xlink:href="#v" transform="matrix(1,0,0,1,-4148,225.6) translate(78.2 73.7)"/><use xlink:href="#B" transform="matrix(1,0,0,1,-4148,225.6) translate(93.7 73.7)"/><path d="M-3660 180h460v219h-460z" stroke="#000" stroke-width="2" fill="#fff"/><path d="M-3660 217.6h460m-460 112.35h460" stroke="#000" stroke-width="2" fill="none"/><use xlink:href="#C" transform="matrix(1,0,0,1,-3652,188) translate(151.6 14.6)"/><use xlink:href="#t" transform="matrix(1,0,0,1,-3648,225.6) translate(0 30.5)"/><use xlink:href="#u" transform="matrix(1,0,0,1,-3648,225.6) translate(54.95 30.5)"/><use xlink:href="#v" transform="matrix(1,0,0,1,-3648,225.6) translate(103.85 30.5)"/><use xlink:href="#w" transform="matrix(1,0,0,1,-3648,225.6) translate(119.35 30.5)"/><use xlink:href="#D" transform="matrix(1,0,0,1,-3648,225.6) translate(176.35 30.5)"/><use xlink:href="#y" transform="matrix(1,0,0,1,-3648,225.6) translate(0 52.1)"/><use xlink:href="#l" transform="matrix(1,0,0,1,-3648,225.6) translate(48.900000000000006 52.1)"/><use xlink:href="#v" transform="matrix(1,0,0,1,-3648,225.6) translate(72.85000000000001 52.1)"/><use xlink:href="#z" transform="matrix(1,0,0,1,-3648,225.6) translate(88.35000000000001 52.1)"/><use xlink:href="#A" transform="matrix(1,0,0,1,-3648,225.6) translate(0 73.7)"/><use xlink:href="#n" transform="matrix(1,0,0,1,-3648,225.6) translate(38.95 73.7)"/><use xlink:href="#v" transform="matrix(1,0,0,1,-3648,225.6) translate(78.2 73.7)"/><use xlink:href="#E" transform="matrix(1,0,0,1,-3648,225.6) translate(93.7 73.7)"/><path d="M-3430 178v-318h2360v-300.5" stroke="#000" stroke-width="2" fill="none"/><path d="M-3429 179h-2v-1.03h2z"/><path d="M-1070-455.76l4.64 14.26h-9.28z" stroke="#000" stroke-width="2"/><path d="M-3930 178v-318h2860v-300.5" stroke="#000" stroke-width="2" fill="none"/><path d="M-3929 179h-2v-1.03h2z"/><path d="M-1070-455.76l4.64 14.26h-9.28z" stroke="#000" stroke-width="2"/><path d="M-5140 180h460v220h-460z" stroke="#000" stroke-width="2" fill="#fff"/><path d="M-5140 217.6h460m-460 112.8h460" stroke="#000" stroke-width="2" fill="none"/><use xlink:href="#F" transform="matrix(1,0,0,1,-5132,188) translate(150.05 14.6)"/><use xlink:href="#t" transform="matrix(1,0,0,1,-5128,225.6) translate(0 30.5)"/><use xlink:href="#u" transform="matrix(1,0,0,1,-5128,225.6) translate(54.95 30.5)"/><use xlink:href="#v" transform="matrix(1,0,0,1,-5128,225.6) translate(103.85 30.5)"/><use xlink:href="#w" transform="matrix(1,0,0,1,-5128,225.6) translate(119.35 30.5)"/><use xlink:href="#G" transform="matrix(1,0,0,1,-5128,225.6) translate(176.35 30.5)"/><use xlink:href="#y" transform="matrix(1,0,0,1,-5128,225.6) translate(0 52.1)"/><use xlink:href="#l" transform="matrix(1,0,0,1,-5128,225.6) translate(48.900000000000006 52.1)"/><use xlink:href="#v" transform="matrix(1,0,0,1,-5128,225.6) translate(72.85000000000001 52.1)"/><use xlink:href="#z" transform="matrix(1,0,0,1,-5128,225.6) translate(88.35000000000001 52.1)"/><use xlink:href="#A" transform="matrix(1,0,0,1,-5128,225.6) translate(0 73.7)"/><use xlink:href="#n" transform="matrix(1,0,0,1,-5128,225.6) translate(38.95 73.7)"/><use xlink:href="#v" transform="matrix(1,0,0,1,-5128,225.6) translate(78.2 73.7)"/><use xlink:href="#H" transform="matrix(1,0,0,1,-5128,225.6) translate(93.7 73.7)"/><path d="M-4640 180h440v220h-440z" stroke="#000" stroke-width="2" fill="#fff"/><path d="M-4640 217.6h440m-440 112.8h440" stroke="#000" stroke-width="2" fill="none"/><use xlink:href="#I" transform="matrix(1,0,0,1,-4632,188) translate(151.55 14.6)"/><use xlink:href="#t" transform="matrix(1,0,0,1,-4628,225.6) translate(0 30.5)"/><use xlink:href="#u" transform="matrix(1,0,0,1,-4628,225.6) translate(54.95 30.5)"/><use xlink:href="#v" transform="matrix(1,0,0,1,-4628,225.6) translate(103.85 30.5)"/><use xlink:href="#w" transform="matrix(1,0,0,1,-4628,225.6) translate(119.35 30.5)"/><use xlink:href="#J" transform="matrix(1,0,0,1,-4628,225.6) translate(176.35 30.5)"/><use xlink:href="#y" transform="matrix(1,0,0,1,-4628,225.6) translate(0 52.1)"/><use xlink:href="#l" transform="matrix(1,0,0,1,-4628,225.6) translate(48.900000000000006 52.1)"/><use xlink:href="#v" transform="matrix(1,0,0,1,-4628,225.6) translate(72.85000000000001 52.1)"/><use xlink:href="#z" transform="matrix(1,0,0,1,-4628,225.6) translate(88.35000000000001 52.1)"/><use xlink:href="#A" transform="matrix(1,0,0,1,-4628,225.6) translate(0 73.7)"/><use xlink:href="#n" transform="matrix(1,0,0,1,-4628,225.6) translate(38.95 73.7)"/><use xlink:href="#v" transform="matrix(1,0,0,1,-4628,225.6) translate(78.2 73.7)"/><use xlink:href="#K" transform="matrix(1,0,0,1,-4628,225.6) translate(93.7 73.7)"/><path d="M-4420 178v-318h3350v-300.5" stroke="#000" stroke-width="2" fill="none"/><path d="M-4419 179h-2v-1.03h2z"/><path d="M-1070-455.76l4.64 14.26h-9.28z" stroke="#000" stroke-width="2"/><path d="M-3160 181h520v219h-520z" stroke="#000" stroke-width="2" fill="#fff"/><path d="M-3160 218.6h520M-3160 331h520" stroke="#000" stroke-width="2" fill="none"/><use xlink:href="#L" transform="matrix(1,0,0,1,-3152,189) translate(183.1 14.6)"/><use xlink:href="#t" transform="matrix(1,0,0,1,-3148,226.6) translate(0 30.5)"/><use xlink:href="#u" transform="matrix(1,0,0,1,-3148,226.6) translate(54.95 30.5)"/><use xlink:href="#v" transform="matrix(1,0,0,1,-3148,226.6) translate(103.85 30.5)"/><use xlink:href="#M" transform="matrix(1,0,0,1,-3148,226.6) translate(119.35 30.5)"/><use xlink:href="#y" transform="matrix(1,0,0,1,-3148,226.6) translate(0 52.1)"/><use xlink:href="#l" transform="matrix(1,0,0,1,-3148,226.6) translate(48.900000000000006 52.1)"/><use xlink:href="#v" transform="matrix(1,0,0,1,-3148,226.6) translate(72.85000000000001 52.1)"/><use xlink:href="#N" transform="matrix(1,0,0,1,-3148,226.6) translate(88.35000000000001 52.1)"/><use xlink:href="#A" transform="matrix(1,0,0,1,-3148,226.6) translate(0 73.7)"/><use xlink:href="#n" transform="matrix(1,0,0,1,-3148,226.6) translate(38.95 73.7)"/><use xlink:href="#v" transform="matrix(1,0,0,1,-3148,226.6) translate(78.2 73.7)"/><use xlink:href="#H" transform="matrix(1,0,0,1,-3148,226.6) translate(93.7 73.7)"/><path d="M-4910 178v-318h3840v-300.5" stroke="#000" stroke-width="2" fill="none"/><path d="M-4909 179h-2v-1.03h2z"/><path d="M-1070-455.76l4.64 14.26h-9.28z" stroke="#000" stroke-width="2"/><path d="M-2900 179v-318" stroke="#000" stroke-width="2" fill="none"/><path d="M-2899 180h-2v-1.03h2z"/><path d="M-2900-138.97V-140" stroke="#000" stroke-width="2" fill="none"/><path d="M-1620 180h460v220h-460z" stroke="#000" stroke-width="2" fill="#fff"/><path d="M-1620 217.6h460m-460 112.8h460" stroke="#000" stroke-width="2" fill="none"/><use xlink:href="#O" transform="matrix(1,0,0,1,-1612,188) translate(154.64999999999998 14.6)"/><use xlink:href="#t" transform="matrix(1,0,0,1,-1608,225.6) translate(0 30.5)"/><use xlink:href="#u" transform="matrix(1,0,0,1,-1608,225.6) translate(54.95 30.5)"/><use xlink:href="#v" transform="matrix(1,0,0,1,-1608,225.6) translate(103.85 30.5)"/><use xlink:href="#P" transform="matrix(1,0,0,1,-1608,225.6) translate(119.35 30.5)"/><use xlink:href="#D" transform="matrix(1,0,0,1,-1608,225.6) translate(170.25 30.5)"/><use xlink:href="#y" transform="matrix(1,0,0,1,-1608,225.6) translate(0 52.1)"/><use xlink:href="#l" transform="matrix(1,0,0,1,-1608,225.6) translate(48.900000000000006 52.1)"/><use xlink:href="#v" transform="matrix(1,0,0,1,-1608,225.6) translate(72.85000000000001 52.1)"/><use xlink:href="#N" transform="matrix(1,0,0,1,-1608,225.6) translate(88.35000000000001 52.1)"/><use xlink:href="#A" transform="matrix(1,0,0,1,-1608,225.6) translate(0 73.7)"/><use xlink:href="#n" transform="matrix(1,0,0,1,-1608,225.6) translate(38.95 73.7)"/><use xlink:href="#v" transform="matrix(1,0,0,1,-1608,225.6) translate(78.2 73.7)"/><use xlink:href="#E" transform="matrix(1,0,0,1,-1608,225.6) translate(93.7 73.7)"/><path d="M-1120 180h460v219h-460z" stroke="#000" stroke-width="2" fill="#fff"/><path d="M-1120 217.6h460m-460 112.35h460" stroke="#000" stroke-width="2" fill="none"/><use xlink:href="#Q" transform="matrix(1,0,0,1,-1112,188) translate(145.55 14.6)"/><use xlink:href="#t" transform="matrix(1,0,0,1,-1108,225.6) translate(0 30.5)"/><use xlink:href="#u" transform="matrix(1,0,0,1,-1108,225.6) translate(54.95 30.5)"/><use xlink:href="#v" transform="matrix(1,0,0,1,-1108,225.6) translate(103.85 30.5)"/><use xlink:href="#R" transform="matrix(1,0,0,1,-1108,225.6) translate(119.35 30.5)"/><use xlink:href="#G" transform="matrix(1,0,0,1,-1108,225.6) translate(185.35 30.5)"/><use xlink:href="#y" transform="matrix(1,0,0,1,-1108,225.6) translate(0 52.1)"/><use xlink:href="#l" transform="matrix(1,0,0,1,-1108,225.6) translate(48.900000000000006 52.1)"/><use xlink:href="#v" transform="matrix(1,0,0,1,-1108,225.6) translate(72.85000000000001 52.1)"/><use xlink:href="#S" transform="matrix(1,0,0,1,-1108,225.6) translate(88.35000000000001 52.1)"/><use xlink:href="#A" transform="matrix(1,0,0,1,-1108,225.6) translate(0 73.7)"/><use xlink:href="#n" transform="matrix(1,0,0,1,-1108,225.6) translate(38.95 73.7)"/><use xlink:href="#v" transform="matrix(1,0,0,1,-1108,225.6) translate(78.2 73.7)"/><use xlink:href="#H" transform="matrix(1,0,0,1,-1108,225.6) translate(93.7 73.7)"/><path d="M-2600 180h460v219h-460z" stroke="#000" stroke-width="2" fill="#fff"/><path d="M-2600 217.6h460m-460 112.3h460" stroke="#000" stroke-width="2" fill="none"/><g><use xlink:href="#T" transform="matrix(1,0,0,1,-2592,188) translate(148.55 14.6)"/></g><g><use xlink:href="#t" transform="matrix(1,0,0,1,-2588,225.6) translate(0 30.5)"/><use xlink:href="#u" transform="matrix(1,0,0,1,-2588,225.6) translate(54.95 30.5)"/><use xlink:href="#v" transform="matrix(1,0,0,1,-2588,225.6) translate(103.85 30.5)"/><use xlink:href="#P" transform="matrix(1,0,0,1,-2588,225.6) translate(119.35 30.5)"/><use xlink:href="#U" transform="matrix(1,0,0,1,-2588,225.6) translate(170.25 30.5)"/><use xlink:href="#y" transform="matrix(1,0,0,1,-2588,225.6) translate(0 52.1)"/><use xlink:href="#l" transform="matrix(1,0,0,1,-2588,225.6) translate(48.900000000000006 52.1)"/><use xlink:href="#v" transform="matrix(1,0,0,1,-2588,225.6) translate(72.85000000000001 52.1)"/><use xlink:href="#N" transform="matrix(1,0,0,1,-2588,225.6) translate(88.35000000000001 52.1)"/><use xlink:href="#A" transform="matrix(1,0,0,1,-2588,225.6) translate(0 73.7)"/><use xlink:href="#n" transform="matrix(1,0,0,1,-2588,225.6) translate(38.95 73.7)"/><use xlink:href="#v" transform="matrix(1,0,0,1,-2588,225.6) translate(78.2 73.7)"/><use xlink:href="#V" transform="matrix(1,0,0,1,-2588,225.6) translate(93.7 73.7)"/></g><path d="M-2100 180h440v220h-440z" stroke="#000" stroke-width="2" fill="#fff"/><path d="M-2100 217.6h440m-440 112.8h440" stroke="#000" stroke-width="2" fill="none"/><g><use xlink:href="#W" transform="matrix(1,0,0,1,-2092,188) translate(149.1 14.6)"/></g><g><use xlink:href="#t" transform="matrix(1,0,0,1,-2088,225.6) translate(0 30.5)"/><use xlink:href="#u" transform="matrix(1,0,0,1,-2088,225.6) translate(54.95 30.5)"/><use xlink:href="#v" transform="matrix(1,0,0,1,-2088,225.6) translate(103.85 30.5)"/><use xlink:href="#P" transform="matrix(1,0,0,1,-2088,225.6) translate(119.35 30.5)"/><use xlink:href="#x" transform="matrix(1,0,0,1,-2088,225.6) translate(170.25 30.5)"/><use xlink:href="#y" transform="matrix(1,0,0,1,-2088,225.6) translate(0 52.1)"/><use xlink:href="#l" transform="matrix(1,0,0,1,-2088,225.6) translate(48.900000000000006 52.1)"/><use xlink:href="#v" transform="matrix(1,0,0,1,-2088,225.6) translate(72.85000000000001 52.1)"/><use xlink:href="#N" transform="matrix(1,0,0,1,-2088,225.6) translate(88.35000000000001 52.1)"/><use xlink:href="#A" transform="matrix(1,0,0,1,-2088,225.6) translate(0 73.7)"/><use xlink:href="#n" transform="matrix(1,0,0,1,-2088,225.6) translate(38.95 73.7)"/><use xlink:href="#v" transform="matrix(1,0,0,1,-2088,225.6) translate(78.2 73.7)"/><use xlink:href="#B" transform="matrix(1,0,0,1,-2088,225.6) translate(93.7 73.7)"/></g><path d="M-620 181h520v219h-520z" stroke="#000" stroke-width="2" fill="#fff"/><path d="M-620 218.6h520M-620 331h520" stroke="#000" stroke-width="2" fill="none"/><g><use xlink:href="#X" transform="matrix(1,0,0,1,-612,189) translate(171 14.6)"/></g><g><use xlink:href="#t" transform="matrix(1,0,0,1,-608,226.6) translate(0 30.5)"/><use xlink:href="#u" transform="matrix(1,0,0,1,-608,226.6) translate(54.95 30.5)"/><use xlink:href="#v" transform="matrix(1,0,0,1,-608,226.6) translate(103.85 30.5)"/><use xlink:href="#R" transform="matrix(1,0,0,1,-608,226.6) translate(119.35 30.5)"/><use xlink:href="#U" transform="matrix(1,0,0,1,-608,226.6) translate(185.35 30.5)"/><use xlink:href="#y" transform="matrix(1,0,0,1,-608,226.6) translate(0 52.1)"/><use xlink:href="#l" transform="matrix(1,0,0,1,-608,226.6) translate(48.900000000000006 52.1)"/><use xlink:href="#v" transform="matrix(1,0,0,1,-608,226.6) translate(72.85000000000001 52.1)"/><use xlink:href="#S" transform="matrix(1,0,0,1,-608,226.6) translate(88.35000000000001 52.1)"/><use xlink:href="#A" transform="matrix(1,0,0,1,-608,226.6) translate(0 73.7)"/><use xlink:href="#n" transform="matrix(1,0,0,1,-608,226.6) translate(38.95 73.7)"/><use xlink:href="#v" transform="matrix(1,0,0,1,-608,226.6) translate(78.2 73.7)"/><use xlink:href="#V" transform="matrix(1,0,0,1,-608,226.6) translate(93.7 73.7)"/></g><path d="M920 180h460v220H920z" stroke="#000" stroke-width="2" fill="#fff"/><path d="M920 217.6h460M920 330.4h460" stroke="#000" stroke-width="2" fill="none"/><g><use xlink:href="#Y" transform="matrix(1,0,0,1,928,188) translate(160.575 14.6)"/></g><g><use xlink:href="#t" transform="matrix(1,0,0,1,932,225.6) translate(0 30.5)"/><use xlink:href="#u" transform="matrix(1,0,0,1,932,225.6) translate(54.95 30.5)"/><use xlink:href="#v" transform="matrix(1,0,0,1,932,225.6) translate(103.85 30.5)"/><use xlink:href="#R" transform="matrix(1,0,0,1,932,225.6) translate(119.35 30.5)"/><use xlink:href="#Z" transform="matrix(1,0,0,1,932,225.6) translate(185.35 30.5)"/><use xlink:href="#y" transform="matrix(1,0,0,1,932,225.6) translate(0 52.1)"/><use xlink:href="#l" transform="matrix(1,0,0,1,932,225.6) translate(48.900000000000006 52.1)"/><use xlink:href="#v" transform="matrix(1,0,0,1,932,225.6) translate(72.85000000000001 52.1)"/><use xlink:href="#S" transform="matrix(1,0,0,1,932,225.6) translate(88.35000000000001 52.1)"/><use xlink:href="#A" transform="matrix(1,0,0,1,932,225.6) translate(0 73.7)"/><use xlink:href="#n" transform="matrix(1,0,0,1,932,225.6) translate(38.95 73.7)"/><use xlink:href="#v" transform="matrix(1,0,0,1,932,225.6) translate(78.2 73.7)"/><use xlink:href="#K" transform="matrix(1,0,0,1,932,225.6) translate(93.7 73.7)"/></g><path d="M1420 180h460v219h-460z" stroke="#000" stroke-width="2" fill="#fff"/><path d="M1420 217.6h460m-460 112.35h460" stroke="#000" stroke-width="2" fill="none"/><g><use xlink:href="#aa" transform="matrix(1,0,0,1,1428,188) translate(139.075 14.6)"/></g><g><use xlink:href="#t" transform="matrix(1,0,0,1,1432,225.6) translate(0 30.5)"/><use xlink:href="#u" transform="matrix(1,0,0,1,1432,225.6) translate(54.95 30.5)"/><use xlink:href="#v" transform="matrix(1,0,0,1,1432,225.6) translate(103.85 30.5)"/><use xlink:href="#ab" transform="matrix(1,0,0,1,1432,225.6) translate(119.35 30.5)"/><use xlink:href="#G" transform="matrix(1,0,0,1,1432,225.6) translate(198.3 30.5)"/><use xlink:href="#y" transform="matrix(1,0,0,1,1432,225.6) translate(0 52.1)"/><use xlink:href="#l" transform="matrix(1,0,0,1,1432,225.6) translate(48.900000000000006 52.1)"/><use xlink:href="#v" transform="matrix(1,0,0,1,1432,225.6) translate(72.85000000000001 52.1)"/><use xlink:href="#ac" transform="matrix(1,0,0,1,1432,225.6) translate(88.35000000000001 52.1)"/><use xlink:href="#A" transform="matrix(1,0,0,1,1432,225.6) translate(0 73.7)"/><use xlink:href="#n" transform="matrix(1,0,0,1,1432,225.6) translate(38.95 73.7)"/><use xlink:href="#v" transform="matrix(1,0,0,1,1432,225.6) translate(78.2 73.7)"/><use xlink:href="#H" transform="matrix(1,0,0,1,1432,225.6) translate(93.7 73.7)"/></g><path d="M-60 180h460v219H-60z" stroke="#000" stroke-width="2" fill="#fff"/><path d="M-60 217.6h460M-60 329.9h460" stroke="#000" stroke-width="2" fill="none"/><g><use xlink:href="#ad" transform="matrix(1,0,0,1,-52,188) translate(151.55 14.6)"/></g><g><use xlink:href="#t" transform="matrix(1,0,0,1,-48,225.6) translate(0 30.5)"/><use xlink:href="#u" transform="matrix(1,0,0,1,-48,225.6) translate(54.95 30.5)"/><use xlink:href="#v" transform="matrix(1,0,0,1,-48,225.6) translate(103.85 30.5)"/><use xlink:href="#R" transform="matrix(1,0,0,1,-48,225.6) translate(119.35 30.5)"/><use xlink:href="#x" transform="matrix(1,0,0,1,-48,225.6) translate(185.35 30.5)"/><use xlink:href="#y" transform="matrix(1,0,0,1,-48,225.6) translate(0 52.1)"/><use xlink:href="#l" transform="matrix(1,0,0,1,-48,225.6) translate(48.900000000000006 52.1)"/><use xlink:href="#v" transform="matrix(1,0,0,1,-48,225.6) translate(72.85000000000001 52.1)"/><use xlink:href="#S" transform="matrix(1,0,0,1,-48,225.6) translate(88.35000000000001 52.1)"/><use xlink:href="#A" transform="matrix(1,0,0,1,-48,225.6) translate(0 73.7)"/><use xlink:href="#n" transform="matrix(1,0,0,1,-48,225.6) translate(38.95 73.7)"/><use xlink:href="#v" transform="matrix(1,0,0,1,-48,225.6) translate(78.2 73.7)"/><use xlink:href="#B" transform="matrix(1,0,0,1,-48,225.6) translate(93.7 73.7)"/></g><path d="M440 180h440v220H440z" stroke="#000" stroke-width="2" fill="#fff"/><path d="M440 217.6h440M440 330.4h440" stroke="#000" stroke-width="2" fill="none"/><g><use xlink:href="#ae" transform="matrix(1,0,0,1,448,188) translate(137.1 14.6)"/></g><g><use xlink:href="#t" transform="matrix(1,0,0,1,452,225.6) translate(0 30.5)"/><use xlink:href="#u" transform="matrix(1,0,0,1,452,225.6) translate(54.95 30.5)"/><use xlink:href="#v" transform="matrix(1,0,0,1,452,225.6) translate(103.85 30.5)"/><use xlink:href="#R" transform="matrix(1,0,0,1,452,225.6) translate(119.35 30.5)"/><use xlink:href="#D" transform="matrix(1,0,0,1,452,225.6) translate(185.35 30.5)"/><use xlink:href="#y" transform="matrix(1,0,0,1,452,225.6) translate(0 52.1)"/><use xlink:href="#l" transform="matrix(1,0,0,1,452,225.6) translate(48.900000000000006 52.1)"/><use xlink:href="#v" transform="matrix(1,0,0,1,452,225.6) translate(72.85000000000001 52.1)"/><use xlink:href="#S" transform="matrix(1,0,0,1,452,225.6) translate(88.35000000000001 52.1)"/><use xlink:href="#A" transform="matrix(1,0,0,1,452,225.6) translate(0 73.7)"/><use xlink:href="#n" transform="matrix(1,0,0,1,452,225.6) translate(38.95 73.7)"/><use xlink:href="#v" transform="matrix(1,0,0,1,452,225.6) translate(78.2 73.7)"/><use xlink:href="#E" transform="matrix(1,0,0,1,452,225.6) translate(93.7 73.7)"/></g><path d="M1920 181h520v219h-520z" stroke="#000" stroke-width="2" fill="#fff"/><path d="M1920 218.6h520M1920 331h520" stroke="#000" stroke-width="2" fill="none"/><g><use xlink:href="#af" transform="matrix(1,0,0,1,1928,189) translate(180.575 14.6)"/></g><g><use xlink:href="#t" transform="matrix(1,0,0,1,1932,226.6) translate(0 30.5)"/><use xlink:href="#u" transform="matrix(1,0,0,1,1932,226.6) translate(54.95 30.5)"/><use xlink:href="#v" transform="matrix(1,0,0,1,1932,226.6) translate(103.85 30.5)"/><use xlink:href="#ab" transform="matrix(1,0,0,1,1932,226.6) translate(119.35 30.5)"/><use xlink:href="#J" transform="matrix(1,0,0,1,1932,226.6) translate(198.3 30.5)"/><use xlink:href="#y" transform="matrix(1,0,0,1,1932,226.6) translate(0 52.1)"/><use xlink:href="#l" transform="matrix(1,0,0,1,1932,226.6) translate(48.900000000000006 52.1)"/><use xlink:href="#v" transform="matrix(1,0,0,1,1932,226.6) translate(72.85000000000001 52.1)"/><use xlink:href="#ac" transform="matrix(1,0,0,1,1932,226.6) translate(88.35000000000001 52.1)"/><use xlink:href="#A" transform="matrix(1,0,0,1,1932,226.6) translate(0 73.7)"/><use xlink:href="#n" transform="matrix(1,0,0,1,1932,226.6) translate(38.95 73.7)"/><use xlink:href="#v" transform="matrix(1,0,0,1,1932,226.6) translate(78.2 73.7)"/><use xlink:href="#K" transform="matrix(1,0,0,1,1932,226.6) translate(93.7 73.7)"/></g><path d="M3460 180h460v220h-460z" stroke="#000" stroke-width="2" fill="#fff"/><path d="M3460 217.6h460m-460 112.8h460" stroke="#000" stroke-width="2" fill="none"/><g><use xlink:href="#ag" transform="matrix(1,0,0,1,3468,188) translate(146.125 14.6)"/></g><g><use xlink:href="#t" transform="matrix(1,0,0,1,3472,225.6) translate(0 30.5)"/><use xlink:href="#u" transform="matrix(1,0,0,1,3472,225.6) translate(54.95 30.5)"/><use xlink:href="#v" transform="matrix(1,0,0,1,3472,225.6) translate(103.85 30.5)"/><use xlink:href="#ah" transform="matrix(1,0,0,1,3472,225.6) translate(119.35 30.5)"/><use xlink:href="#ai" transform="matrix(1,0,0,1,3472,225.6) translate(184.2 30.5)"/><use xlink:href="#y" transform="matrix(1,0,0,1,3472,225.6) translate(0 52.1)"/><use xlink:href="#l" transform="matrix(1,0,0,1,3472,225.6) translate(48.900000000000006 52.1)"/><use xlink:href="#v" transform="matrix(1,0,0,1,3472,225.6) translate(72.85000000000001 52.1)"/><use xlink:href="#aj" transform="matrix(1,0,0,1,3472,225.6) translate(88.35000000000001 52.1)"/><use xlink:href="#A" transform="matrix(1,0,0,1,3472,225.6) translate(0 73.7)"/><use xlink:href="#n" transform="matrix(1,0,0,1,3472,225.6) translate(38.95 73.7)"/><use xlink:href="#v" transform="matrix(1,0,0,1,3472,225.6) translate(78.2 73.7)"/><use xlink:href="#K" transform="matrix(1,0,0,1,3472,225.6) translate(93.7 73.7)"/></g><path d="M3960 180h460v220h-460z" stroke="#000" stroke-width="2" fill="#fff"/><path d="M3960 217.6h460m-460 112.85h460" stroke="#000" stroke-width="2" fill="none"/><g><use xlink:href="#ak" transform="matrix(1,0,0,1,3968,188) translate(152.125 14.6)"/></g><g><use xlink:href="#t" transform="matrix(1,0,0,1,3972,225.6) translate(0 30.5)"/><use xlink:href="#u" transform="matrix(1,0,0,1,3972,225.6) translate(54.95 30.5)"/><use xlink:href="#v" transform="matrix(1,0,0,1,3972,225.6) translate(103.85 30.5)"/><use xlink:href="#ah" transform="matrix(1,0,0,1,3972,225.6) translate(119.35 30.5)"/><use xlink:href="#x" transform="matrix(1,0,0,1,3972,225.6) translate(184.2 30.5)"/><use xlink:href="#y" transform="matrix(1,0,0,1,3972,225.6) translate(0 52.1)"/><use xlink:href="#l" transform="matrix(1,0,0,1,3972,225.6) translate(48.900000000000006 52.1)"/><use xlink:href="#v" transform="matrix(1,0,0,1,3972,225.6) translate(72.85000000000001 52.1)"/><use xlink:href="#aj" transform="matrix(1,0,0,1,3972,225.6) translate(88.35000000000001 52.1)"/><use xlink:href="#A" transform="matrix(1,0,0,1,3972,225.6) translate(0 73.7)"/><use xlink:href="#n" transform="matrix(1,0,0,1,3972,225.6) translate(38.95 73.7)"/><use xlink:href="#v" transform="matrix(1,0,0,1,3972,225.6) translate(78.2 73.7)"/><use xlink:href="#B" transform="matrix(1,0,0,1,3972,225.6) translate(93.7 73.7)"/></g><path d="M2480 180h460v220h-460z" stroke="#000" stroke-width="2" fill="#fff"/><path d="M2480 217.6h460m-460 112.8h460" stroke="#000" stroke-width="2" fill="none"/><g><use xlink:href="#al" transform="matrix(1,0,0,1,2488.0000000000005,188) translate(145.075 14.6)"/></g><g><use xlink:href="#t" transform="matrix(1,0,0,1,2492.0000000000005,225.6) translate(0 30.5)"/><use xlink:href="#u" transform="matrix(1,0,0,1,2492.0000000000005,225.6) translate(54.95 30.5)"/><use xlink:href="#v" transform="matrix(1,0,0,1,2492.0000000000005,225.6) translate(103.85 30.5)"/><use xlink:href="#ab" transform="matrix(1,0,0,1,2492.0000000000005,225.6) translate(119.35 30.5)"/><use xlink:href="#x" transform="matrix(1,0,0,1,2492.0000000000005,225.6) translate(198.3 30.5)"/><use xlink:href="#y" transform="matrix(1,0,0,1,2492.0000000000005,225.6) translate(0 52.1)"/><use xlink:href="#l" transform="matrix(1,0,0,1,2492.0000000000005,225.6) translate(48.900000000000006 52.1)"/><use xlink:href="#v" transform="matrix(1,0,0,1,2492.0000000000005,225.6) translate(72.85000000000001 52.1)"/><use xlink:href="#ac" transform="matrix(1,0,0,1,2492.0000000000005,225.6) translate(88.35000000000001 52.1)"/><use xlink:href="#A" transform="matrix(1,0,0,1,2492.0000000000005,225.6) translate(0 73.7)"/><use xlink:href="#n" transform="matrix(1,0,0,1,2492.0000000000005,225.6) translate(38.95 73.7)"/><use xlink:href="#v" transform="matrix(1,0,0,1,2492.0000000000005,225.6) translate(78.2 73.7)"/><use xlink:href="#B" transform="matrix(1,0,0,1,2492.0000000000005,225.6) translate(93.7 73.7)"/></g><path d="M2980 180h440v220h-440z" stroke="#000" stroke-width="2" fill="#fff"/><path d="M2980 217.6h440m-440 112.8h440" stroke="#000" stroke-width="2" fill="none"/><g><use xlink:href="#am" transform="matrix(1,0,0,1,2988,188) translate(136.125 14.6)"/></g><g><use xlink:href="#t" transform="matrix(1,0,0,1,2992,225.6) translate(0 30.5)"/><use xlink:href="#u" transform="matrix(1,0,0,1,2992,225.6) translate(54.95 30.5)"/><use xlink:href="#v" transform="matrix(1,0,0,1,2992,225.6) translate(103.85 30.5)"/><use xlink:href="#ah" transform="matrix(1,0,0,1,2992,225.6) translate(119.35 30.5)"/><use xlink:href="#G" transform="matrix(1,0,0,1,2992,225.6) translate(184.2 30.5)"/><use xlink:href="#y" transform="matrix(1,0,0,1,2992,225.6) translate(0 52.1)"/><use xlink:href="#l" transform="matrix(1,0,0,1,2992,225.6) translate(48.900000000000006 52.1)"/><use xlink:href="#v" transform="matrix(1,0,0,1,2992,225.6) translate(72.85000000000001 52.1)"/><use xlink:href="#aj" transform="matrix(1,0,0,1,2992,225.6) translate(88.35000000000001 52.1)"/><use xlink:href="#A" transform="matrix(1,0,0,1,2992,225.6) translate(0 73.7)"/><use xlink:href="#n" transform="matrix(1,0,0,1,2992,225.6) translate(38.95 73.7)"/><use xlink:href="#v" transform="matrix(1,0,0,1,2992,225.6) translate(78.2 73.7)"/><use xlink:href="#H" transform="matrix(1,0,0,1,2992,225.6) translate(93.7 73.7)"/></g><path d="M4460 181h520v219h-520z" stroke="#000" stroke-width="2" fill="#fff"/><path d="M4460 218.6h520M4460 331h520" stroke="#000" stroke-width="2" fill="none"/><g><use xlink:href="#an" transform="matrix(1,0,0,1,4468,189) translate(177.67499999999998 14.6)"/></g><g><use xlink:href="#t" transform="matrix(1,0,0,1,4472,226.6) translate(0 30.5)"/><use xlink:href="#u" transform="matrix(1,0,0,1,4472,226.6) translate(54.95 30.5)"/><use xlink:href="#v" transform="matrix(1,0,0,1,4472,226.6) translate(103.85 30.5)"/><use xlink:href="#ah" transform="matrix(1,0,0,1,4472,226.6) translate(119.35 30.5)"/><use xlink:href="#D" transform="matrix(1,0,0,1,4472,226.6) translate(184.2 30.5)"/><use xlink:href="#y" transform="matrix(1,0,0,1,4472,226.6) translate(0 52.1)"/><use xlink:href="#l" transform="matrix(1,0,0,1,4472,226.6) translate(48.900000000000006 52.1)"/><use xlink:href="#v" transform="matrix(1,0,0,1,4472,226.6) translate(72.85000000000001 52.1)"/><use xlink:href="#aj" transform="matrix(1,0,0,1,4472,226.6) translate(88.35000000000001 52.1)"/><use xlink:href="#A" transform="matrix(1,0,0,1,4472,226.6) translate(0 73.7)"/><use xlink:href="#n" transform="matrix(1,0,0,1,4472,226.6) translate(38.95 73.7)"/><use xlink:href="#v" transform="matrix(1,0,0,1,4472,226.6) translate(78.2 73.7)"/><use xlink:href="#E" transform="matrix(1,0,0,1,4472,226.6) translate(93.7 73.7)"/></g><path d="M-2370 178v-317" stroke="#000" stroke-width="2" fill="none"/><path d="M-2369 179h-2v-1.03h2z"/><path d="M-2370-138.97V-140M-1880 178v-317" stroke="#000" stroke-width="2" fill="none"/><path d="M-1879 179h-2v-1.03h2z"/><path d="M-1880-138.97V-140M-1390 178v-317" stroke="#000" stroke-width="2" fill="none"/><path d="M-1389 179h-2v-1.03h2z"/><path d="M-1390-138.97V-140M-890 178v-318h-180v-318" stroke="#000" stroke-width="2" fill="none"/><path d="M-889 179h-2v-1.03h2zM-1069-457.97h-2V-459h2z"/><path d="M-360 179v-319h-529" stroke="#000" stroke-width="2" fill="none"/><path d="M-359 180h-2v-1.03h2z"/><path d="M-888.97-140H-890M170 178v-318h-529" stroke="#000" stroke-width="2" fill="none"/><path d="M171 179h-2v-1.03h2z"/><path d="M-358.97-140H-360M660 178v-318H171" stroke="#000" stroke-width="2" fill="none"/><path d="M661 179h-2v-1.03h2z"/><path d="M171.03-140H170M1150 178v-318H661" stroke="#000" stroke-width="2" fill="none"/><path d="M1151 179h-2v-1.03h2z"/><path d="M661.03-140H660M1650 178v-318h-499" stroke="#000" stroke-width="2" fill="none"/><path d="M1651 179h-2v-1.03h2z"/><path d="M1151.03-140H1150M2180 179v-317.3h-529" stroke="#000" stroke-width="2" fill="none"/><path d="M2181 180h-2v-1.03h2z"/><path d="M1651.03-138.3H1650M2710 178v-316.3h-529" stroke="#000" stroke-width="2" fill="none"/><path d="M2711 179h-2v-1.03h2z"/><path d="M2181.03-138.3H2180M3200 178v-316.3h-489" stroke="#000" stroke-width="2" fill="none"/><path d="M3201 179h-2v-1.03h2z"/><path d="M2711.03-138.3H2710M3690 178v-316.3h-489" stroke="#000" stroke-width="2" fill="none"/><path d="M3691 179h-2v-1.03h2z"/><path d="M3201.03-138.3H3200M4190 178v-316.3h-499" stroke="#000" stroke-width="2" fill="none"/><path d="M4191 179h-2v-1.03h2z"/><path d="M3691.03-138.3H3690M4720 179v-317.3h-529" stroke="#000" stroke-width="2" fill="none"/><path d="M4721 180h-2v-1.03h2z"/><path d="M4191.03-138.3H4190" stroke="#000" stroke-width="2" fill="none"/><defs><path d="M205 0l-28-72H64L36 0H1l101-248h38L239 0h-34zm-38-99l-47-123c-12 45-31 82-46 123h93" id="ao"/><path d="M114-163C36-179 61-72 57 0H25l-1-190h30c1 12-1 29 2 39 6-27 23-49 58-41v29" id="ap"/><path d="M210-169c-67 3-38 105-44 169h-31v-121c0-29-5-50-35-48C34-165 62-65 56 0H25l-1-190h30c1 10-1 24 2 32 10-44 99-50 107 0 11-21 27-35 58-36 85-2 47 119 55 194h-31v-121c0-29-5-49-35-48" id="aq"/><path d="M141-36C126-15 110 5 73 4 37 3 15-17 15-53c-1-64 63-63 125-63 3-35-9-54-41-54-24 1-41 7-42 31l-33-3c5-37 33-52 76-52 45 0 72 20 72 64v82c-1 20 7 32 28 27v20c-31 9-61-2-59-35zM48-53c0 20 12 33 32 33 41-3 63-29 60-74-43 2-92-5-92 41" id="ar"/><g id="a"><use transform="matrix(0.05,0,0,0.05,0,0)" xlink:href="#ao"/><use transform="matrix(0.05,0,0,0.05,12,0)" xlink:href="#ap"/><use transform="matrix(0.05,0,0,0.05,17.95,0)" xlink:href="#aq"/><use transform="matrix(0.05,0,0,0.05,32.9,0)" xlink:href="#ar"/></g><path d="M158-156l-14 65h45v19h-49L124 0h-19l15-72H56L41 0H22l15-72H2v-19h39l14-65H11v-19h48l15-71h20l-16 71h64l16-71h19l-16 71h37v19h-40zm-83 0L61-91h63l14-65H75" id="as"/><use transform="matrix(0.05,0,0,0.05,0,0)" xlink:href="#as" id="b"/><path d="M117-194c89-4 53 116 60 194h-32v-121c0-31-8-49-39-48C34-167 62-67 57 0H25l-1-190h30c1 10-1 24 2 32 11-22 29-35 61-36" id="at"/><path d="M100-194c62-1 85 37 85 99 1 63-27 99-86 99S16-35 15-95c0-66 28-99 85-99zM99-20c44 1 53-31 53-75 0-43-8-75-51-75s-53 32-53 75 10 74 51 75" id="au"/><path d="M100-194c63 0 86 42 84 106H49c0 40 14 67 53 68 26 1 43-12 49-29l28 8c-11 28-37 45-77 45C44 4 14-33 15-96c1-61 26-98 85-98zm52 81c6-60-76-77-97-28-3 7-6 17-6 28h103" id="av"/><path d="M33-154v-36h34v36H33zM33 0v-36h34V0H33" id="aw"/><g id="c"><use transform="matrix(0.05,0,0,0.05,0,0)" xlink:href="#at"/><use transform="matrix(0.05,0,0,0.05,10,0)" xlink:href="#au"/><use transform="matrix(0.05,0,0,0.05,20,0)" xlink:href="#aq"/><use transform="matrix(0.05,0,0,0.05,34.95,0)" xlink:href="#av"/><use transform="matrix(0.05,0,0,0.05,44.95,0)" xlink:href="#aw"/></g><path d="M135-143c-3-34-86-38-87 0 15 53 115 12 119 90S17 21 10-45l28-5c4 36 97 45 98 0-10-56-113-15-118-90-4-57 82-63 122-42 12 7 21 19 24 35" id="ax"/><path d="M59-47c-2 24 18 29 38 22v24C64 9 27 4 27-40v-127H5v-23h24l9-43h21v43h35v23H59v120" id="ay"/><path d="M24-231v-30h32v30H24zM24 0v-190h32V0H24" id="az"/><path d="M177-190C167-65 218 103 67 71c-23-6-38-20-44-43l32-5c15 47 100 32 89-28v-30C133-14 115 1 83 1 29 1 15-40 15-95c0-56 16-97 71-98 29-1 48 16 59 35 1-10 0-23 2-32h30zM94-22c36 0 50-32 50-73 0-42-14-75-50-75-39 0-46 34-46 75s6 73 46 73" id="aA"/><g id="d"><use transform="matrix(0.05,0,0,0.05,0,0)" xlink:href="#ax"/><use transform="matrix(0.05,0,0,0.05,9,0)" xlink:href="#ay"/><use transform="matrix(0.05,0,0,0.05,14,0)" xlink:href="#ap"/><use transform="matrix(0.05,0,0,0.05,19.95,0)" xlink:href="#az"/><use transform="matrix(0.05,0,0,0.05,23.9,0)" xlink:href="#at"/><use transform="matrix(0.05,0,0,0.05,33.9,0)" xlink:href="#aA"/></g><path d="M108 0H70L1-190h34L89-25l56-165h34" id="aB"/><path d="M24 0v-261h32V0H24" id="aC"/><g id="e"><use transform="matrix(0.05,0,0,0.05,0,0)" xlink:href="#aB"/><use transform="matrix(0.05,0,0,0.05,9,0)" xlink:href="#ar"/><use transform="matrix(0.05,0,0,0.05,19,0)" xlink:href="#aC"/><use transform="matrix(0.05,0,0,0.05,22.95,0)" xlink:href="#au"/><use transform="matrix(0.05,0,0,0.05,32.95,0)" xlink:href="#ap"/><use transform="matrix(0.05,0,0,0.05,38.900000000000006,0)" xlink:href="#aw"/></g><g id="f"><use transform="matrix(0.05,0,0,0.05,0,0)" xlink:href="#az"/><use transform="matrix(0.05,0,0,0.05,3.95,0)" xlink:href="#at"/><use transform="matrix(0.05,0,0,0.05,13.949999999999998,0)" xlink:href="#ay"/></g><path d="M115-194c55 1 70 41 70 98S169 2 115 4C84 4 66-9 55-30l1 105H24l-1-265h31l2 30c10-21 28-34 59-34zm-8 174c40 0 45-34 45-75s-6-73-45-74c-42 0-51 32-51 76 0 43 10 73 51 73" id="aD"/><g id="g"><use transform="matrix(0.05,0,0,0.05,0,0)" xlink:href="#ay"/><use transform="matrix(0.05,0,0,0.05,5,0)" xlink:href="#az"/><use transform="matrix(0.05,0,0,0.05,8.95,0)" xlink:href="#aD"/><use transform="matrix(0.05,0,0,0.05,18.95,0)" xlink:href="#au"/><use transform="matrix(0.05,0,0,0.05,28.950000000000003,0)" xlink:href="#aw"/></g><path d="M127-220V0H93v-220H8v-28h204v28h-85" id="aE"/><g id="h"><use transform="matrix(0.05,0,0,0.05,0,0)" xlink:href="#aE"/><use transform="matrix(0.05,0,0,0.05,10.3,0)" xlink:href="#az"/><use transform="matrix(0.05,0,0,0.05,14.25,0)" xlink:href="#aD"/><use transform="matrix(0.05,0,0,0.05,24.25,0)" xlink:href="#au"/></g><path d="M118-107v75H92v-75H18v-26h74v-75h26v75h74v26h-74" id="aF"/><use transform="matrix(0.05,0,0,0.05,0,0)" xlink:href="#aF" id="i"/><path d="M185-189c-5-48-123-54-124 2 14 75 158 14 163 119 3 78-121 87-175 55-17-10-28-26-33-46l33-7c5 56 141 63 141-1 0-78-155-14-162-118-5-82 145-84 179-34 5 7 8 16 11 25" id="aG"/><g id="j"><use transform="matrix(0.05,0,0,0.05,0,0)" xlink:href="#aG"/><use transform="matrix(0.05,0,0,0.05,12,0)" xlink:href="#ay"/><use transform="matrix(0.05,0,0,0.05,17,0)" xlink:href="#ap"/><use transform="matrix(0.05,0,0,0.05,22.95,0)" xlink:href="#az"/><use transform="matrix(0.05,0,0,0.05,26.899999999999995,0)" xlink:href="#at"/><use transform="matrix(0.05,0,0,0.05,36.9,0)" xlink:href="#aA"/></g><path d="M190 0L58-211 59 0H30v-248h39L202-35l-2-213h31V0h-41" id="aH"/><path d="M87 75C49 33 22-17 22-94c0-76 28-126 65-167h31c-38 41-64 92-64 168S80 34 118 75H87" id="aI"/><path d="M33-261c38 41 65 92 65 168S71 34 33 75H2C39 34 66-17 66-93S39-220 2-261h31" id="aJ"/><g id="k"><use transform="matrix(0.05,0,0,0.05,0,0)" xlink:href="#aA"/><use transform="matrix(0.05,0,0,0.05,10,0)" xlink:href="#av"/><use transform="matrix(0.05,0,0,0.05,20,0)" xlink:href="#ay"/><use transform="matrix(0.05,0,0,0.05,25,0)" xlink:href="#aH"/><use transform="matrix(0.05,0,0,0.05,37.95,0)" xlink:href="#au"/><use transform="matrix(0.05,0,0,0.05,47.95,0)" xlink:href="#aq"/><use transform="matrix(0.05,0,0,0.05,62.900000000000006,0)" xlink:href="#av"/><use transform="matrix(0.05,0,0,0.05,72.9,0)" xlink:href="#aI"/><use transform="matrix(0.05,0,0,0.05,78.85000000000001,0)" xlink:href="#aJ"/></g><g id="l"><use transform="matrix(0.05,0,0,0.05,0,0)" xlink:href="#az"/><use transform="matrix(0.05,0,0,0.05,3.95,0)" xlink:href="#at"/><use transform="matrix(0.05,0,0,0.05,13.949999999999998,0)" xlink:href="#ay"/></g><path d="M137 0h-34L2-248h35l83 218 83-218h36" id="aK"/><g id="m"><use transform="matrix(0.05,0,0,0.05,0,0)" xlink:href="#aA"/><use transform="matrix(0.05,0,0,0.05,10,0)" xlink:href="#av"/><use transform="matrix(0.05,0,0,0.05,20,0)" xlink:href="#ay"/><use transform="matrix(0.05,0,0,0.05,25,0)" xlink:href="#aK"/><use transform="matrix(0.05,0,0,0.05,35.65,0)" xlink:href="#ar"/><use transform="matrix(0.05,0,0,0.05,45.65,0)" xlink:href="#aC"/><use transform="matrix(0.05,0,0,0.05,49.6,0)" xlink:href="#au"/><use transform="matrix(0.05,0,0,0.05,59.6,0)" xlink:href="#ap"/><use transform="matrix(0.05,0,0,0.05,65.55,0)" xlink:href="#aI"/><use transform="matrix(0.05,0,0,0.05,71.5,0)" xlink:href="#aJ"/></g><g id="n"><use transform="matrix(0.05,0,0,0.05,0,0)" xlink:href="#aE"/><use transform="matrix(0.05,0,0,0.05,10.3,0)" xlink:href="#az"/><use transform="matrix(0.05,0,0,0.05,14.25,0)" xlink:href="#aD"/><use transform="matrix(0.05,0,0,0.05,24.25,0)" xlink:href="#au"/></g><g id="o"><use transform="matrix(0.05,0,0,0.05,0,0)" xlink:href="#aA"/><use transform="matrix(0.05,0,0,0.05,10,0)" xlink:href="#av"/><use transform="matrix(0.05,0,0,0.05,20,0)" xlink:href="#ay"/><use transform="matrix(0.05,0,0,0.05,25,0)" xlink:href="#aE"/><use transform="matrix(0.05,0,0,0.05,35.300000000000004,0)" xlink:href="#az"/><use transform="matrix(0.05,0,0,0.05,39.25000000000001,0)" xlink:href="#aD"/><use transform="matrix(0.05,0,0,0.05,49.25000000000001,0)" xlink:href="#au"/><use transform="matrix(0.05,0,0,0.05,59.25,0)" xlink:href="#aI"/><use transform="matrix(0.05,0,0,0.05,65.2,0)" xlink:href="#aJ"/></g><path d="M85-194c31 0 48 13 60 33l-1-100h32l1 261h-30c-2-10 0-23-3-31C134-8 116 4 85 4 32 4 16-35 15-94c0-66 23-100 70-100zm9 24c-40 0-46 34-46 75 0 40 6 74 45 74 42 0 51-32 51-76 0-42-9-74-50-73" id="aL"/><g id="p"><use transform="matrix(0.05,0,0,0.05,0,0)" xlink:href="#aB"/><use transform="matrix(0.05,0,0,0.05,9,0)" xlink:href="#au"/><use transform="matrix(0.05,0,0,0.05,19,0)" xlink:href="#az"/><use transform="matrix(0.05,0,0,0.05,22.95,0)" xlink:href="#aL"/></g><g id="q"><use transform="matrix(0.05,0,0,0.05,0,0)" xlink:href="#ax"/><use transform="matrix(0.05,0,0,0.05,9,0)" xlink:href="#av"/><use transform="matrix(0.05,0,0,0.05,19,0)" xlink:href="#ay"/><use transform="matrix(0.05,0,0,0.05,24,0)" xlink:href="#aE"/><use transform="matrix(0.05,0,0,0.05,34.300000000000004,0)" xlink:href="#az"/><use transform="matrix(0.05,0,0,0.05,38.25000000000001,0)" xlink:href="#aD"/><use transform="matrix(0.05,0,0,0.05,48.25000000000001,0)" xlink:href="#au"/><use transform="matrix(0.05,0,0,0.05,58.25,0)" xlink:href="#aI"/><use transform="matrix(0.05,0,0,0.05,64.2,0)" xlink:href="#aE"/><use transform="matrix(0.05,0,0,0.05,74.5,0)" xlink:href="#az"/><use transform="matrix(0.05,0,0,0.05,78.45,0)" xlink:href="#aD"/><use transform="matrix(0.05,0,0,0.05,88.45,0)" xlink:href="#au"/></g><g id="r"><use transform="matrix(0.05,0,0,0.05,0,0)" xlink:href="#ay"/><use transform="matrix(0.05,0,0,0.05,5,0)" xlink:href="#az"/><use transform="matrix(0.05,0,0,0.05,8.95,0)" xlink:href="#aD"/><use transform="matrix(0.05,0,0,0.05,18.95,0)" xlink:href="#au"/><use transform="matrix(0.05,0,0,0.05,28.950000000000003,0)" xlink:href="#aJ"/></g><path d="M63-220v92h138v28H63V0H30v-248h175v28H63" id="aM"/><g id="s"><use transform="matrix(0.05,0,0,0.05,0,0)" xlink:href="#ao"/><use transform="matrix(0.05,0,0,0.05,12,0)" xlink:href="#aL"/><use transform="matrix(0.05,0,0,0.05,22,0)" xlink:href="#ar"/><use transform="matrix(0.05,0,0,0.05,32,0)" xlink:href="#aA"/><use transform="matrix(0.05,0,0,0.05,42,0)" xlink:href="#ar"/><use transform="matrix(0.05,0,0,0.05,52,0)" xlink:href="#aM"/><use transform="matrix(0.05,0,0,0.05,62.95,0)" xlink:href="#ar"/><use transform="matrix(0.05,0,0,0.05,72.95,0)" xlink:href="#at"/><use transform="matrix(0.05,0,0,0.05,82.95,0)" xlink:href="#ay"/><use transform="matrix(0.05,0,0,0.05,87.95,0)" xlink:href="#ar"/><use transform="matrix(0.05,0,0,0.05,97.95,0)" xlink:href="#ax"/><use transform="matrix(0.05,0,0,0.05,106.95,0)" xlink:href="#aq"/><use transform="matrix(0.05,0,0,0.05,121.9,0)" xlink:href="#ar"/></g><g id="t"><use transform="matrix(0.05,0,0,0.05,0,0)" xlink:href="#at"/><use transform="matrix(0.05,0,0,0.05,10,0)" xlink:href="#au"/><use transform="matrix(0.05,0,0,0.05,20,0)" xlink:href="#aq"/><use transform="matrix(0.05,0,0,0.05,34.95,0)" xlink:href="#av"/><use transform="matrix(0.05,0,0,0.05,44.95,0)" xlink:href="#aw"/></g><g id="u"><use transform="matrix(0.05,0,0,0.05,0,0)" xlink:href="#ax"/><use transform="matrix(0.05,0,0,0.05,9,0)" xlink:href="#ay"/><use transform="matrix(0.05,0,0,0.05,14,0)" xlink:href="#ap"/><use transform="matrix(0.05,0,0,0.05,19.95,0)" xlink:href="#az"/><use transform="matrix(0.05,0,0,0.05,23.9,0)" xlink:href="#at"/><use transform="matrix(0.05,0,0,0.05,33.9,0)" xlink:href="#aA"/></g><path d="M18-150v-26h174v26H18zm0 90v-26h174v26H18" id="aN"/><use transform="matrix(0.05,0,0,0.05,0,0)" xlink:href="#aN" id="v"/><g id="w"><use transform="matrix(0.05,0,0,0.05,0,0)" xlink:href="#ao"/><use transform="matrix(0.05,0,0,0.05,12,0)" xlink:href="#aL"/><use transform="matrix(0.05,0,0,0.05,22,0)" xlink:href="#ar"/><use transform="matrix(0.05,0,0,0.05,32,0)" xlink:href="#aA"/><use transform="matrix(0.05,0,0,0.05,42,0)" xlink:href="#ar"/></g><g id="x"><use transform="matrix(0.05,0,0,0.05,0,0)" xlink:href="#aM"/><use transform="matrix(0.05,0,0,0.05,10.950000000000001,0)" xlink:href="#ar"/><use transform="matrix(0.05,0,0,0.05,20.950000000000003,0)" xlink:href="#at"/><use transform="matrix(0.05,0,0,0.05,30.950000000000003,0)" xlink:href="#ay"/><use transform="matrix(0.05,0,0,0.05,35.95,0)" xlink:href="#ar"/><use transform="matrix(0.05,0,0,0.05,45.95,0)" xlink:href="#ax"/><use transform="matrix(0.05,0,0,0.05,54.95,0)" xlink:href="#aq"/><use transform="matrix(0.05,0,0,0.05,69.9,0)" xlink:href="#ar"/></g><g id="y"><use transform="matrix(0.05,0,0,0.05,0,0)" xlink:href="#aB"/><use transform="matrix(0.05,0,0,0.05,9,0)" xlink:href="#ar"/><use transform="matrix(0.05,0,0,0.05,19,0)" xlink:href="#aC"/><use transform="matrix(0.05,0,0,0.05,22.95,0)" xlink:href="#au"/><use transform="matrix(0.05,0,0,0.05,32.95,0)" xlink:href="#ap"/><use transform="matrix(0.05,0,0,0.05,38.900000000000006,0)" xlink:href="#aw"/></g><path d="M101-251c82-7 93 87 43 132L82-64C71-53 59-42 53-27h129V0H18c2-99 128-94 128-182 0-28-16-43-45-43s-46 15-49 41l-32-3c6-41 34-60 81-64" id="aO"/><path d="M101-251c68 0 85 55 85 127S166 4 100 4C33 4 14-52 14-124c0-73 17-127 87-127zm-1 229c47 0 54-49 54-102s-4-102-53-102c-51 0-55 48-55 102 0 53 5 102 54 102" id="aP"/><g id="z"><use transform="matrix(0.05,0,0,0.05,0,0)" xlink:href="#aO"/><use transform="matrix(0.05,0,0,0.05,10,0)" xlink:href="#aP"/></g><g id="A"><use transform="matrix(0.05,0,0,0.05,0,0)" xlink:href="#ay"/><use transform="matrix(0.05,0,0,0.05,5,0)" xlink:href="#az"/><use transform="matrix(0.05,0,0,0.05,8.95,0)" xlink:href="#aD"/><use transform="matrix(0.05,0,0,0.05,18.95,0)" xlink:href="#au"/><use transform="matrix(0.05,0,0,0.05,28.950000000000003,0)" xlink:href="#aw"/></g><path d="M33 0v-38h34V0H33" id="aQ"/><path d="M240 0l2-218c-23 76-54 145-80 218h-23L58-218 59 0H30v-248h44l77 211c21-75 51-140 76-211h43V0h-30" id="aR"/><g id="B"><use transform="matrix(0.05,0,0,0.05,0,0)" xlink:href="#aE"/><use transform="matrix(0.05,0,0,0.05,10.3,0)" xlink:href="#az"/><use transform="matrix(0.05,0,0,0.05,14.25,0)" xlink:href="#aD"/><use transform="matrix(0.05,0,0,0.05,24.25,0)" xlink:href="#au"/><use transform="matrix(0.05,0,0,0.05,34.25,0)" xlink:href="#aQ"/><use transform="matrix(0.05,0,0,0.05,39.25,0)" xlink:href="#aM"/><use transform="matrix(0.05,0,0,0.05,49.2,0)" xlink:href="#ao"/><use transform="matrix(0.05,0,0,0.05,61.2,0)" xlink:href="#aH"/><use transform="matrix(0.05,0,0,0.05,74.15,0)" xlink:href="#aE"/><use transform="matrix(0.05,0,0,0.05,83.75000000000001,0)" xlink:href="#ao"/><use transform="matrix(0.05,0,0,0.05,95.75000000000001,0)" xlink:href="#aG"/><use transform="matrix(0.05,0,0,0.05,107.75,0)" xlink:href="#aR"/><use transform="matrix(0.05,0,0,0.05,122.7,0)" xlink:href="#ao"/></g><path d="M24-231v-30h32v30H24zM-9 49c24 4 33-6 33-30v-209h32V24c2 40-23 58-65 49V49" id="aS"/><g id="C"><use transform="matrix(0.05,0,0,0.05,0,0)" xlink:href="#ao"/><use transform="matrix(0.05,0,0,0.05,12,0)" xlink:href="#aL"/><use transform="matrix(0.05,0,0,0.05,22,0)" xlink:href="#ar"/><use transform="matrix(0.05,0,0,0.05,32,0)" xlink:href="#aA"/><use transform="matrix(0.05,0,0,0.05,42,0)" xlink:href="#ar"/><use transform="matrix(0.05,0,0,0.05,52,0)" xlink:href="#aM"/><use transform="matrix(0.05,0,0,0.05,62.95,0)" xlink:href="#aC"/><use transform="matrix(0.05,0,0,0.05,66.9,0)" xlink:href="#ar"/><use transform="matrix(0.05,0,0,0.05,76.9,0)" xlink:href="#aq"/><use transform="matrix(0.05,0,0,0.05,91.85000000000001,0)" xlink:href="#av"/><use transform="matrix(0.05,0,0,0.05,101.85000000000001,0)" xlink:href="#aS"/><use transform="matrix(0.05,0,0,0.05,105.80000000000001,0)" xlink:href="#ar"/><use transform="matrix(0.05,0,0,0.05,115.80000000000001,0)" xlink:href="#at"/><use transform="matrix(0.05,0,0,0.05,125.80000000000001,0)" xlink:href="#ay"/><use transform="matrix(0.05,0,0,0.05,130.8,0)" xlink:href="#av"/></g><g id="D"><use transform="matrix(0.05,0,0,0.05,0,0)" xlink:href="#aM"/><use transform="matrix(0.05,0,0,0.05,10.950000000000001,0)" xlink:href="#aC"/><use transform="matrix(0.05,0,0,0.05,14.9,0)" xlink:href="#ar"/><use transform="matrix(0.05,0,0,0.05,24.900000000000002,0)" xlink:href="#aq"/><use transform="matrix(0.05,0,0,0.05,39.85,0)" xlink:href="#av"/><use transform="matrix(0.05,0,0,0.05,49.85,0)" xlink:href="#aS"/><use transform="matrix(0.05,0,0,0.05,53.800000000000004,0)" xlink:href="#ar"/><use transform="matrix(0.05,0,0,0.05,63.800000000000004,0)" xlink:href="#at"/><use transform="matrix(0.05,0,0,0.05,73.80000000000001,0)" xlink:href="#ay"/><use transform="matrix(0.05,0,0,0.05,78.80000000000001,0)" xlink:href="#av"/></g><path d="M140-251c81 0 123 46 123 126C263-46 219 4 140 4 59 4 17-45 17-125s42-126 123-126zm0 227c63 0 89-41 89-101s-29-99-89-99c-61 0-89 39-89 99S79-25 140-24" id="aT"/><path d="M143 4C61 4 22-44 18-125c-5-107 100-154 193-111 17 8 29 25 37 43l-32 9c-13-25-37-40-76-40-61 0-88 39-88 99 0 61 29 100 91 101 35 0 62-11 79-27v-45h-74v-28h105v86C228-13 192 4 143 4" id="aU"/><g id="E"><use transform="matrix(0.05,0,0,0.05,0,0)" xlink:href="#aE"/><use transform="matrix(0.05,0,0,0.05,10.3,0)" xlink:href="#az"/><use transform="matrix(0.05,0,0,0.05,14.25,0)" xlink:href="#aD"/><use transform="matrix(0.05,0,0,0.05,24.25,0)" xlink:href="#au"/><use transform="matrix(0.05,0,0,0.05,34.25,0)" xlink:href="#aQ"/><use transform="matrix(0.05,0,0,0.05,39.25,0)" xlink:href="#aM"/><use transform="matrix(0.05,0,0,0.05,50.2,0)" xlink:href="#aT"/><use transform="matrix(0.05,0,0,0.05,64.2,0)" xlink:href="#aU"/><use transform="matrix(0.05,0,0,0.05,78.2,0)" xlink:href="#aT"/></g><path d="M212-179c-10-28-35-45-73-45-59 0-87 40-87 99 0 60 29 101 89 101 43 0 62-24 78-52l27 14C228-24 195 4 139 4 59 4 22-46 18-125c-6-104 99-153 187-111 19 9 31 26 39 46" id="aV"/><g id="F"><use transform="matrix(0.05,0,0,0.05,0,0)" xlink:href="#ao"/><use transform="matrix(0.05,0,0,0.05,12,0)" xlink:href="#aL"/><use transform="matrix(0.05,0,0,0.05,22,0)" xlink:href="#ar"/><use transform="matrix(0.05,0,0,0.05,32,0)" xlink:href="#aA"/><use transform="matrix(0.05,0,0,0.05,42,0)" xlink:href="#ar"/><use transform="matrix(0.05,0,0,0.05,52,0)" xlink:href="#aV"/><use transform="matrix(0.05,0,0,0.05,64.95,0)" xlink:href="#au"/><use transform="matrix(0.05,0,0,0.05,74.95,0)" xlink:href="#at"/><use transform="matrix(0.05,0,0,0.05,84.95,0)" xlink:href="#aA"/><use transform="matrix(0.05,0,0,0.05,94.95,0)" xlink:href="#av"/><use transform="matrix(0.05,0,0,0.05,104.95,0)" xlink:href="#aC"/><use transform="matrix(0.05,0,0,0.05,108.9,0)" xlink:href="#ar"/><use transform="matrix(0.05,0,0,0.05,118.9,0)" xlink:href="#at"/><use transform="matrix(0.05,0,0,0.05,128.9,0)" xlink:href="#ay"/><use transform="matrix(0.05,0,0,0.05,133.9,0)" xlink:href="#av"/></g><g id="G"><use transform="matrix(0.05,0,0,0.05,0,0)" xlink:href="#aV"/><use transform="matrix(0.05,0,0,0.05,12.950000000000001,0)" xlink:href="#au"/><use transform="matrix(0.05,0,0,0.05,22.950000000000003,0)" xlink:href="#at"/><use transform="matrix(0.05,0,0,0.05,32.95,0)" xlink:href="#aA"/><use transform="matrix(0.05,0,0,0.05,42.95,0)" xlink:href="#av"/><use transform="matrix(0.05,0,0,0.05,52.95,0)" xlink:href="#aC"/><use transform="matrix(0.05,0,0,0.05,56.900000000000006,0)" xlink:href="#ar"/><use transform="matrix(0.05,0,0,0.05,66.9,0)" xlink:href="#at"/><use transform="matrix(0.05,0,0,0.05,76.9,0)" xlink:href="#ay"/><use transform="matrix(0.05,0,0,0.05,81.9,0)" xlink:href="#av"/></g><path d="M30 0v-248h187v28H63v79h144v27H63v87h162V0H30" id="aW"/><path d="M30 0v-248h33v221h125V0H30" id="aX"/><g id="H"><use transform="matrix(0.05,0,0,0.05,0,0)" xlink:href="#aE"/><use transform="matrix(0.05,0,0,0.05,10.3,0)" xlink:href="#az"/><use transform="matrix(0.05,0,0,0.05,14.25,0)" xlink:href="#aD"/><use transform="matrix(0.05,0,0,0.05,24.25,0)" xlink:href="#au"/><use transform="matrix(0.05,0,0,0.05,34.25,0)" xlink:href="#aQ"/><use transform="matrix(0.05,0,0,0.05,39.25,0)" xlink:href="#aU"/><use transform="matrix(0.05,0,0,0.05,53.25,0)" xlink:href="#aW"/><use transform="matrix(0.05,0,0,0.05,65.25,0)" xlink:href="#aX"/><use transform="matrix(0.05,0,0,0.05,75.25,0)" xlink:href="#aT"/></g><g id="I"><use transform="matrix(0.05,0,0,0.05,0,0)" xlink:href="#ao"/><use transform="matrix(0.05,0,0,0.05,12,0)" xlink:href="#aL"/><use transform="matrix(0.05,0,0,0.05,22,0)" xlink:href="#ar"/><use transform="matrix(0.05,0,0,0.05,32,0)" xlink:href="#aA"/><use transform="matrix(0.05,0,0,0.05,42,0)" xlink:href="#ar"/><use transform="matrix(0.05,0,0,0.05,52,0)" xlink:href="#aV"/><use transform="matrix(0.05,0,0,0.05,64.95,0)" xlink:href="#au"/><use transform="matrix(0.05,0,0,0.05,74.95,0)" xlink:href="#ap"/><use transform="matrix(0.05,0,0,0.05,80.9,0)" xlink:href="#ay"/><use transform="matrix(0.05,0,0,0.05,85.9,0)" xlink:href="#ar"/><use transform="matrix(0.05,0,0,0.05,95.9,0)" xlink:href="#at"/><use transform="matrix(0.05,0,0,0.05,105.9,0)" xlink:href="#ay"/><use transform="matrix(0.05,0,0,0.05,110.9,0)" xlink:href="#av"/></g><g id="J"><use transform="matrix(0.05,0,0,0.05,0,0)" xlink:href="#aV"/><use transform="matrix(0.05,0,0,0.05,12.950000000000001,0)" xlink:href="#au"/><use transform="matrix(0.05,0,0,0.05,22.950000000000003,0)" xlink:href="#ap"/><use transform="matrix(0.05,0,0,0.05,28.900000000000002,0)" xlink:href="#ay"/><use transform="matrix(0.05,0,0,0.05,33.900000000000006,0)" xlink:href="#ar"/><use transform="matrix(0.05,0,0,0.05,43.900000000000006,0)" xlink:href="#at"/><use transform="matrix(0.05,0,0,0.05,53.900000000000006,0)" xlink:href="#ay"/><use transform="matrix(0.05,0,0,0.05,58.900000000000006,0)" xlink:href="#av"/></g><path d="M233-177c-1 41-23 64-60 70L243 0h-38l-65-103H63V0H30v-248c88 3 205-21 203 71zM63-129c60-2 137 13 137-47 0-61-80-42-137-45v92" id="aY"/><g id="K"><use transform="matrix(0.05,0,0,0.05,0,0)" xlink:href="#aE"/><use transform="matrix(0.05,0,0,0.05,10.3,0)" xlink:href="#az"/><use transform="matrix(0.05,0,0,0.05,14.25,0)" xlink:href="#aD"/><use transform="matrix(0.05,0,0,0.05,24.25,0)" xlink:href="#au"/><use transform="matrix(0.05,0,0,0.05,34.25,0)" xlink:href="#aQ"/><use transform="matrix(0.05,0,0,0.05,39.25,0)" xlink:href="#aH"/><use transform="matrix(0.05,0,0,0.05,52.2,0)" xlink:href="#aT"/><use transform="matrix(0.05,0,0,0.05,66.2,0)" xlink:href="#aY"/><use transform="matrix(0.05,0,0,0.05,79.15,0)" xlink:href="#aR"/><use transform="matrix(0.05,0,0,0.05,94.10000000000001,0)" xlink:href="#ao"/><use transform="matrix(0.05,0,0,0.05,106.10000000000001,0)" xlink:href="#aX"/></g><g id="L"><use transform="matrix(0.05,0,0,0.05,0,0)" xlink:href="#aV"/><use transform="matrix(0.05,0,0,0.05,12.950000000000001,0)" xlink:href="#aC"/><use transform="matrix(0.05,0,0,0.05,16.900000000000002,0)" xlink:href="#ar"/><use transform="matrix(0.05,0,0,0.05,26.900000000000002,0)" xlink:href="#aB"/><use transform="matrix(0.05,0,0,0.05,35.900000000000006,0)" xlink:href="#ar"/><use transform="matrix(0.05,0,0,0.05,45.900000000000006,0)" xlink:href="#aV"/><use transform="matrix(0.05,0,0,0.05,58.85,0)" xlink:href="#au"/><use transform="matrix(0.05,0,0,0.05,68.85000000000001,0)" xlink:href="#at"/><use transform="matrix(0.05,0,0,0.05,78.85000000000001,0)" xlink:href="#aA"/><use transform="matrix(0.05,0,0,0.05,88.85000000000001,0)" xlink:href="#av"/><use transform="matrix(0.05,0,0,0.05,98.85000000000001,0)" xlink:href="#aC"/><use transform="matrix(0.05,0,0,0.05,102.80000000000001,0)" xlink:href="#ar"/><use transform="matrix(0.05,0,0,0.05,112.80000000000001,0)" xlink:href="#at"/><use transform="matrix(0.05,0,0,0.05,122.80000000000001,0)" xlink:href="#ay"/><use transform="matrix(0.05,0,0,0.05,127.80000000000001,0)" xlink:href="#av"/></g><g id="M"><use transform="matrix(0.05,0,0,0.05,0,0)" xlink:href="#aV"/><use transform="matrix(0.05,0,0,0.05,12.950000000000001,0)" xlink:href="#aC"/><use transform="matrix(0.05,0,0,0.05,16.900000000000002,0)" xlink:href="#ar"/><use transform="matrix(0.05,0,0,0.05,26.900000000000002,0)" xlink:href="#aB"/><use transform="matrix(0.05,0,0,0.05,35.900000000000006,0)" xlink:href="#ar"/><use transform="matrix(0.05,0,0,0.05,45.900000000000006,0)" xlink:href="#aV"/><use transform="matrix(0.05,0,0,0.05,58.85,0)" xlink:href="#au"/><use transform="matrix(0.05,0,0,0.05,68.85000000000001,0)" xlink:href="#at"/><use transform="matrix(0.05,0,0,0.05,78.85000000000001,0)" xlink:href="#aA"/><use transform="matrix(0.05,0,0,0.05,88.85000000000001,0)" xlink:href="#av"/><use transform="matrix(0.05,0,0,0.05,98.85000000000001,0)" xlink:href="#aC"/><use transform="matrix(0.05,0,0,0.05,102.80000000000001,0)" xlink:href="#ar"/><use transform="matrix(0.05,0,0,0.05,112.80000000000001,0)" xlink:href="#at"/><use transform="matrix(0.05,0,0,0.05,122.80000000000001,0)" xlink:href="#ay"/><use transform="matrix(0.05,0,0,0.05,127.80000000000001,0)" xlink:href="#av"/></g><path d="M54-142c48-35 137-8 131 61C196 18 31 33 14-55l32-4c7 23 22 37 52 37 35-1 51-22 54-58 4-55-73-65-99-34H22l8-134h141v27H59" id="aZ"/><g id="N"><use transform="matrix(0.05,0,0,0.05,0,0)" xlink:href="#aO"/><use transform="matrix(0.05,0,0,0.05,10,0)" xlink:href="#aZ"/></g><g id="O"><use transform="matrix(0.05,0,0,0.05,0,0)" xlink:href="#aV"/><use transform="matrix(0.05,0,0,0.05,12.950000000000001,0)" xlink:href="#aC"/><use transform="matrix(0.05,0,0,0.05,16.900000000000002,0)" xlink:href="#ar"/><use transform="matrix(0.05,0,0,0.05,26.900000000000002,0)" xlink:href="#aB"/><use transform="matrix(0.05,0,0,0.05,35.900000000000006,0)" xlink:href="#ar"/><use transform="matrix(0.05,0,0,0.05,45.900000000000006,0)" xlink:href="#aM"/><use transform="matrix(0.05,0,0,0.05,56.85,0)" xlink:href="#aC"/><use transform="matrix(0.05,0,0,0.05,60.80000000000001,0)" xlink:href="#ar"/><use transform="matrix(0.05,0,0,0.05,70.80000000000001,0)" xlink:href="#aq"/><use transform="matrix(0.05,0,0,0.05,85.75000000000001,0)" xlink:href="#av"/><use transform="matrix(0.05,0,0,0.05,95.75000000000001,0)" xlink:href="#aS"/><use transform="matrix(0.05,0,0,0.05,99.70000000000002,0)" xlink:href="#ar"/><use transform="matrix(0.05,0,0,0.05,109.7,0)" xlink:href="#at"/><use transform="matrix(0.05,0,0,0.05,119.7,0)" xlink:href="#ay"/><use transform="matrix(0.05,0,0,0.05,124.7,0)" xlink:href="#av"/></g><g id="P"><use transform="matrix(0.05,0,0,0.05,0,0)" xlink:href="#aV"/><use transform="matrix(0.05,0,0,0.05,12.950000000000001,0)" xlink:href="#aC"/><use transform="matrix(0.05,0,0,0.05,16.900000000000002,0)" xlink:href="#ar"/><use transform="matrix(0.05,0,0,0.05,26.900000000000002,0)" xlink:href="#aB"/><use transform="matrix(0.05,0,0,0.05,35.900000000000006,0)" xlink:href="#ar"/></g><g id="Q"><use transform="matrix(0.05,0,0,0.05,0,0)" xlink:href="#aW"/><use transform="matrix(0.05,0,0,0.05,12,0)" xlink:href="#ax"/><use transform="matrix(0.05,0,0,0.05,21,0)" xlink:href="#aD"/><use transform="matrix(0.05,0,0,0.05,31,0)" xlink:href="#ar"/><use transform="matrix(0.05,0,0,0.05,41,0)" xlink:href="#aL"/><use transform="matrix(0.05,0,0,0.05,51,0)" xlink:href="#ar"/><use transform="matrix(0.05,0,0,0.05,61,0)" xlink:href="#aV"/><use transform="matrix(0.05,0,0,0.05,73.95,0)" xlink:href="#au"/><use transform="matrix(0.05,0,0,0.05,83.95,0)" xlink:href="#at"/><use transform="matrix(0.05,0,0,0.05,93.95,0)" xlink:href="#aA"/><use transform="matrix(0.05,0,0,0.05,103.95,0)" xlink:href="#av"/><use transform="matrix(0.05,0,0,0.05,113.95,0)" xlink:href="#aC"/><use transform="matrix(0.05,0,0,0.05,117.9,0)" xlink:href="#ar"/><use transform="matrix(0.05,0,0,0.05,127.9,0)" xlink:href="#at"/><use transform="matrix(0.05,0,0,0.05,137.9,0)" xlink:href="#ay"/><use transform="matrix(0.05,0,0,0.05,142.9,0)" xlink:href="#av"/></g><g id="R"><use transform="matrix(0.05,0,0,0.05,0,0)" xlink:href="#aW"/><use transform="matrix(0.05,0,0,0.05,12,0)" xlink:href="#ax"/><use transform="matrix(0.05,0,0,0.05,21,0)" xlink:href="#aD"/><use transform="matrix(0.05,0,0,0.05,31,0)" xlink:href="#ar"/><use transform="matrix(0.05,0,0,0.05,41,0)" xlink:href="#aL"/><use transform="matrix(0.05,0,0,0.05,51,0)" xlink:href="#ar"/></g><path d="M126-127c33 6 58 20 58 59 0 88-139 92-164 29-3-8-5-16-6-25l32-3c6 27 21 44 54 44 32 0 52-15 52-46 0-38-36-46-79-43v-28c39 1 72-4 72-42 0-27-17-43-46-43-28 0-47 15-49 41l-32-3c6-42 35-63 81-64 48-1 79 21 79 65 0 36-21 52-52 59" id="ba"/><g id="S"><use transform="matrix(0.05,0,0,0.05,0,0)" xlink:href="#ba"/><use transform="matrix(0.05,0,0,0.05,10,0)" xlink:href="#aP"/></g><g id="T"><use transform="matrix(0.05,0,0,0.05,0,0)" xlink:href="#aV"/><use transform="matrix(0.05,0,0,0.05,12.950000000000001,0)" xlink:href="#aC"/><use transform="matrix(0.05,0,0,0.05,16.900000000000002,0)" xlink:href="#ar"/><use transform="matrix(0.05,0,0,0.05,26.900000000000002,0)" xlink:href="#aB"/><use transform="matrix(0.05,0,0,0.05,35.900000000000006,0)" xlink:href="#ar"/><use transform="matrix(0.05,0,0,0.05,45.900000000000006,0)" xlink:href="#aW"/><use transform="matrix(0.05,0,0,0.05,57.900000000000006,0)" xlink:href="#at"/><use transform="matrix(0.05,0,0,0.05,67.9,0)" xlink:href="#aB"/><use transform="matrix(0.05,0,0,0.05,76.9,0)" xlink:href="#av"/><use transform="matrix(0.05,0,0,0.05,86.9,0)" xlink:href="#at"/><use transform="matrix(0.05,0,0,0.05,96.9,0)" xlink:href="#av"/><use transform="matrix(0.05,0,0,0.05,106.9,0)" xlink:href="#at"/><use transform="matrix(0.05,0,0,0.05,116.9,0)" xlink:href="#ar"/><use transform="matrix(0.05,0,0,0.05,126.9,0)" xlink:href="#aL"/><use transform="matrix(0.05,0,0,0.05,136.9,0)" xlink:href="#ar"/></g><g id="U"><use transform="matrix(0.05,0,0,0.05,0,0)" xlink:href="#aW"/><use transform="matrix(0.05,0,0,0.05,12,0)" xlink:href="#at"/><use transform="matrix(0.05,0,0,0.05,22,0)" xlink:href="#aB"/><use transform="matrix(0.05,0,0,0.05,31,0)" xlink:href="#av"/><use transform="matrix(0.05,0,0,0.05,41,0)" xlink:href="#at"/><use transform="matrix(0.05,0,0,0.05,51,0)" xlink:href="#av"/><use transform="matrix(0.05,0,0,0.05,61,0)" xlink:href="#at"/><use transform="matrix(0.05,0,0,0.05,71,0)" xlink:href="#ar"/><use transform="matrix(0.05,0,0,0.05,81,0)" xlink:href="#aL"/><use transform="matrix(0.05,0,0,0.05,91,0)" xlink:href="#ar"/></g><g id="V"><use transform="matrix(0.05,0,0,0.05,0,0)" xlink:href="#aE"/><use transform="matrix(0.05,0,0,0.05,10.3,0)" xlink:href="#az"/><use transform="matrix(0.05,0,0,0.05,14.25,0)" xlink:href="#aD"/><use transform="matrix(0.05,0,0,0.05,24.25,0)" xlink:href="#au"/><use transform="matrix(0.05,0,0,0.05,34.25,0)" xlink:href="#aQ"/><use transform="matrix(0.05,0,0,0.05,39.25,0)" xlink:href="#aK"/><use transform="matrix(0.05,0,0,0.05,51.25,0)" xlink:href="#aW"/><use transform="matrix(0.05,0,0,0.05,63.25,0)" xlink:href="#aH"/><use transform="matrix(0.05,0,0,0.05,76.2,0)" xlink:href="#aW"/><use transform="matrix(0.05,0,0,0.05,88.2,0)" xlink:href="#aH"/><use transform="matrix(0.05,0,0,0.05,101.15,0)" xlink:href="#aT"/></g><g id="W"><use transform="matrix(0.05,0,0,0.05,0,0)" xlink:href="#aV"/><use transform="matrix(0.05,0,0,0.05,12.950000000000001,0)" xlink:href="#aC"/><use transform="matrix(0.05,0,0,0.05,16.900000000000002,0)" xlink:href="#ar"/><use transform="matrix(0.05,0,0,0.05,26.900000000000002,0)" xlink:href="#aB"/><use transform="matrix(0.05,0,0,0.05,35.900000000000006,0)" xlink:href="#ar"/><use transform="matrix(0.05,0,0,0.05,45.900000000000006,0)" xlink:href="#aM"/><use transform="matrix(0.05,0,0,0.05,56.85,0)" xlink:href="#ar"/><use transform="matrix(0.05,0,0,0.05,66.85000000000001,0)" xlink:href="#at"/><use transform="matrix(0.05,0,0,0.05,76.85000000000001,0)" xlink:href="#ay"/><use transform="matrix(0.05,0,0,0.05,81.85000000000001,0)" xlink:href="#ar"/><use transform="matrix(0.05,0,0,0.05,91.85000000000001,0)" xlink:href="#ax"/><use transform="matrix(0.05,0,0,0.05,100.85000000000001,0)" xlink:href="#aq"/><use transform="matrix(0.05,0,0,0.05,115.80000000000001,0)" xlink:href="#ar"/></g><g id="X"><use transform="matrix(0.05,0,0,0.05,0,0)" xlink:href="#aW"/><use transform="matrix(0.05,0,0,0.05,12,0)" xlink:href="#ax"/><use transform="matrix(0.05,0,0,0.05,21,0)" xlink:href="#aD"/><use transform="matrix(0.05,0,0,0.05,31,0)" xlink:href="#ar"/><use transform="matrix(0.05,0,0,0.05,41,0)" xlink:href="#aL"/><use transform="matrix(0.05,0,0,0.05,51,0)" xlink:href="#ar"/><use transform="matrix(0.05,0,0,0.05,61,0)" xlink:href="#aW"/><use transform="matrix(0.05,0,0,0.05,73,0)" xlink:href="#at"/><use transform="matrix(0.05,0,0,0.05,83,0)" xlink:href="#aB"/><use transform="matrix(0.05,0,0,0.05,92,0)" xlink:href="#av"/><use transform="matrix(0.05,0,0,0.05,102,0)" xlink:href="#at"/><use transform="matrix(0.05,0,0,0.05,112,0)" xlink:href="#av"/><use transform="matrix(0.05,0,0,0.05,122,0)" xlink:href="#at"/><use transform="matrix(0.05,0,0,0.05,132,0)" xlink:href="#ar"/><use transform="matrix(0.05,0,0,0.05,142,0)" xlink:href="#aL"/><use transform="matrix(0.05,0,0,0.05,152,0)" xlink:href="#ar"/></g><path d="M96-169c-40 0-48 33-48 73s9 75 48 75c24 0 41-14 43-38l32 2c-6 37-31 61-74 61-59 0-76-41-82-99-10-93 101-131 147-64 4 7 5 14 7 22l-32 3c-4-21-16-35-41-35" id="bb"/><g id="Y"><use transform="matrix(0.05,0,0,0.05,0,0)" xlink:href="#aW"/><use transform="matrix(0.05,0,0,0.05,12,0)" xlink:href="#ax"/><use transform="matrix(0.05,0,0,0.05,21,0)" xlink:href="#aD"/><use transform="matrix(0.05,0,0,0.05,31,0)" xlink:href="#ar"/><use transform="matrix(0.05,0,0,0.05,41,0)" xlink:href="#aL"/><use transform="matrix(0.05,0,0,0.05,51,0)" xlink:href="#ar"/><use transform="matrix(0.05,0,0,0.05,61,0)" xlink:href="#aH"/><use transform="matrix(0.05,0,0,0.05,73.95,0)" xlink:href="#au"/><use transform="matrix(0.05,0,0,0.05,83.95,0)" xlink:href="#ap"/><use transform="matrix(0.05,0,0,0.05,89.9,0)" xlink:href="#aL"/><use transform="matrix(0.05,0,0,0.05,99.9,0)" xlink:href="#az"/><use transform="matrix(0.05,0,0,0.05,103.85000000000001,0)" xlink:href="#bb"/><use transform="matrix(0.05,0,0,0.05,112.85000000000001,0)" xlink:href="#ar"/></g><path d="M100-194c62-1 85 37 85 99 1 63-27 99-86 99S16-35 15-95c0-66 28-99 85-99zM99-20c44 1 53-31 53-75 0-43-8-75-51-75s-53 32-53 75 10 74 51 75zM76-211c8-23 27-35 38-54h36v5l-58 49H76" id="bc"/><g id="Z"><use transform="matrix(0.05,0,0,0.05,0,0)" xlink:href="#aH"/><use transform="matrix(0.05,0,0,0.05,12.950000000000001,0)" xlink:href="#bc"/><use transform="matrix(0.05,0,0,0.05,22.950000000000003,0)" xlink:href="#ap"/><use transform="matrix(0.05,0,0,0.05,28.900000000000002,0)" xlink:href="#aL"/><use transform="matrix(0.05,0,0,0.05,38.900000000000006,0)" xlink:href="#az"/><use transform="matrix(0.05,0,0,0.05,42.85000000000001,0)" xlink:href="#bb"/><use transform="matrix(0.05,0,0,0.05,51.85,0)" xlink:href="#ar"/></g><path d="M106-169C34-169 62-67 57 0H25v-261h32l-1 103c12-21 28-36 61-36 89 0 53 116 60 194h-32v-121c2-32-8-49-39-48" id="bd"/><g id="aa"><use transform="matrix(0.05,0,0,0.05,0,0)" xlink:href="#aR"/><use transform="matrix(0.05,0,0,0.05,14.950000000000001,0)" xlink:href="#ar"/><use transform="matrix(0.05,0,0,0.05,24.950000000000003,0)" xlink:href="#bb"/><use transform="matrix(0.05,0,0,0.05,33.95,0)" xlink:href="#bd"/><use transform="matrix(0.05,0,0,0.05,43.95,0)" xlink:href="#ar"/><use transform="matrix(0.05,0,0,0.05,53.95,0)" xlink:href="#aL"/><use transform="matrix(0.05,0,0,0.05,63.95,0)" xlink:href="#au"/><use transform="matrix(0.05,0,0,0.05,73.95,0)" xlink:href="#aV"/><use transform="matrix(0.05,0,0,0.05,86.9,0)" xlink:href="#au"/><use transform="matrix(0.05,0,0,0.05,96.9,0)" xlink:href="#at"/><use transform="matrix(0.05,0,0,0.05,106.9,0)" xlink:href="#aA"/><use transform="matrix(0.05,0,0,0.05,116.9,0)" xlink:href="#av"/><use transform="matrix(0.05,0,0,0.05,126.9,0)" xlink:href="#aC"/><use transform="matrix(0.05,0,0,0.05,130.85,0)" xlink:href="#ar"/><use transform="matrix(0.05,0,0,0.05,140.85,0)" xlink:href="#at"/><use transform="matrix(0.05,0,0,0.05,150.85,0)" xlink:href="#ay"/><use transform="matrix(0.05,0,0,0.05,155.85,0)" xlink:href="#av"/></g><g id="ab"><use transform="matrix(0.05,0,0,0.05,0,0)" xlink:href="#aR"/><use transform="matrix(0.05,0,0,0.05,14.950000000000001,0)" xlink:href="#ar"/><use transform="matrix(0.05,0,0,0.05,24.950000000000003,0)" xlink:href="#bb"/><use transform="matrix(0.05,0,0,0.05,33.95,0)" xlink:href="#bd"/><use transform="matrix(0.05,0,0,0.05,43.95,0)" xlink:href="#ar"/><use transform="matrix(0.05,0,0,0.05,53.95,0)" xlink:href="#aL"/><use transform="matrix(0.05,0,0,0.05,63.95,0)" xlink:href="#au"/></g><g id="ac"><use transform="matrix(0.05,0,0,0.05,0,0)" xlink:href="#ba"/><use transform="matrix(0.05,0,0,0.05,10,0)" xlink:href="#aZ"/></g><g id="ad"><use transform="matrix(0.05,0,0,0.05,0,0)" xlink:href="#aW"/><use transform="matrix(0.05,0,0,0.05,12,0)" xlink:href="#ax"/><use transform="matrix(0.05,0,0,0.05,21,0)" xlink:href="#aD"/><use transform="matrix(0.05,0,0,0.05,31,0)" xlink:href="#ar"/><use transform="matrix(0.05,0,0,0.05,41,0)" xlink:href="#aL"/><use transform="matrix(0.05,0,0,0.05,51,0)" xlink:href="#ar"/><use transform="matrix(0.05,0,0,0.05,61,0)" xlink:href="#aM"/><use transform="matrix(0.05,0,0,0.05,71.95,0)" xlink:href="#ar"/><use transform="matrix(0.05,0,0,0.05,81.95,0)" xlink:href="#at"/><use transform="matrix(0.05,0,0,0.05,91.95,0)" xlink:href="#ay"/><use transform="matrix(0.05,0,0,0.05,96.95,0)" xlink:href="#ar"/><use transform="matrix(0.05,0,0,0.05,106.95,0)" xlink:href="#ax"/><use transform="matrix(0.05,0,0,0.05,115.95,0)" xlink:href="#aq"/><use transform="matrix(0.05,0,0,0.05,130.9,0)" xlink:href="#ar"/></g><g id="ae"><use transform="matrix(0.05,0,0,0.05,0,0)" xlink:href="#aW"/><use transform="matrix(0.05,0,0,0.05,12,0)" xlink:href="#ax"/><use transform="matrix(0.05,0,0,0.05,21,0)" xlink:href="#aD"/><use transform="matrix(0.05,0,0,0.05,31,0)" xlink:href="#ar"/><use transform="matrix(0.05,0,0,0.05,41,0)" xlink:href="#aL"/><use transform="matrix(0.05,0,0,0.05,51,0)" xlink:href="#ar"/><use transform="matrix(0.05,0,0,0.05,61,0)" xlink:href="#aM"/><use transform="matrix(0.05,0,0,0.05,71.95,0)" xlink:href="#aC"/><use transform="matrix(0.05,0,0,0.05,75.9,0)" xlink:href="#ar"/><use transform="matrix(0.05,0,0,0.05,85.9,0)" xlink:href="#aq"/><use transform="matrix(0.05,0,0,0.05,100.85000000000001,0)" xlink:href="#av"/><use transform="matrix(0.05,0,0,0.05,110.85000000000001,0)" xlink:href="#aS"/><use transform="matrix(0.05,0,0,0.05,114.80000000000001,0)" xlink:href="#ar"/><use transform="matrix(0.05,0,0,0.05,124.80000000000001,0)" xlink:href="#at"/><use transform="matrix(0.05,0,0,0.05,134.8,0)" xlink:href="#ay"/><use transform="matrix(0.05,0,0,0.05,139.8,0)" xlink:href="#av"/></g><g id="af"><use transform="matrix(0.05,0,0,0.05,0,0)" xlink:href="#aR"/><use transform="matrix(0.05,0,0,0.05,14.950000000000001,0)" xlink:href="#ar"/><use transform="matrix(0.05,0,0,0.05,24.950000000000003,0)" xlink:href="#bb"/><use transform="matrix(0.05,0,0,0.05,33.95,0)" xlink:href="#bd"/><use transform="matrix(0.05,0,0,0.05,43.95,0)" xlink:href="#ar"/><use transform="matrix(0.05,0,0,0.05,53.95,0)" xlink:href="#aL"/><use transform="matrix(0.05,0,0,0.05,63.95,0)" xlink:href="#au"/><use transform="matrix(0.05,0,0,0.05,73.95,0)" xlink:href="#aV"/><use transform="matrix(0.05,0,0,0.05,86.9,0)" xlink:href="#au"/><use transform="matrix(0.05,0,0,0.05,96.9,0)" xlink:href="#ap"/><use transform="matrix(0.05,0,0,0.05,102.85000000000001,0)" xlink:href="#ay"/><use transform="matrix(0.05,0,0,0.05,107.85000000000001,0)" xlink:href="#ar"/><use transform="matrix(0.05,0,0,0.05,117.85000000000001,0)" xlink:href="#at"/><use transform="matrix(0.05,0,0,0.05,127.85000000000001,0)" xlink:href="#ay"/><use transform="matrix(0.05,0,0,0.05,132.85000000000002,0)" xlink:href="#av"/></g><g id="ag"><use transform="matrix(0.05,0,0,0.05,0,0)" xlink:href="#aR"/><use transform="matrix(0.05,0,0,0.05,14.950000000000001,0)" xlink:href="#ar"/><use transform="matrix(0.05,0,0,0.05,24.950000000000003,0)" xlink:href="#ap"/><use transform="matrix(0.05,0,0,0.05,30.900000000000002,0)" xlink:href="#ay"/><use transform="matrix(0.05,0,0,0.05,35.900000000000006,0)" xlink:href="#av"/><use transform="matrix(0.05,0,0,0.05,45.900000000000006,0)" xlink:href="#aC"/><use transform="matrix(0.05,0,0,0.05,49.85000000000001,0)" xlink:href="#au"/><use transform="matrix(0.05,0,0,0.05,59.85,0)" xlink:href="#aW"/><use transform="matrix(0.05,0,0,0.05,71.85000000000001,0)" xlink:href="#ax"/><use transform="matrix(0.05,0,0,0.05,80.85000000000001,0)" xlink:href="#aq"/><use transform="matrix(0.05,0,0,0.05,95.80000000000001,0)" xlink:href="#ar"/><use transform="matrix(0.05,0,0,0.05,105.80000000000001,0)" xlink:href="#aA"/><use transform="matrix(0.05,0,0,0.05,115.80000000000001,0)" xlink:href="#ar"/><use transform="matrix(0.05,0,0,0.05,125.80000000000001,0)" xlink:href="#aL"/><use transform="matrix(0.05,0,0,0.05,135.8,0)" xlink:href="#au"/><use transform="matrix(0.05,0,0,0.05,145.8,0)" xlink:href="#ap"/></g><g id="ah"><use transform="matrix(0.05,0,0,0.05,0,0)" xlink:href="#aR"/><use transform="matrix(0.05,0,0,0.05,14.950000000000001,0)" xlink:href="#ar"/><use transform="matrix(0.05,0,0,0.05,24.950000000000003,0)" xlink:href="#ap"/><use transform="matrix(0.05,0,0,0.05,30.900000000000002,0)" xlink:href="#ay"/><use transform="matrix(0.05,0,0,0.05,35.900000000000006,0)" xlink:href="#av"/><use transform="matrix(0.05,0,0,0.05,45.900000000000006,0)" xlink:href="#aC"/><use transform="matrix(0.05,0,0,0.05,49.85000000000001,0)" xlink:href="#au"/></g><g id="ai"><use transform="matrix(0.05,0,0,0.05,0,0)" xlink:href="#aW"/><use transform="matrix(0.05,0,0,0.05,12,0)" xlink:href="#ax"/><use transform="matrix(0.05,0,0,0.05,21,0)" xlink:href="#aq"/><use transform="matrix(0.05,0,0,0.05,35.95,0)" xlink:href="#ar"/><use transform="matrix(0.05,0,0,0.05,45.95,0)" xlink:href="#aA"/><use transform="matrix(0.05,0,0,0.05,55.95,0)" xlink:href="#ar"/><use transform="matrix(0.05,0,0,0.05,65.95,0)" xlink:href="#aL"/><use transform="matrix(0.05,0,0,0.05,75.95,0)" xlink:href="#au"/><use transform="matrix(0.05,0,0,0.05,85.95,0)" xlink:href="#ap"/></g><path d="M155-56V0h-30v-56H8v-25l114-167h33v167h35v25h-35zm-30-156c-27 46-58 90-88 131h88v-131" id="be"/><g id="aj"><use transform="matrix(0.05,0,0,0.05,0,0)" xlink:href="#be"/><use transform="matrix(0.05,0,0,0.05,10,0)" xlink:href="#aP"/></g><g id="ak"><use transform="matrix(0.05,0,0,0.05,0,0)" xlink:href="#aR"/><use transform="matrix(0.05,0,0,0.05,14.950000000000001,0)" xlink:href="#ar"/><use transform="matrix(0.05,0,0,0.05,24.950000000000003,0)" xlink:href="#ap"/><use transform="matrix(0.05,0,0,0.05,30.900000000000002,0)" xlink:href="#ay"/><use transform="matrix(0.05,0,0,0.05,35.900000000000006,0)" xlink:href="#av"/><use transform="matrix(0.05,0,0,0.05,45.900000000000006,0)" xlink:href="#aC"/><use transform="matrix(0.05,0,0,0.05,49.85000000000001,0)" xlink:href="#au"/><use transform="matrix(0.05,0,0,0.05,59.85,0)" xlink:href="#aM"/><use transform="matrix(0.05,0,0,0.05,70.80000000000001,0)" xlink:href="#ar"/><use transform="matrix(0.05,0,0,0.05,80.80000000000001,0)" xlink:href="#at"/><use transform="matrix(0.05,0,0,0.05,90.80000000000001,0)" xlink:href="#ay"/><use transform="matrix(0.05,0,0,0.05,95.80000000000001,0)" xlink:href="#ar"/><use transform="matrix(0.05,0,0,0.05,105.80000000000001,0)" xlink:href="#ax"/><use transform="matrix(0.05,0,0,0.05,114.80000000000001,0)" xlink:href="#aq"/><use transform="matrix(0.05,0,0,0.05,129.75,0)" xlink:href="#ar"/></g><g id="al"><use transform="matrix(0.05,0,0,0.05,0,0)" xlink:href="#aR"/><use transform="matrix(0.05,0,0,0.05,14.950000000000001,0)" xlink:href="#ar"/><use transform="matrix(0.05,0,0,0.05,24.950000000000003,0)" xlink:href="#bb"/><use transform="matrix(0.05,0,0,0.05,33.95,0)" xlink:href="#bd"/><use transform="matrix(0.05,0,0,0.05,43.95,0)" xlink:href="#ar"/><use transform="matrix(0.05,0,0,0.05,53.95,0)" xlink:href="#aL"/><use transform="matrix(0.05,0,0,0.05,63.95,0)" xlink:href="#au"/><use transform="matrix(0.05,0,0,0.05,73.95,0)" xlink:href="#aM"/><use transform="matrix(0.05,0,0,0.05,84.9,0)" xlink:href="#ar"/><use transform="matrix(0.05,0,0,0.05,94.9,0)" xlink:href="#at"/><use transform="matrix(0.05,0,0,0.05,104.9,0)" xlink:href="#ay"/><use transform="matrix(0.05,0,0,0.05,109.9,0)" xlink:href="#ar"/><use transform="matrix(0.05,0,0,0.05,119.9,0)" xlink:href="#ax"/><use transform="matrix(0.05,0,0,0.05,128.9,0)" xlink:href="#aq"/><use transform="matrix(0.05,0,0,0.05,143.85,0)" xlink:href="#ar"/></g><g id="am"><use transform="matrix(0.05,0,0,0.05,0,0)" xlink:href="#aR"/><use transform="matrix(0.05,0,0,0.05,14.950000000000001,0)" xlink:href="#ar"/><use transform="matrix(0.05,0,0,0.05,24.950000000000003,0)" xlink:href="#ap"/><use transform="matrix(0.05,0,0,0.05,30.900000000000002,0)" xlink:href="#ay"/><use transform="matrix(0.05,0,0,0.05,35.900000000000006,0)" xlink:href="#av"/><use transform="matrix(0.05,0,0,0.05,45.900000000000006,0)" xlink:href="#aC"/><use transform="matrix(0.05,0,0,0.05,49.85000000000001,0)" xlink:href="#au"/><use transform="matrix(0.05,0,0,0.05,59.85,0)" xlink:href="#aV"/><use transform="matrix(0.05,0,0,0.05,72.80000000000001,0)" xlink:href="#au"/><use transform="matrix(0.05,0,0,0.05,82.80000000000001,0)" xlink:href="#at"/><use transform="matrix(0.05,0,0,0.05,92.80000000000001,0)" xlink:href="#aA"/><use transform="matrix(0.05,0,0,0.05,102.80000000000001,0)" xlink:href="#av"/><use transform="matrix(0.05,0,0,0.05,112.80000000000001,0)" xlink:href="#aC"/><use transform="matrix(0.05,0,0,0.05,116.75,0)" xlink:href="#ar"/><use transform="matrix(0.05,0,0,0.05,126.75,0)" xlink:href="#at"/><use transform="matrix(0.05,0,0,0.05,136.75,0)" xlink:href="#ay"/><use transform="matrix(0.05,0,0,0.05,141.75,0)" xlink:href="#av"/></g><g id="an"><use transform="matrix(0.05,0,0,0.05,0,0)" xlink:href="#aR"/><use transform="matrix(0.05,0,0,0.05,14.950000000000001,0)" xlink:href="#ar"/><use transform="matrix(0.05,0,0,0.05,24.950000000000003,0)" xlink:href="#ap"/><use transform="matrix(0.05,0,0,0.05,30.900000000000002,0)" xlink:href="#ay"/><use transform="matrix(0.05,0,0,0.05,35.900000000000006,0)" xlink:href="#av"/><use transform="matrix(0.05,0,0,0.05,45.900000000000006,0)" xlink:href="#aC"/><use transform="matrix(0.05,0,0,0.05,49.85000000000001,0)" xlink:href="#au"/><use transform="matrix(0.05,0,0,0.05,59.85,0)" xlink:href="#aM"/><use transform="matrix(0.05,0,0,0.05,70.80000000000001,0)" xlink:href="#aC"/><use transform="matrix(0.05,0,0,0.05,74.75000000000001,0)" xlink:href="#ar"/><use transform="matrix(0.05,0,0,0.05,84.75000000000001,0)" xlink:href="#aq"/><use transform="matrix(0.05,0,0,0.05,99.70000000000002,0)" xlink:href="#av"/><use transform="matrix(0.05,0,0,0.05,109.7,0)" xlink:href="#aS"/><use transform="matrix(0.05,0,0,0.05,113.65000000000003,0)" xlink:href="#ar"/><use transform="matrix(0.05,0,0,0.05,123.65000000000003,0)" xlink:href="#at"/><use transform="matrix(0.05,0,0,0.05,133.65000000000003,0)" xlink:href="#ay"/><use transform="matrix(0.05,0,0,0.05,138.65000000000003,0)" xlink:href="#av"/></g></defs></g></svg>