<svg xmlns="http://www.w3.org/2000/svg" xmlns:xlink="http://www.w3.org/1999/xlink" xmlns:lucid="lucid" width="4800" height="1383"><g transform="translate(4360 900)" lucid:page-tab-id="0_0"><path d="M-5419.2-1259.2h7289.6v2582.4h-7289.6z" fill="#fff"/><path d="M-2100-880h300v380h-300z" stroke="#000" stroke-width="2" fill="#fff"/><path d="M-2100-842.4h300M-2100-671h300" stroke="#000" stroke-width="2" fill="none"/><use xlink:href="#a" transform="matrix(1,0,0,1,-2092,-872) translate(125.525 14.6)"/><use xlink:href="#b" transform="matrix(1,0,0,1,-2088,-834.4) translate(0 49.19999999999999)"/><use xlink:href="#c" transform="matrix(1,0,0,1,-2088,-834.4) translate(15 49.19999999999999)"/><use xlink:href="#d" transform="matrix(1,0,0,1,-2088,-834.4) translate(69.95 49.19999999999999)"/><use xlink:href="#e" transform="matrix(1,0,0,1,-2088,-834.4) translate(0 70.8)"/><use xlink:href="#f" transform="matrix(1,0,0,1,-2088,-834.4) translate(15 70.8)"/><use xlink:href="#g" transform="matrix(1,0,0,1,-2088,-834.4) translate(53.95 70.8)"/><use xlink:href="#e" transform="matrix(1,0,0,1,-2088,-834.4) translate(0 92.4)"/><use xlink:href="#h" transform="matrix(1,0,0,1,-2088,-834.4) translate(15 92.4)"/><use xlink:href="#i" transform="matrix(1,0,0,1,-2088,-834.4) translate(103.95 92.4)"/><use xlink:href="#e" transform="matrix(1,0,0,1,-2088,-834.4) translate(0 114)"/><use xlink:href="#j" transform="matrix(1,0,0,1,-2088,-834.4) translate(15 114)"/><use xlink:href="#k" transform="matrix(1,0,0,1,-2088,-834.4) translate(63.900000000000006 114)"/><use xlink:href="#l" transform="matrix(1,0,0,1,-2088,-663) translate(0 49.19999999999999)"/><use xlink:href="#m" transform="matrix(1,0,0,1,-2088,-663) translate(15.5 49.19999999999999)"/><use xlink:href="#n" transform="matrix(1,0,0,1,-2088,-663) translate(67.4 49.19999999999999)"/><use xlink:href="#o" transform="matrix(1,0,0,1,-2088,-663) translate(0 70.8)"/><use xlink:href="#p" transform="matrix(1,0,0,1,-2088,-663) translate(15.5 70.8)"/><use xlink:href="#q" transform="matrix(1,0,0,1,-2088,-663) translate(54.75 70.8)"/><use xlink:href="#l" transform="matrix(1,0,0,1,-2088,-663) translate(0 92.4)"/><use xlink:href="#r" transform="matrix(1,0,0,1,-2088,-663) translate(15.5 92.4)"/><use xlink:href="#s" transform="matrix(1,0,0,1,-2088,-663) translate(39.45 92.4)"/><use xlink:href="#l" transform="matrix(1,0,0,1,-2088,-663) translate(0 114)"/><use xlink:href="#r" transform="matrix(1,0,0,1,-2088,-663) translate(15.5 114)"/><use xlink:href="#t" transform="matrix(1,0,0,1,-2088,-663) translate(39.45 114)"/><path d="M-3300 220h460v220h-460z" stroke="#000" stroke-width="2" fill="#fff"/><path d="M-3300 257.6h460M-3300 381h460" stroke="#000" stroke-width="2" fill="none"/><use xlink:href="#u" transform="matrix(1,0,0,1,-3292,227.99999999999977) translate(139.1 14.6)"/><use xlink:href="#v" transform="matrix(1,0,0,1,-3288,265.5999999999998) translate(0 25.19999999999999)"/><use xlink:href="#w" transform="matrix(1,0,0,1,-3288,265.5999999999998) translate(54.95 25.19999999999999)"/><use xlink:href="#x" transform="matrix(1,0,0,1,-3288,265.5999999999998) translate(103.85 25.19999999999999)"/><use xlink:href="#y" transform="matrix(1,0,0,1,-3288,265.5999999999998) translate(119.35 25.19999999999999)"/><use xlink:href="#z" transform="matrix(1,0,0,1,-3288,265.5999999999998) translate(157.3 25.19999999999999)"/><use xlink:href="#A" transform="matrix(1,0,0,1,-3288,265.5999999999998) translate(182.3 25.19999999999999)"/><use xlink:href="#B" transform="matrix(1,0,0,1,-3288,265.5999999999998) translate(244.25 25.19999999999999)"/><use xlink:href="#C" transform="matrix(1,0,0,1,-3288,265.5999999999998) translate(269.25 25.19999999999999)"/><use xlink:href="#D" transform="matrix(1,0,0,1,-3288,265.5999999999998) translate(0 46.79999999999999)"/><use xlink:href="#E" transform="matrix(1,0,0,1,-3288,265.5999999999998) translate(38.95 46.79999999999999)"/><use xlink:href="#x" transform="matrix(1,0,0,1,-3288,265.5999999999998) translate(78.2 46.79999999999999)"/><use xlink:href="#F" transform="matrix(1,0,0,1,-3288,265.5999999999998) translate(93.7 46.79999999999999)"/><use xlink:href="#G" transform="matrix(1,0,0,1,-3288,265.5999999999998) translate(0 68.39999999999999)"/><use xlink:href="#r" transform="matrix(1,0,0,1,-3288,265.5999999999998) translate(88.95 68.39999999999999)"/><use xlink:href="#x" transform="matrix(1,0,0,1,-3288,265.5999999999998) translate(112.9 68.39999999999999)"/><use xlink:href="#H" transform="matrix(1,0,0,1,-3288,265.5999999999998) translate(128.4 68.39999999999999)"/><use xlink:href="#I" transform="matrix(1,0,0,1,-3288,265.5999999999998) translate(0 90)"/><use xlink:href="#r" transform="matrix(1,0,0,1,-3288,265.5999999999998) translate(48.900000000000006 90)"/><use xlink:href="#x" transform="matrix(1,0,0,1,-3288,265.5999999999998) translate(72.85000000000001 90)"/><use xlink:href="#J" transform="matrix(1,0,0,1,-3288,265.5999999999998) translate(88.35000000000001 90)"/><path d="M-2760 221h460v221h-460z" stroke="#000" stroke-width="2" fill="#fff"/><path d="M-2760 258.6h460m-460 123.95h460" stroke="#000" stroke-width="2" fill="none"/><use xlink:href="#K" transform="matrix(1,0,0,1,-2752,229) translate(165.525 14.6)"/><use xlink:href="#v" transform="matrix(1,0,0,1,-2748,266.6) translate(0 25.19999999999999)"/><use xlink:href="#w" transform="matrix(1,0,0,1,-2748,266.6) translate(54.95 25.19999999999999)"/><use xlink:href="#x" transform="matrix(1,0,0,1,-2748,266.6) translate(103.85 25.19999999999999)"/><use xlink:href="#y" transform="matrix(1,0,0,1,-2748,266.6) translate(119.35 25.19999999999999)"/><use xlink:href="#L" transform="matrix(1,0,0,1,-2748,266.6) translate(157.3 25.19999999999999)"/><use xlink:href="#D" transform="matrix(1,0,0,1,-2748,266.6) translate(0 46.79999999999999)"/><use xlink:href="#E" transform="matrix(1,0,0,1,-2748,266.6) translate(38.95 46.79999999999999)"/><use xlink:href="#x" transform="matrix(1,0,0,1,-2748,266.6) translate(78.2 46.79999999999999)"/><use xlink:href="#M" transform="matrix(1,0,0,1,-2748,266.6) translate(93.7 46.79999999999999)"/><use xlink:href="#G" transform="matrix(1,0,0,1,-2748,266.6) translate(0 68.39999999999999)"/><use xlink:href="#r" transform="matrix(1,0,0,1,-2748,266.6) translate(88.95 68.39999999999999)"/><use xlink:href="#x" transform="matrix(1,0,0,1,-2748,266.6) translate(112.9 68.39999999999999)"/><use xlink:href="#N" transform="matrix(1,0,0,1,-2748,266.6) translate(128.4 68.39999999999999)"/><use xlink:href="#I" transform="matrix(1,0,0,1,-2748,266.6) translate(0 90)"/><use xlink:href="#r" transform="matrix(1,0,0,1,-2748,266.6) translate(48.900000000000006 90)"/><use xlink:href="#x" transform="matrix(1,0,0,1,-2748,266.6) translate(72.85000000000001 90)"/><use xlink:href="#O" transform="matrix(1,0,0,1,-2748,266.6) translate(88.35000000000001 90)"/><path d="M-2530 219v-358.5h580v-341" stroke="#000" stroke-width="2" fill="none"/><path d="M-2529 220h-2v-1.03h2z"/><path d="M-1950-495.76l4.64 14.26h-9.28z" stroke="#000" stroke-width="2"/><path d="M-3070 218v-358h1120v-340.5" stroke="#000" stroke-width="2" fill="none"/><path d="M-3069 219h-2v-1.03h2z"/><path d="M-1950-495.76l4.64 14.26h-9.28z" stroke="#000" stroke-width="2"/><path d="M-4340 220h460v221h-460z" stroke="#000" stroke-width="2" fill="#fff"/><path d="M-4340 257.6h460m-460 123.9h460" stroke="#000" stroke-width="2" fill="none"/><g><use xlink:href="#P" transform="matrix(1,0,0,1,-4332,227.99999999999977) translate(139.075 14.6)"/></g><g><use xlink:href="#v" transform="matrix(1,0,0,1,-4328,265.5999999999998) translate(0 25.19999999999999)"/><use xlink:href="#w" transform="matrix(1,0,0,1,-4328,265.5999999999998) translate(54.95 25.19999999999999)"/><use xlink:href="#x" transform="matrix(1,0,0,1,-4328,265.5999999999998) translate(103.85 25.19999999999999)"/><use xlink:href="#y" transform="matrix(1,0,0,1,-4328,265.5999999999998) translate(119.35 25.19999999999999)"/><use xlink:href="#z" transform="matrix(1,0,0,1,-4328,265.5999999999998) translate(157.3 25.19999999999999)"/><use xlink:href="#Q" transform="matrix(1,0,0,1,-4328,265.5999999999998) translate(182.3 25.19999999999999)"/><use xlink:href="#B" transform="matrix(1,0,0,1,-4328,265.5999999999998) translate(244.3 25.19999999999999)"/><use xlink:href="#C" transform="matrix(1,0,0,1,-4328,265.5999999999998) translate(269.3 25.19999999999999)"/><use xlink:href="#D" transform="matrix(1,0,0,1,-4328,265.5999999999998) translate(0 46.79999999999999)"/><use xlink:href="#E" transform="matrix(1,0,0,1,-4328,265.5999999999998) translate(38.95 46.79999999999999)"/><use xlink:href="#x" transform="matrix(1,0,0,1,-4328,265.5999999999998) translate(78.2 46.79999999999999)"/><use xlink:href="#F" transform="matrix(1,0,0,1,-4328,265.5999999999998) translate(93.7 46.79999999999999)"/><use xlink:href="#G" transform="matrix(1,0,0,1,-4328,265.5999999999998) translate(0 68.39999999999999)"/><use xlink:href="#r" transform="matrix(1,0,0,1,-4328,265.5999999999998) translate(88.95 68.39999999999999)"/><use xlink:href="#x" transform="matrix(1,0,0,1,-4328,265.5999999999998) translate(112.9 68.39999999999999)"/><use xlink:href="#R" transform="matrix(1,0,0,1,-4328,265.5999999999998) translate(128.4 68.39999999999999)"/><use xlink:href="#I" transform="matrix(1,0,0,1,-4328,265.5999999999998) translate(0 90)"/><use xlink:href="#r" transform="matrix(1,0,0,1,-4328,265.5999999999998) translate(48.900000000000006 90)"/><use xlink:href="#x" transform="matrix(1,0,0,1,-4328,265.5999999999998) translate(72.85000000000001 90)"/><use xlink:href="#J" transform="matrix(1,0,0,1,-4328,265.5999999999998) translate(88.35000000000001 90)"/></g><path d="M-3820 220h440v221h-440z" stroke="#000" stroke-width="2" fill="#fff"/><path d="M-3820 257.6h440m-440 123.9h440" stroke="#000" stroke-width="2" fill="none"/><g><use xlink:href="#S" transform="matrix(1,0,0,1,-3812,227.99999999999977) translate(145.55 14.6)"/></g><g><use xlink:href="#v" transform="matrix(1,0,0,1,-3808,265.5999999999998) translate(0 25.19999999999999)"/><use xlink:href="#w" transform="matrix(1,0,0,1,-3808,265.5999999999998) translate(54.95 25.19999999999999)"/><use xlink:href="#x" transform="matrix(1,0,0,1,-3808,265.5999999999998) translate(103.85 25.19999999999999)"/><use xlink:href="#y" transform="matrix(1,0,0,1,-3808,265.5999999999998) translate(119.35 25.19999999999999)"/><use xlink:href="#z" transform="matrix(1,0,0,1,-3808,265.5999999999998) translate(157.3 25.19999999999999)"/><use xlink:href="#Q" transform="matrix(1,0,0,1,-3808,265.5999999999998) translate(182.3 25.19999999999999)"/><use xlink:href="#B" transform="matrix(1,0,0,1,-3808,265.5999999999998) translate(244.3 25.19999999999999)"/><use xlink:href="#T" transform="matrix(1,0,0,1,-3808,265.5999999999998) translate(269.3 25.19999999999999)"/><use xlink:href="#D" transform="matrix(1,0,0,1,-3808,265.5999999999998) translate(0 46.79999999999999)"/><use xlink:href="#E" transform="matrix(1,0,0,1,-3808,265.5999999999998) translate(38.95 46.79999999999999)"/><use xlink:href="#x" transform="matrix(1,0,0,1,-3808,265.5999999999998) translate(78.2 46.79999999999999)"/><use xlink:href="#F" transform="matrix(1,0,0,1,-3808,265.5999999999998) translate(93.7 46.79999999999999)"/><use xlink:href="#G" transform="matrix(1,0,0,1,-3808,265.5999999999998) translate(0 68.39999999999999)"/><use xlink:href="#r" transform="matrix(1,0,0,1,-3808,265.5999999999998) translate(88.95 68.39999999999999)"/><use xlink:href="#x" transform="matrix(1,0,0,1,-3808,265.5999999999998) translate(112.9 68.39999999999999)"/><use xlink:href="#R" transform="matrix(1,0,0,1,-3808,265.5999999999998) translate(128.4 68.39999999999999)"/><use xlink:href="#I" transform="matrix(1,0,0,1,-3808,265.5999999999998) translate(0 90)"/><use xlink:href="#r" transform="matrix(1,0,0,1,-3808,265.5999999999998) translate(48.900000000000006 90)"/><use xlink:href="#x" transform="matrix(1,0,0,1,-3808,265.5999999999998) translate(72.85000000000001 90)"/><use xlink:href="#U" transform="matrix(1,0,0,1,-3808,265.5999999999998) translate(88.35000000000001 90)"/></g><path d="M-3600 218v-358h1650v-340.5" stroke="#000" stroke-width="2" fill="none"/><path d="M-3599 219h-2v-1.03h2z"/><path d="M-1950-495.76l4.64 14.26h-9.28z" stroke="#000" stroke-width="2"/><path d="M-2220 222h520v241h-520z" stroke="#000" stroke-width="2" fill="#fff"/><path d="M-2220 259.6h520m-520 134h520" stroke="#000" stroke-width="2" fill="none"/><g><use xlink:href="#V" transform="matrix(1,0,0,1,-2212,230) translate(206.625 14.6)"/></g><g><use xlink:href="#v" transform="matrix(1,0,0,1,-2208,267.6) translate(0 30.19999999999999)"/><use xlink:href="#w" transform="matrix(1,0,0,1,-2208,267.6) translate(54.95 30.19999999999999)"/><use xlink:href="#x" transform="matrix(1,0,0,1,-2208,267.6) translate(103.85 30.19999999999999)"/><use xlink:href="#y" transform="matrix(1,0,0,1,-2208,267.6) translate(119.35 30.19999999999999)"/><use xlink:href="#W" transform="matrix(1,0,0,1,-2208,267.6) translate(157.3 30.19999999999999)"/><use xlink:href="#D" transform="matrix(1,0,0,1,-2208,267.6) translate(0 51.79999999999999)"/><use xlink:href="#E" transform="matrix(1,0,0,1,-2208,267.6) translate(38.95 51.79999999999999)"/><use xlink:href="#x" transform="matrix(1,0,0,1,-2208,267.6) translate(78.2 51.79999999999999)"/><use xlink:href="#F" transform="matrix(1,0,0,1,-2208,267.6) translate(93.7 51.79999999999999)"/><use xlink:href="#G" transform="matrix(1,0,0,1,-2208,267.6) translate(0 73.39999999999999)"/><use xlink:href="#r" transform="matrix(1,0,0,1,-2208,267.6) translate(88.95 73.39999999999999)"/><use xlink:href="#x" transform="matrix(1,0,0,1,-2208,267.6) translate(112.9 73.39999999999999)"/><use xlink:href="#N" transform="matrix(1,0,0,1,-2208,267.6) translate(128.4 73.39999999999999)"/><use xlink:href="#I" transform="matrix(1,0,0,1,-2208,267.6) translate(0 95)"/><use xlink:href="#r" transform="matrix(1,0,0,1,-2208,267.6) translate(48.900000000000006 95)"/><use xlink:href="#x" transform="matrix(1,0,0,1,-2208,267.6) translate(72.85000000000001 95)"/><use xlink:href="#O" transform="matrix(1,0,0,1,-2208,267.6) translate(88.35000000000001 95)"/></g><path d="M-4110 218v-358h2160v-340.5" stroke="#000" stroke-width="2" fill="none"/><path d="M-4109 219h-2v-1.03h2z"/><path d="M-1950-495.76l4.64 14.26h-9.28z" stroke="#000" stroke-width="2"/><path d="M-580 219h460v242h-460z" stroke="#000" stroke-width="2" fill="#fff"/><path d="M-580 256.6h460M-580 391h460" stroke="#000" stroke-width="2" fill="none"/><g><use xlink:href="#X" transform="matrix(1,0,0,1,-572,226.99999999999955) translate(165.575 14.6)"/></g><g><use xlink:href="#v" transform="matrix(1,0,0,1,-568,264.59999999999957) translate(0 30.69999999999999)"/><use xlink:href="#w" transform="matrix(1,0,0,1,-568,264.59999999999957) translate(54.95 30.69999999999999)"/><use xlink:href="#x" transform="matrix(1,0,0,1,-568,264.59999999999957) translate(103.85 30.69999999999999)"/><use xlink:href="#y" transform="matrix(1,0,0,1,-568,264.59999999999957) translate(119.35 30.69999999999999)"/><use xlink:href="#Y" transform="matrix(1,0,0,1,-568,264.59999999999957) translate(157.3 30.69999999999999)"/><use xlink:href="#D" transform="matrix(1,0,0,1,-568,264.59999999999957) translate(0 52.29999999999999)"/><use xlink:href="#E" transform="matrix(1,0,0,1,-568,264.59999999999957) translate(38.95 52.29999999999999)"/><use xlink:href="#x" transform="matrix(1,0,0,1,-568,264.59999999999957) translate(78.2 52.29999999999999)"/><use xlink:href="#Z" transform="matrix(1,0,0,1,-568,264.59999999999957) translate(93.7 52.29999999999999)"/><use xlink:href="#G" transform="matrix(1,0,0,1,-568,264.59999999999957) translate(0 73.89999999999999)"/><use xlink:href="#r" transform="matrix(1,0,0,1,-568,264.59999999999957) translate(88.95 73.89999999999999)"/><use xlink:href="#x" transform="matrix(1,0,0,1,-568,264.59999999999957) translate(112.9 73.89999999999999)"/><use xlink:href="#aa" transform="matrix(1,0,0,1,-568,264.59999999999957) translate(128.4 73.89999999999999)"/><use xlink:href="#I" transform="matrix(1,0,0,1,-568,264.59999999999957) translate(0 95.5)"/><use xlink:href="#r" transform="matrix(1,0,0,1,-568,264.59999999999957) translate(48.900000000000006 95.5)"/><use xlink:href="#x" transform="matrix(1,0,0,1,-568,264.59999999999957) translate(72.85000000000001 95.5)"/><use xlink:href="#O" transform="matrix(1,0,0,1,-568,264.59999999999957) translate(88.35000000000001 95.5)"/></g><path d="M-40 220h460v241H-40z" stroke="#000" stroke-width="2" fill="#fff"/><path d="M-40 257.6h460M-40 391.55h460" stroke="#000" stroke-width="2" fill="none"/><g><use xlink:href="#ab" transform="matrix(1,0,0,1,-32.00000000000023,227.99999999999977) translate(155.575 14.6)"/></g><g><use xlink:href="#v" transform="matrix(1,0,0,1,-28.000000000000227,265.5999999999998) translate(0 30.19999999999999)"/><use xlink:href="#w" transform="matrix(1,0,0,1,-28.000000000000227,265.5999999999998) translate(54.95 30.19999999999999)"/><use xlink:href="#x" transform="matrix(1,0,0,1,-28.000000000000227,265.5999999999998) translate(103.85 30.19999999999999)"/><use xlink:href="#y" transform="matrix(1,0,0,1,-28.000000000000227,265.5999999999998) translate(119.35 30.19999999999999)"/><use xlink:href="#z" transform="matrix(1,0,0,1,-28.000000000000227,265.5999999999998) translate(157.3 30.19999999999999)"/><use xlink:href="#A" transform="matrix(1,0,0,1,-28.000000000000227,265.5999999999998) translate(182.3 30.19999999999999)"/><use xlink:href="#B" transform="matrix(1,0,0,1,-28.000000000000227,265.5999999999998) translate(244.25 30.19999999999999)"/><use xlink:href="#T" transform="matrix(1,0,0,1,-28.000000000000227,265.5999999999998) translate(269.25 30.19999999999999)"/><use xlink:href="#D" transform="matrix(1,0,0,1,-28.000000000000227,265.5999999999998) translate(0 51.79999999999999)"/><use xlink:href="#E" transform="matrix(1,0,0,1,-28.000000000000227,265.5999999999998) translate(38.95 51.79999999999999)"/><use xlink:href="#x" transform="matrix(1,0,0,1,-28.000000000000227,265.5999999999998) translate(78.2 51.79999999999999)"/><use xlink:href="#F" transform="matrix(1,0,0,1,-28.000000000000227,265.5999999999998) translate(93.7 51.79999999999999)"/><use xlink:href="#G" transform="matrix(1,0,0,1,-28.000000000000227,265.5999999999998) translate(0 73.39999999999999)"/><use xlink:href="#r" transform="matrix(1,0,0,1,-28.000000000000227,265.5999999999998) translate(88.95 73.39999999999999)"/><use xlink:href="#x" transform="matrix(1,0,0,1,-28.000000000000227,265.5999999999998) translate(112.9 73.39999999999999)"/><use xlink:href="#ac" transform="matrix(1,0,0,1,-28.000000000000227,265.5999999999998) translate(128.4 73.39999999999999)"/><use xlink:href="#I" transform="matrix(1,0,0,1,-28.000000000000227,265.5999999999998) translate(0 95)"/><use xlink:href="#r" transform="matrix(1,0,0,1,-28.000000000000227,265.5999999999998) translate(48.900000000000006 95)"/><use xlink:href="#x" transform="matrix(1,0,0,1,-28.000000000000227,265.5999999999998) translate(72.85000000000001 95)"/><use xlink:href="#U" transform="matrix(1,0,0,1,-28.000000000000227,265.5999999999998) translate(88.35000000000001 95)"/></g><path d="M-1620 219h460v242h-460z" stroke="#000" stroke-width="2" fill="#fff"/><path d="M-1620 256.6h460M-1620 391h460" stroke="#000" stroke-width="2" fill="none"/><g><use xlink:href="#ad" transform="matrix(1,0,0,1,-1612,226.99999999999955) translate(186.55 14.6)"/></g><g><use xlink:href="#v" transform="matrix(1,0,0,1,-1608,264.59999999999957) translate(0 30.69999999999999)"/><use xlink:href="#w" transform="matrix(1,0,0,1,-1608,264.59999999999957) translate(54.95 30.69999999999999)"/><use xlink:href="#x" transform="matrix(1,0,0,1,-1608,264.59999999999957) translate(103.85 30.69999999999999)"/><use xlink:href="#y" transform="matrix(1,0,0,1,-1608,264.59999999999957) translate(119.35 30.69999999999999)"/><use xlink:href="#z" transform="matrix(1,0,0,1,-1608,264.59999999999957) translate(157.3 30.69999999999999)"/><use xlink:href="#ae" transform="matrix(1,0,0,1,-1608,264.59999999999957) translate(182.3 30.69999999999999)"/><use xlink:href="#D" transform="matrix(1,0,0,1,-1608,264.59999999999957) translate(0 52.29999999999999)"/><use xlink:href="#E" transform="matrix(1,0,0,1,-1608,264.59999999999957) translate(38.95 52.29999999999999)"/><use xlink:href="#x" transform="matrix(1,0,0,1,-1608,264.59999999999957) translate(78.2 52.29999999999999)"/><use xlink:href="#af" transform="matrix(1,0,0,1,-1608,264.59999999999957) translate(93.7 52.29999999999999)"/><use xlink:href="#G" transform="matrix(1,0,0,1,-1608,264.59999999999957) translate(0 73.89999999999999)"/><use xlink:href="#r" transform="matrix(1,0,0,1,-1608,264.59999999999957) translate(88.95 73.89999999999999)"/><use xlink:href="#x" transform="matrix(1,0,0,1,-1608,264.59999999999957) translate(112.9 73.89999999999999)"/><use xlink:href="#ag" transform="matrix(1,0,0,1,-1608,264.59999999999957) translate(128.4 73.89999999999999)"/><use xlink:href="#I" transform="matrix(1,0,0,1,-1608,264.59999999999957) translate(0 95.5)"/><use xlink:href="#r" transform="matrix(1,0,0,1,-1608,264.59999999999957) translate(48.900000000000006 95.5)"/><use xlink:href="#x" transform="matrix(1,0,0,1,-1608,264.59999999999957) translate(72.85000000000001 95.5)"/><use xlink:href="#O" transform="matrix(1,0,0,1,-1608,264.59999999999957) translate(88.35000000000001 95.5)"/></g><path d="M-1100 219h440v242h-440z" stroke="#000" stroke-width="2" fill="#fff"/><path d="M-1100 256.6h440M-1100 391h440" stroke="#000" stroke-width="2" fill="none"/><g><use xlink:href="#ah" transform="matrix(1,0,0,1,-1092,226.99999999999955) translate(175.05 14.6)"/></g><g><use xlink:href="#v" transform="matrix(1,0,0,1,-1088,264.59999999999957) translate(0 30.69999999999999)"/><use xlink:href="#w" transform="matrix(1,0,0,1,-1088,264.59999999999957) translate(54.95 30.69999999999999)"/><use xlink:href="#x" transform="matrix(1,0,0,1,-1088,264.59999999999957) translate(103.85 30.69999999999999)"/><use xlink:href="#y" transform="matrix(1,0,0,1,-1088,264.59999999999957) translate(119.35 30.69999999999999)"/><use xlink:href="#z" transform="matrix(1,0,0,1,-1088,264.59999999999957) translate(157.3 30.69999999999999)"/><use xlink:href="#ai" transform="matrix(1,0,0,1,-1088,264.59999999999957) translate(182.3 30.69999999999999)"/><use xlink:href="#D" transform="matrix(1,0,0,1,-1088,264.59999999999957) translate(0 52.29999999999999)"/><use xlink:href="#E" transform="matrix(1,0,0,1,-1088,264.59999999999957) translate(38.95 52.29999999999999)"/><use xlink:href="#x" transform="matrix(1,0,0,1,-1088,264.59999999999957) translate(78.2 52.29999999999999)"/><use xlink:href="#aj" transform="matrix(1,0,0,1,-1088,264.59999999999957) translate(93.7 52.29999999999999)"/><use xlink:href="#G" transform="matrix(1,0,0,1,-1088,264.59999999999957) translate(0 73.89999999999999)"/><use xlink:href="#r" transform="matrix(1,0,0,1,-1088,264.59999999999957) translate(88.95 73.89999999999999)"/><use xlink:href="#x" transform="matrix(1,0,0,1,-1088,264.59999999999957) translate(112.9 73.89999999999999)"/><use xlink:href="#aa" transform="matrix(1,0,0,1,-1088,264.59999999999957) translate(128.4 73.89999999999999)"/><use xlink:href="#I" transform="matrix(1,0,0,1,-1088,264.59999999999957) translate(0 95.5)"/><use xlink:href="#r" transform="matrix(1,0,0,1,-1088,264.59999999999957) translate(48.900000000000006 95.5)"/><use xlink:href="#x" transform="matrix(1,0,0,1,-1088,264.59999999999957) translate(72.85000000000001 95.5)"/><use xlink:href="#O" transform="matrix(1,0,0,1,-1088,264.59999999999957) translate(88.35000000000001 95.5)"/></g><path d="M-1960 220v-358.5" stroke="#000" stroke-width="2" fill="none"/><path d="M-1959 221h-2v-1.03h2z"/><path d="M-1960-138.47v-1.03M-1390 217v-363.8h-558" stroke="#000" stroke-width="2" fill="none"/><path d="M-1389 218h-2v-1.03h2z"/><path d="M-1947.97-146.8h-1.03M-880 217v-363.8h-509" stroke="#000" stroke-width="2" fill="none"/><path d="M-879 218h-2v-1.03h2z"/><path d="M-1388.97-146.8h-1.03M-350 217v-361.44h-529" stroke="#000" stroke-width="2" fill="none"/><path d="M-349 218h-2v-1.03h2z"/><path d="M-878.97-144.44H-880M190 218v-362.44h-539" stroke="#000" stroke-width="2" fill="none"/><path d="M191 219h-2v-1.03h2z"/><path d="M-348.97-144.44H-350" stroke="#000" stroke-width="2" fill="none"/><defs><path d="M153-248C145-148 188 4 80 4 36 3 13-21 6-62l32-5c4 25 16 42 43 43 27 0 39-20 39-49v-147H72v-28h81" id="ak"/><path d="M100-194c62-1 85 37 85 99 1 63-27 99-86 99S16-35 15-95c0-66 28-99 85-99zM99-20c44 1 53-31 53-75 0-43-8-75-51-75s-53 32-53 75 10 74 51 75" id="al"/><path d="M24-231v-30h32v30H24zM24 0v-190h32V0H24" id="am"/><path d="M141-36C126-15 110 5 73 4 37 3 15-17 15-53c-1-64 63-63 125-63 3-35-9-54-41-54-24 1-41 7-42 31l-33-3c5-37 33-52 76-52 45 0 72 20 72 64v82c-1 20 7 32 28 27v20c-31 9-61-2-59-35zM48-53c0 20 12 33 32 33 41-3 63-29 60-74-43 2-92-5-92 41" id="an"/><g id="a"><use transform="matrix(0.05,0,0,0.05,0,0)" xlink:href="#ak"/><use transform="matrix(0.05,0,0,0.05,9,0)" xlink:href="#al"/><use transform="matrix(0.05,0,0,0.05,19,0)" xlink:href="#am"/><use transform="matrix(0.05,0,0,0.05,22.95,0)" xlink:href="#an"/></g><path d="M158-156l-14 65h45v19h-49L124 0h-19l15-72H56L41 0H22l15-72H2v-19h39l14-65H11v-19h48l15-71h20l-16 71h64l16-71h19l-16 71h37v19h-40zm-83 0L61-91h63l14-65H75" id="ao"/><use transform="matrix(0.05,0,0,0.05,0,0)" xlink:href="#ao" id="b"/><path d="M117-194c89-4 53 116 60 194h-32v-121c0-31-8-49-39-48C34-167 62-67 57 0H25l-1-190h30c1 10-1 24 2 32 11-22 29-35 61-36" id="ap"/><path d="M210-169c-67 3-38 105-44 169h-31v-121c0-29-5-50-35-48C34-165 62-65 56 0H25l-1-190h30c1 10-1 24 2 32 10-44 99-50 107 0 11-21 27-35 58-36 85-2 47 119 55 194h-31v-121c0-29-5-49-35-48" id="aq"/><path d="M100-194c63 0 86 42 84 106H49c0 40 14 67 53 68 26 1 43-12 49-29l28 8c-11 28-37 45-77 45C44 4 14-33 15-96c1-61 26-98 85-98zm52 81c6-60-76-77-97-28-3 7-6 17-6 28h103" id="ar"/><path d="M33-154v-36h34v36H33zM33 0v-36h34V0H33" id="as"/><g id="c"><use transform="matrix(0.05,0,0,0.05,0,0)" xlink:href="#ap"/><use transform="matrix(0.05,0,0,0.05,10,0)" xlink:href="#al"/><use transform="matrix(0.05,0,0,0.05,20,0)" xlink:href="#aq"/><use transform="matrix(0.05,0,0,0.05,34.95,0)" xlink:href="#ar"/><use transform="matrix(0.05,0,0,0.05,44.95,0)" xlink:href="#as"/></g><path d="M135-143c-3-34-86-38-87 0 15 53 115 12 119 90S17 21 10-45l28-5c4 36 97 45 98 0-10-56-113-15-118-90-4-57 82-63 122-42 12 7 21 19 24 35" id="at"/><path d="M59-47c-2 24 18 29 38 22v24C64 9 27 4 27-40v-127H5v-23h24l9-43h21v43h35v23H59v120" id="au"/><path d="M114-163C36-179 61-72 57 0H25l-1-190h30c1 12-1 29 2 39 6-27 23-49 58-41v29" id="av"/><path d="M177-190C167-65 218 103 67 71c-23-6-38-20-44-43l32-5c15 47 100 32 89-28v-30C133-14 115 1 83 1 29 1 15-40 15-95c0-56 16-97 71-98 29-1 48 16 59 35 1-10 0-23 2-32h30zM94-22c36 0 50-32 50-73 0-42-14-75-50-75-39 0-46 34-46 75s6 73 46 73" id="aw"/><g id="d"><use transform="matrix(0.05,0,0,0.05,0,0)" xlink:href="#at"/><use transform="matrix(0.05,0,0,0.05,9,0)" xlink:href="#au"/><use transform="matrix(0.05,0,0,0.05,14,0)" xlink:href="#av"/><use transform="matrix(0.05,0,0,0.05,19.95,0)" xlink:href="#am"/><use transform="matrix(0.05,0,0,0.05,23.9,0)" xlink:href="#ap"/><use transform="matrix(0.05,0,0,0.05,33.9,0)" xlink:href="#aw"/></g><use transform="matrix(0.05,0,0,0.05,0,0)" xlink:href="#ao" id="e"/><path d="M115-194c55 1 70 41 70 98S169 2 115 4C84 4 66-9 55-30l1 105H24l-1-265h31l2 30c10-21 28-34 59-34zm-8 174c40 0 45-34 45-75s-6-73-45-74c-42 0-51 32-51 76 0 43 10 73 51 73" id="ax"/><g id="f"><use transform="matrix(0.05,0,0,0.05,0,0)" xlink:href="#au"/><use transform="matrix(0.05,0,0,0.05,5,0)" xlink:href="#am"/><use transform="matrix(0.05,0,0,0.05,8.95,0)" xlink:href="#ax"/><use transform="matrix(0.05,0,0,0.05,18.95,0)" xlink:href="#al"/><use transform="matrix(0.05,0,0,0.05,28.950000000000003,0)" xlink:href="#as"/></g><path d="M127-220V0H93v-220H8v-28h204v28h-85" id="ay"/><g id="g"><use transform="matrix(0.05,0,0,0.05,0,0)" xlink:href="#ay"/><use transform="matrix(0.05,0,0,0.05,10.3,0)" xlink:href="#am"/><use transform="matrix(0.05,0,0,0.05,14.25,0)" xlink:href="#ax"/><use transform="matrix(0.05,0,0,0.05,24.25,0)" xlink:href="#al"/></g><path d="M108 0H70L1-190h34L89-25l56-165h34" id="az"/><g id="h"><use transform="matrix(0.05,0,0,0.05,0,0)" xlink:href="#az"/><use transform="matrix(0.05,0,0,0.05,9,0)" xlink:href="#an"/><use transform="matrix(0.05,0,0,0.05,19,0)" xlink:href="#ap"/><use transform="matrix(0.05,0,0,0.05,29,0)" xlink:href="#au"/><use transform="matrix(0.05,0,0,0.05,34,0)" xlink:href="#an"/><use transform="matrix(0.05,0,0,0.05,44,0)" xlink:href="#aw"/><use transform="matrix(0.05,0,0,0.05,54,0)" xlink:href="#ar"/><use transform="matrix(0.05,0,0,0.05,64,0)" xlink:href="#aq"/><use transform="matrix(0.05,0,0,0.05,78.95,0)" xlink:href="#as"/></g><g id="i"><use transform="matrix(0.05,0,0,0.05,0,0)" xlink:href="#am"/><use transform="matrix(0.05,0,0,0.05,3.95,0)" xlink:href="#ap"/><use transform="matrix(0.05,0,0,0.05,13.949999999999998,0)" xlink:href="#au"/></g><path d="M24 0v-261h32V0H24" id="aA"/><g id="j"><use transform="matrix(0.05,0,0,0.05,0,0)" xlink:href="#az"/><use transform="matrix(0.05,0,0,0.05,9,0)" xlink:href="#an"/><use transform="matrix(0.05,0,0,0.05,19,0)" xlink:href="#aA"/><use transform="matrix(0.05,0,0,0.05,22.95,0)" xlink:href="#al"/><use transform="matrix(0.05,0,0,0.05,32.95,0)" xlink:href="#av"/><use transform="matrix(0.05,0,0,0.05,38.900000000000006,0)" xlink:href="#as"/></g><g id="k"><use transform="matrix(0.05,0,0,0.05,0,0)" xlink:href="#am"/><use transform="matrix(0.05,0,0,0.05,3.95,0)" xlink:href="#ap"/><use transform="matrix(0.05,0,0,0.05,13.949999999999998,0)" xlink:href="#au"/></g><path d="M118-107v75H92v-75H18v-26h74v-75h26v75h74v26h-74" id="aB"/><use transform="matrix(0.05,0,0,0.05,0,0)" xlink:href="#aB" id="l"/><path d="M185-189c-5-48-123-54-124 2 14 75 158 14 163 119 3 78-121 87-175 55-17-10-28-26-33-46l33-7c5 56 141 63 141-1 0-78-155-14-162-118-5-82 145-84 179-34 5 7 8 16 11 25" id="aC"/><g id="m"><use transform="matrix(0.05,0,0,0.05,0,0)" xlink:href="#aC"/><use transform="matrix(0.05,0,0,0.05,12,0)" xlink:href="#au"/><use transform="matrix(0.05,0,0,0.05,17,0)" xlink:href="#av"/><use transform="matrix(0.05,0,0,0.05,22.95,0)" xlink:href="#am"/><use transform="matrix(0.05,0,0,0.05,26.899999999999995,0)" xlink:href="#ap"/><use transform="matrix(0.05,0,0,0.05,36.9,0)" xlink:href="#aw"/></g><path d="M190 0L58-211 59 0H30v-248h39L202-35l-2-213h31V0h-41" id="aD"/><path d="M87 75C49 33 22-17 22-94c0-76 28-126 65-167h31c-38 41-64 92-64 168S80 34 118 75H87" id="aE"/><path d="M33-261c38 41 65 92 65 168S71 34 33 75H2C39 34 66-17 66-93S39-220 2-261h31" id="aF"/><g id="n"><use transform="matrix(0.05,0,0,0.05,0,0)" xlink:href="#aw"/><use transform="matrix(0.05,0,0,0.05,10,0)" xlink:href="#ar"/><use transform="matrix(0.05,0,0,0.05,20,0)" xlink:href="#au"/><use transform="matrix(0.05,0,0,0.05,25,0)" xlink:href="#aD"/><use transform="matrix(0.05,0,0,0.05,37.95,0)" xlink:href="#al"/><use transform="matrix(0.05,0,0,0.05,47.95,0)" xlink:href="#aq"/><use transform="matrix(0.05,0,0,0.05,62.900000000000006,0)" xlink:href="#ar"/><use transform="matrix(0.05,0,0,0.05,72.9,0)" xlink:href="#aE"/><use transform="matrix(0.05,0,0,0.05,78.85000000000001,0)" xlink:href="#aF"/></g><use transform="matrix(0.05,0,0,0.05,0,0)" xlink:href="#aB" id="o"/><g id="p"><use transform="matrix(0.05,0,0,0.05,0,0)" xlink:href="#ay"/><use transform="matrix(0.05,0,0,0.05,10.3,0)" xlink:href="#am"/><use transform="matrix(0.05,0,0,0.05,14.25,0)" xlink:href="#ax"/><use transform="matrix(0.05,0,0,0.05,24.25,0)" xlink:href="#al"/></g><g id="q"><use transform="matrix(0.05,0,0,0.05,0,0)" xlink:href="#aw"/><use transform="matrix(0.05,0,0,0.05,10,0)" xlink:href="#ar"/><use transform="matrix(0.05,0,0,0.05,20,0)" xlink:href="#au"/><use transform="matrix(0.05,0,0,0.05,25,0)" xlink:href="#ay"/><use transform="matrix(0.05,0,0,0.05,35.300000000000004,0)" xlink:href="#am"/><use transform="matrix(0.05,0,0,0.05,39.25000000000001,0)" xlink:href="#ax"/><use transform="matrix(0.05,0,0,0.05,49.25000000000001,0)" xlink:href="#al"/><use transform="matrix(0.05,0,0,0.05,59.25,0)" xlink:href="#aE"/><use transform="matrix(0.05,0,0,0.05,65.2,0)" xlink:href="#aF"/></g><g id="r"><use transform="matrix(0.05,0,0,0.05,0,0)" xlink:href="#am"/><use transform="matrix(0.05,0,0,0.05,3.95,0)" xlink:href="#ap"/><use transform="matrix(0.05,0,0,0.05,13.949999999999998,0)" xlink:href="#au"/></g><path d="M137 0h-34L2-248h35l83 218 83-218h36" id="aG"/><g id="s"><use transform="matrix(0.05,0,0,0.05,0,0)" xlink:href="#aw"/><use transform="matrix(0.05,0,0,0.05,10,0)" xlink:href="#ar"/><use transform="matrix(0.05,0,0,0.05,20,0)" xlink:href="#au"/><use transform="matrix(0.05,0,0,0.05,25,0)" xlink:href="#aG"/><use transform="matrix(0.05,0,0,0.05,35.65,0)" xlink:href="#an"/><use transform="matrix(0.05,0,0,0.05,45.65,0)" xlink:href="#ap"/><use transform="matrix(0.05,0,0,0.05,55.650000000000006,0)" xlink:href="#au"/><use transform="matrix(0.05,0,0,0.05,60.650000000000006,0)" xlink:href="#an"/><use transform="matrix(0.05,0,0,0.05,70.65,0)" xlink:href="#aw"/><use transform="matrix(0.05,0,0,0.05,80.65,0)" xlink:href="#ar"/><use transform="matrix(0.05,0,0,0.05,90.65,0)" xlink:href="#aq"/><use transform="matrix(0.05,0,0,0.05,105.60000000000001,0)" xlink:href="#aE"/><use transform="matrix(0.05,0,0,0.05,111.55000000000001,0)" xlink:href="#aF"/></g><g id="t"><use transform="matrix(0.05,0,0,0.05,0,0)" xlink:href="#aw"/><use transform="matrix(0.05,0,0,0.05,10,0)" xlink:href="#ar"/><use transform="matrix(0.05,0,0,0.05,20,0)" xlink:href="#au"/><use transform="matrix(0.05,0,0,0.05,25,0)" xlink:href="#aG"/><use transform="matrix(0.05,0,0,0.05,35.65,0)" xlink:href="#an"/><use transform="matrix(0.05,0,0,0.05,45.65,0)" xlink:href="#aA"/><use transform="matrix(0.05,0,0,0.05,49.6,0)" xlink:href="#al"/><use transform="matrix(0.05,0,0,0.05,59.6,0)" xlink:href="#av"/><use transform="matrix(0.05,0,0,0.05,65.55,0)" xlink:href="#aE"/><use transform="matrix(0.05,0,0,0.05,71.5,0)" xlink:href="#aF"/></g><path d="M30-248c118-7 216 8 213 122C240-48 200 0 122 0H30v-248zM63-27c89 8 146-16 146-99s-60-101-146-95v194" id="aH"/><path d="M101-234c-31-9-42 10-38 44h38v23H63V0H32v-167H5v-23h27c-7-52 17-82 69-68v24" id="aI"/><path d="M63-220v92h138v28H63V0H30v-248h175v28H63" id="aJ"/><path d="M145-31C134-9 116 4 85 4 32 4 16-35 15-94c0-59 17-99 70-100 32-1 48 14 60 33 0-11-1-24 2-32h30l-1 268h-32zM93-21c41 0 51-33 51-76s-8-73-50-73c-40 0-46 35-46 75s5 74 45 74" id="aK"/><path d="M84 4C-5 8 30-112 23-190h32v120c0 31 7 50 39 49 72-2 45-101 50-169h31l1 190h-30c-1-10 1-25-2-33-11 22-28 36-60 37" id="aL"/><path d="M9 0v-24l116-142H16v-24h144v24L44-24h123V0H9" id="aM"/><g id="u"><use transform="matrix(0.05,0,0,0.05,0,0)" xlink:href="#ak"/><use transform="matrix(0.05,0,0,0.05,9,0)" xlink:href="#al"/><use transform="matrix(0.05,0,0,0.05,19,0)" xlink:href="#am"/><use transform="matrix(0.05,0,0,0.05,22.95,0)" xlink:href="#an"/><use transform="matrix(0.05,0,0,0.05,32.95,0)" xlink:href="#aH"/><use transform="matrix(0.05,0,0,0.05,45.900000000000006,0)" xlink:href="#ar"/><use transform="matrix(0.05,0,0,0.05,55.900000000000006,0)" xlink:href="#aI"/><use transform="matrix(0.05,0,0,0.05,60.900000000000006,0)" xlink:href="#ar"/><use transform="matrix(0.05,0,0,0.05,70.9,0)" xlink:href="#at"/><use transform="matrix(0.05,0,0,0.05,79.9,0)" xlink:href="#an"/><use transform="matrix(0.05,0,0,0.05,89.9,0)" xlink:href="#aJ"/><use transform="matrix(0.05,0,0,0.05,100.85000000000001,0)" xlink:href="#av"/><use transform="matrix(0.05,0,0,0.05,106.80000000000001,0)" xlink:href="#an"/><use transform="matrix(0.05,0,0,0.05,116.80000000000001,0)" xlink:href="#aK"/><use transform="matrix(0.05,0,0,0.05,126.80000000000001,0)" xlink:href="#aL"/><use transform="matrix(0.05,0,0,0.05,136.8,0)" xlink:href="#ar"/><use transform="matrix(0.05,0,0,0.05,146.8,0)" xlink:href="#aM"/><use transform="matrix(0.05,0,0,0.05,155.8,0)" xlink:href="#an"/></g><g id="v"><use transform="matrix(0.05,0,0,0.05,0,0)" xlink:href="#ap"/><use transform="matrix(0.05,0,0,0.05,10,0)" xlink:href="#al"/><use transform="matrix(0.05,0,0,0.05,20,0)" xlink:href="#aq"/><use transform="matrix(0.05,0,0,0.05,34.95,0)" xlink:href="#ar"/><use transform="matrix(0.05,0,0,0.05,44.95,0)" xlink:href="#as"/></g><g id="w"><use transform="matrix(0.05,0,0,0.05,0,0)" xlink:href="#at"/><use transform="matrix(0.05,0,0,0.05,9,0)" xlink:href="#au"/><use transform="matrix(0.05,0,0,0.05,14,0)" xlink:href="#av"/><use transform="matrix(0.05,0,0,0.05,19.95,0)" xlink:href="#am"/><use transform="matrix(0.05,0,0,0.05,23.9,0)" xlink:href="#ap"/><use transform="matrix(0.05,0,0,0.05,33.9,0)" xlink:href="#aw"/></g><path d="M18-150v-26h174v26H18zm0 90v-26h174v26H18" id="aN"/><use transform="matrix(0.05,0,0,0.05,0,0)" xlink:href="#aN" id="x"/><g id="y"><use transform="matrix(0.05,0,0,0.05,0,0)" xlink:href="#ak"/><use transform="matrix(0.05,0,0,0.05,9,0)" xlink:href="#al"/><use transform="matrix(0.05,0,0,0.05,19,0)" xlink:href="#am"/><use transform="matrix(0.05,0,0,0.05,22.95,0)" xlink:href="#an"/></g><path d="M85-194c31 0 48 13 60 33l-1-100h32l1 261h-30c-2-10 0-23-3-31C134-8 116 4 85 4 32 4 16-35 15-94c0-66 23-100 70-100zm9 24c-40 0-46 34-46 75 0 40 6 74 45 74 42 0 51-32 51-76 0-42-9-74-50-73" id="aO"/><g id="z"><use transform="matrix(0.05,0,0,0.05,0,0)" xlink:href="#aO"/><use transform="matrix(0.05,0,0,0.05,10,0)" xlink:href="#ar"/></g><g id="A"><use transform="matrix(0.05,0,0,0.05,0,0)" xlink:href="#aH"/><use transform="matrix(0.05,0,0,0.05,12.950000000000001,0)" xlink:href="#ar"/><use transform="matrix(0.05,0,0,0.05,22.950000000000003,0)" xlink:href="#aI"/><use transform="matrix(0.05,0,0,0.05,27.950000000000003,0)" xlink:href="#ar"/><use transform="matrix(0.05,0,0,0.05,37.95,0)" xlink:href="#at"/><use transform="matrix(0.05,0,0,0.05,46.95,0)" xlink:href="#an"/></g><g id="B"><use transform="matrix(0.05,0,0,0.05,0,0)" xlink:href="#aO"/><use transform="matrix(0.05,0,0,0.05,10,0)" xlink:href="#an"/></g><g id="C"><use transform="matrix(0.05,0,0,0.05,0,0)" xlink:href="#aJ"/><use transform="matrix(0.05,0,0,0.05,10.950000000000001,0)" xlink:href="#av"/><use transform="matrix(0.05,0,0,0.05,16.900000000000002,0)" xlink:href="#an"/><use transform="matrix(0.05,0,0,0.05,26.900000000000002,0)" xlink:href="#aK"/><use transform="matrix(0.05,0,0,0.05,36.900000000000006,0)" xlink:href="#aL"/><use transform="matrix(0.05,0,0,0.05,46.900000000000006,0)" xlink:href="#ar"/><use transform="matrix(0.05,0,0,0.05,56.900000000000006,0)" xlink:href="#aM"/><use transform="matrix(0.05,0,0,0.05,65.9,0)" xlink:href="#an"/></g><g id="D"><use transform="matrix(0.05,0,0,0.05,0,0)" xlink:href="#au"/><use transform="matrix(0.05,0,0,0.05,5,0)" xlink:href="#am"/><use transform="matrix(0.05,0,0,0.05,8.95,0)" xlink:href="#ax"/><use transform="matrix(0.05,0,0,0.05,18.95,0)" xlink:href="#al"/><use transform="matrix(0.05,0,0,0.05,28.950000000000003,0)" xlink:href="#as"/></g><g id="E"><use transform="matrix(0.05,0,0,0.05,0,0)" xlink:href="#ay"/><use transform="matrix(0.05,0,0,0.05,10.3,0)" xlink:href="#am"/><use transform="matrix(0.05,0,0,0.05,14.25,0)" xlink:href="#ax"/><use transform="matrix(0.05,0,0,0.05,24.25,0)" xlink:href="#al"/></g><path d="M33 0v-38h34V0H33" id="aP"/><path d="M140-251c81 0 123 46 123 126C263-46 219 4 140 4 59 4 17-45 17-125s42-126 123-126zm0 227c63 0 89-41 89-101s-29-99-89-99c-61 0-89 39-89 99S79-25 140-24" id="aQ"/><path d="M233-177c-1 41-23 64-60 70L243 0h-38l-65-103H63V0H30v-248c88 3 205-21 203 71zM63-129c60-2 137 13 137-47 0-61-80-42-137-45v92" id="aR"/><path d="M240 0l2-218c-23 76-54 145-80 218h-23L58-218 59 0H30v-248h44l77 211c21-75 51-140 76-211h43V0h-30" id="aS"/><path d="M205 0l-28-72H64L36 0H1l101-248h38L239 0h-34zm-38-99l-47-123c-12 45-31 82-46 123h93" id="aT"/><path d="M30 0v-248h33v221h125V0H30" id="aU"/><g id="F"><use transform="matrix(0.05,0,0,0.05,0,0)" xlink:href="#ay"/><use transform="matrix(0.05,0,0,0.05,10.3,0)" xlink:href="#am"/><use transform="matrix(0.05,0,0,0.05,14.25,0)" xlink:href="#ax"/><use transform="matrix(0.05,0,0,0.05,24.25,0)" xlink:href="#al"/><use transform="matrix(0.05,0,0,0.05,34.25,0)" xlink:href="#aP"/><use transform="matrix(0.05,0,0,0.05,39.25,0)" xlink:href="#aD"/><use transform="matrix(0.05,0,0,0.05,52.2,0)" xlink:href="#aQ"/><use transform="matrix(0.05,0,0,0.05,66.2,0)" xlink:href="#aR"/><use transform="matrix(0.05,0,0,0.05,79.15,0)" xlink:href="#aS"/><use transform="matrix(0.05,0,0,0.05,94.10000000000001,0)" xlink:href="#aT"/><use transform="matrix(0.05,0,0,0.05,106.10000000000001,0)" xlink:href="#aU"/></g><g id="G"><use transform="matrix(0.05,0,0,0.05,0,0)" xlink:href="#az"/><use transform="matrix(0.05,0,0,0.05,9,0)" xlink:href="#an"/><use transform="matrix(0.05,0,0,0.05,19,0)" xlink:href="#ap"/><use transform="matrix(0.05,0,0,0.05,29,0)" xlink:href="#au"/><use transform="matrix(0.05,0,0,0.05,34,0)" xlink:href="#an"/><use transform="matrix(0.05,0,0,0.05,44,0)" xlink:href="#aw"/><use transform="matrix(0.05,0,0,0.05,54,0)" xlink:href="#ar"/><use transform="matrix(0.05,0,0,0.05,64,0)" xlink:href="#aq"/><use transform="matrix(0.05,0,0,0.05,78.95,0)" xlink:href="#as"/></g><path d="M27 0v-27h64v-190l-56 39v-29l58-41h29v221h61V0H27" id="aV"/><use transform="matrix(0.05,0,0,0.05,0,0)" xlink:href="#aV" id="H"/><g id="I"><use transform="matrix(0.05,0,0,0.05,0,0)" xlink:href="#az"/><use transform="matrix(0.05,0,0,0.05,9,0)" xlink:href="#an"/><use transform="matrix(0.05,0,0,0.05,19,0)" xlink:href="#aA"/><use transform="matrix(0.05,0,0,0.05,22.95,0)" xlink:href="#al"/><use transform="matrix(0.05,0,0,0.05,32.95,0)" xlink:href="#av"/><use transform="matrix(0.05,0,0,0.05,38.900000000000006,0)" xlink:href="#as"/></g><path d="M16-82v-28h88v28H16" id="aW"/><path d="M101-251c82-7 93 87 43 132L82-64C71-53 59-42 53-27h129V0H18c2-99 128-94 128-182 0-28-16-43-45-43s-46 15-49 41l-32-3c6-41 34-60 81-64" id="aX"/><path d="M101-251c68 0 85 55 85 127S166 4 100 4C33 4 14-52 14-124c0-73 17-127 87-127zm-1 229c47 0 54-49 54-102s-4-102-53-102c-51 0-55 48-55 102 0 53 5 102 54 102" id="aY"/><g id="J"><use transform="matrix(0.05,0,0,0.05,0,0)" xlink:href="#aW"/><use transform="matrix(0.05,0,0,0.05,5.95,0)" xlink:href="#aX"/><use transform="matrix(0.05,0,0,0.05,15.949999999999998,0)" xlink:href="#aY"/></g><g id="K"><use transform="matrix(0.05,0,0,0.05,0,0)" xlink:href="#ak"/><use transform="matrix(0.05,0,0,0.05,9,0)" xlink:href="#al"/><use transform="matrix(0.05,0,0,0.05,19,0)" xlink:href="#am"/><use transform="matrix(0.05,0,0,0.05,22.95,0)" xlink:href="#an"/><use transform="matrix(0.05,0,0,0.05,32.95,0)" xlink:href="#aG"/><use transform="matrix(0.05,0,0,0.05,43.95,0)" xlink:href="#ar"/><use transform="matrix(0.05,0,0,0.05,53.95,0)" xlink:href="#ap"/><use transform="matrix(0.05,0,0,0.05,63.95,0)" xlink:href="#ar"/><use transform="matrix(0.05,0,0,0.05,73.95,0)" xlink:href="#ap"/><use transform="matrix(0.05,0,0,0.05,83.95,0)" xlink:href="#al"/><use transform="matrix(0.05,0,0,0.05,93.95,0)" xlink:href="#at"/><use transform="matrix(0.05,0,0,0.05,102.95,0)" xlink:href="#an"/></g><g id="L"><use transform="matrix(0.05,0,0,0.05,0,0)" xlink:href="#aG"/><use transform="matrix(0.05,0,0,0.05,11,0)" xlink:href="#ar"/><use transform="matrix(0.05,0,0,0.05,21,0)" xlink:href="#ap"/><use transform="matrix(0.05,0,0,0.05,31,0)" xlink:href="#ar"/><use transform="matrix(0.05,0,0,0.05,41,0)" xlink:href="#ap"/><use transform="matrix(0.05,0,0,0.05,51,0)" xlink:href="#al"/><use transform="matrix(0.05,0,0,0.05,61,0)" xlink:href="#at"/><use transform="matrix(0.05,0,0,0.05,70,0)" xlink:href="#an"/></g><path d="M30 0v-248h187v28H63v79h144v27H63v87h162V0H30" id="aZ"/><g id="M"><use transform="matrix(0.05,0,0,0.05,0,0)" xlink:href="#ay"/><use transform="matrix(0.05,0,0,0.05,10.3,0)" xlink:href="#am"/><use transform="matrix(0.05,0,0,0.05,14.25,0)" xlink:href="#ax"/><use transform="matrix(0.05,0,0,0.05,24.25,0)" xlink:href="#al"/><use transform="matrix(0.05,0,0,0.05,34.25,0)" xlink:href="#aP"/><use transform="matrix(0.05,0,0,0.05,39.25,0)" xlink:href="#aG"/><use transform="matrix(0.05,0,0,0.05,51.25,0)" xlink:href="#aZ"/><use transform="matrix(0.05,0,0,0.05,63.25,0)" xlink:href="#aD"/><use transform="matrix(0.05,0,0,0.05,76.2,0)" xlink:href="#aZ"/><use transform="matrix(0.05,0,0,0.05,88.2,0)" xlink:href="#aD"/><use transform="matrix(0.05,0,0,0.05,101.15,0)" xlink:href="#aQ"/></g><path d="M155-56V0h-30v-56H8v-25l114-167h33v167h35v25h-35zm-30-156c-27 46-58 90-88 131h88v-131" id="ba"/><use transform="matrix(0.05,0,0,0.05,0,0)" xlink:href="#ba" id="N"/><use transform="matrix(0.05,0,0,0.05,0,0)" xlink:href="#aY" id="O"/><g id="P"><use transform="matrix(0.05,0,0,0.05,0,0)" xlink:href="#ak"/><use transform="matrix(0.05,0,0,0.05,9,0)" xlink:href="#al"/><use transform="matrix(0.05,0,0,0.05,19,0)" xlink:href="#am"/><use transform="matrix(0.05,0,0,0.05,22.95,0)" xlink:href="#an"/><use transform="matrix(0.05,0,0,0.05,32.95,0)" xlink:href="#aT"/><use transform="matrix(0.05,0,0,0.05,44.95,0)" xlink:href="#au"/><use transform="matrix(0.05,0,0,0.05,49.95,0)" xlink:href="#an"/><use transform="matrix(0.05,0,0,0.05,59.95,0)" xlink:href="#aK"/><use transform="matrix(0.05,0,0,0.05,69.95,0)" xlink:href="#aL"/><use transform="matrix(0.05,0,0,0.05,79.95,0)" xlink:href="#ar"/><use transform="matrix(0.05,0,0,0.05,89.95,0)" xlink:href="#aJ"/><use transform="matrix(0.05,0,0,0.05,100.9,0)" xlink:href="#av"/><use transform="matrix(0.05,0,0,0.05,106.85000000000001,0)" xlink:href="#an"/><use transform="matrix(0.05,0,0,0.05,116.85000000000001,0)" xlink:href="#aK"/><use transform="matrix(0.05,0,0,0.05,126.85000000000001,0)" xlink:href="#aL"/><use transform="matrix(0.05,0,0,0.05,136.85000000000002,0)" xlink:href="#ar"/><use transform="matrix(0.05,0,0,0.05,146.85000000000002,0)" xlink:href="#aM"/><use transform="matrix(0.05,0,0,0.05,155.85000000000002,0)" xlink:href="#an"/></g><g id="Q"><use transform="matrix(0.05,0,0,0.05,0,0)" xlink:href="#aT"/><use transform="matrix(0.05,0,0,0.05,12,0)" xlink:href="#au"/><use transform="matrix(0.05,0,0,0.05,17,0)" xlink:href="#an"/><use transform="matrix(0.05,0,0,0.05,27,0)" xlink:href="#aK"/><use transform="matrix(0.05,0,0,0.05,37,0)" xlink:href="#aL"/><use transform="matrix(0.05,0,0,0.05,47,0)" xlink:href="#ar"/></g><use transform="matrix(0.05,0,0,0.05,0,0)" xlink:href="#aY" id="R"/><g id="S"><use transform="matrix(0.05,0,0,0.05,0,0)" xlink:href="#ak"/><use transform="matrix(0.05,0,0,0.05,9,0)" xlink:href="#al"/><use transform="matrix(0.05,0,0,0.05,19,0)" xlink:href="#am"/><use transform="matrix(0.05,0,0,0.05,22.95,0)" xlink:href="#an"/><use transform="matrix(0.05,0,0,0.05,32.95,0)" xlink:href="#aT"/><use transform="matrix(0.05,0,0,0.05,44.95,0)" xlink:href="#au"/><use transform="matrix(0.05,0,0,0.05,49.95,0)" xlink:href="#an"/><use transform="matrix(0.05,0,0,0.05,59.95,0)" xlink:href="#aK"/><use transform="matrix(0.05,0,0,0.05,69.95,0)" xlink:href="#aL"/><use transform="matrix(0.05,0,0,0.05,79.95,0)" xlink:href="#ar"/><use transform="matrix(0.05,0,0,0.05,89.95,0)" xlink:href="#aC"/><use transform="matrix(0.05,0,0,0.05,101.95,0)" xlink:href="#al"/><use transform="matrix(0.05,0,0,0.05,111.95,0)" xlink:href="#av"/><use transform="matrix(0.05,0,0,0.05,117.9,0)" xlink:href="#au"/><use transform="matrix(0.05,0,0,0.05,122.9,0)" xlink:href="#ar"/></g><g id="T"><use transform="matrix(0.05,0,0,0.05,0,0)" xlink:href="#aC"/><use transform="matrix(0.05,0,0,0.05,12,0)" xlink:href="#al"/><use transform="matrix(0.05,0,0,0.05,22,0)" xlink:href="#av"/><use transform="matrix(0.05,0,0,0.05,27.950000000000003,0)" xlink:href="#au"/><use transform="matrix(0.05,0,0,0.05,32.95,0)" xlink:href="#ar"/></g><g id="U"><use transform="matrix(0.05,0,0,0.05,0,0)" xlink:href="#aX"/><use transform="matrix(0.05,0,0,0.05,10,0)" xlink:href="#aY"/></g><g id="V"><use transform="matrix(0.05,0,0,0.05,0,0)" xlink:href="#ak"/><use transform="matrix(0.05,0,0,0.05,9,0)" xlink:href="#al"/><use transform="matrix(0.05,0,0,0.05,19,0)" xlink:href="#am"/><use transform="matrix(0.05,0,0,0.05,22.95,0)" xlink:href="#an"/><use transform="matrix(0.05,0,0,0.05,32.95,0)" xlink:href="#aD"/><use transform="matrix(0.05,0,0,0.05,45.900000000000006,0)" xlink:href="#al"/><use transform="matrix(0.05,0,0,0.05,55.900000000000006,0)" xlink:href="#av"/><use transform="matrix(0.05,0,0,0.05,61.85,0)" xlink:href="#aq"/><use transform="matrix(0.05,0,0,0.05,76.80000000000001,0)" xlink:href="#an"/><use transform="matrix(0.05,0,0,0.05,86.80000000000001,0)" xlink:href="#aA"/></g><g id="W"><use transform="matrix(0.05,0,0,0.05,0,0)" xlink:href="#aD"/><use transform="matrix(0.05,0,0,0.05,12.950000000000001,0)" xlink:href="#al"/><use transform="matrix(0.05,0,0,0.05,22.950000000000003,0)" xlink:href="#av"/><use transform="matrix(0.05,0,0,0.05,28.900000000000002,0)" xlink:href="#aq"/><use transform="matrix(0.05,0,0,0.05,43.85,0)" xlink:href="#an"/><use transform="matrix(0.05,0,0,0.05,53.85,0)" xlink:href="#aA"/></g><g id="X"><use transform="matrix(0.05,0,0,0.05,0,0)" xlink:href="#ak"/><use transform="matrix(0.05,0,0,0.05,9,0)" xlink:href="#al"/><use transform="matrix(0.05,0,0,0.05,19,0)" xlink:href="#am"/><use transform="matrix(0.05,0,0,0.05,22.95,0)" xlink:href="#an"/><use transform="matrix(0.05,0,0,0.05,32.95,0)" xlink:href="#aJ"/><use transform="matrix(0.05,0,0,0.05,43.900000000000006,0)" xlink:href="#an"/><use transform="matrix(0.05,0,0,0.05,53.900000000000006,0)" xlink:href="#ap"/><use transform="matrix(0.05,0,0,0.05,63.900000000000006,0)" xlink:href="#au"/><use transform="matrix(0.05,0,0,0.05,68.9,0)" xlink:href="#an"/><use transform="matrix(0.05,0,0,0.05,78.9,0)" xlink:href="#at"/><use transform="matrix(0.05,0,0,0.05,87.9,0)" xlink:href="#aq"/><use transform="matrix(0.05,0,0,0.05,102.85000000000001,0)" xlink:href="#an"/></g><g id="Y"><use transform="matrix(0.05,0,0,0.05,0,0)" xlink:href="#aJ"/><use transform="matrix(0.05,0,0,0.05,10.950000000000001,0)" xlink:href="#an"/><use transform="matrix(0.05,0,0,0.05,20.950000000000003,0)" xlink:href="#ap"/><use transform="matrix(0.05,0,0,0.05,30.950000000000003,0)" xlink:href="#au"/><use transform="matrix(0.05,0,0,0.05,35.95,0)" xlink:href="#an"/><use transform="matrix(0.05,0,0,0.05,45.95,0)" xlink:href="#at"/><use transform="matrix(0.05,0,0,0.05,54.95,0)" xlink:href="#aq"/><use transform="matrix(0.05,0,0,0.05,69.9,0)" xlink:href="#an"/></g><g id="Z"><use transform="matrix(0.05,0,0,0.05,0,0)" xlink:href="#ay"/><use transform="matrix(0.05,0,0,0.05,10.3,0)" xlink:href="#am"/><use transform="matrix(0.05,0,0,0.05,14.25,0)" xlink:href="#ax"/><use transform="matrix(0.05,0,0,0.05,24.25,0)" xlink:href="#al"/><use transform="matrix(0.05,0,0,0.05,34.25,0)" xlink:href="#aP"/><use transform="matrix(0.05,0,0,0.05,39.25,0)" xlink:href="#aJ"/><use transform="matrix(0.05,0,0,0.05,49.2,0)" xlink:href="#aT"/><use transform="matrix(0.05,0,0,0.05,61.2,0)" xlink:href="#aD"/><use transform="matrix(0.05,0,0,0.05,74.15,0)" xlink:href="#ay"/><use transform="matrix(0.05,0,0,0.05,83.75000000000001,0)" xlink:href="#aT"/><use transform="matrix(0.05,0,0,0.05,95.75000000000001,0)" xlink:href="#aC"/><use transform="matrix(0.05,0,0,0.05,107.75,0)" xlink:href="#aS"/><use transform="matrix(0.05,0,0,0.05,122.7,0)" xlink:href="#aT"/></g><path d="M126-127c33 6 58 20 58 59 0 88-139 92-164 29-3-8-5-16-6-25l32-3c6 27 21 44 54 44 32 0 52-15 52-46 0-38-36-46-79-43v-28c39 1 72-4 72-42 0-27-17-43-46-43-28 0-47 15-49 41l-32-3c6-42 35-63 81-64 48-1 79 21 79 65 0 36-21 52-52 59" id="bb"/><use transform="matrix(0.05,0,0,0.05,0,0)" xlink:href="#bb" id="aa"/><g id="ab"><use transform="matrix(0.05,0,0,0.05,0,0)" xlink:href="#ak"/><use transform="matrix(0.05,0,0,0.05,9,0)" xlink:href="#al"/><use transform="matrix(0.05,0,0,0.05,19,0)" xlink:href="#am"/><use transform="matrix(0.05,0,0,0.05,22.95,0)" xlink:href="#an"/><use transform="matrix(0.05,0,0,0.05,32.95,0)" xlink:href="#aH"/><use transform="matrix(0.05,0,0,0.05,45.900000000000006,0)" xlink:href="#ar"/><use transform="matrix(0.05,0,0,0.05,55.900000000000006,0)" xlink:href="#aI"/><use transform="matrix(0.05,0,0,0.05,60.900000000000006,0)" xlink:href="#ar"/><use transform="matrix(0.05,0,0,0.05,70.9,0)" xlink:href="#at"/><use transform="matrix(0.05,0,0,0.05,79.9,0)" xlink:href="#an"/><use transform="matrix(0.05,0,0,0.05,89.9,0)" xlink:href="#aC"/><use transform="matrix(0.05,0,0,0.05,101.9,0)" xlink:href="#al"/><use transform="matrix(0.05,0,0,0.05,111.9,0)" xlink:href="#av"/><use transform="matrix(0.05,0,0,0.05,117.85000000000001,0)" xlink:href="#au"/><use transform="matrix(0.05,0,0,0.05,122.85000000000001,0)" xlink:href="#ar"/></g><use transform="matrix(0.05,0,0,0.05,0,0)" xlink:href="#aV" id="ac"/><path d="M143 4C61 4 22-44 18-125c-5-107 100-154 193-111 17 8 29 25 37 43l-32 9c-13-25-37-40-76-40-61 0-88 39-88 99 0 61 29 100 91 101 35 0 62-11 79-27v-45h-74v-28h105v86C228-13 192 4 143 4" id="bc"/><g id="ad"><use transform="matrix(0.05,0,0,0.05,0,0)" xlink:href="#ak"/><use transform="matrix(0.05,0,0,0.05,9,0)" xlink:href="#al"/><use transform="matrix(0.05,0,0,0.05,19,0)" xlink:href="#am"/><use transform="matrix(0.05,0,0,0.05,22.95,0)" xlink:href="#an"/><use transform="matrix(0.05,0,0,0.05,32.95,0)" xlink:href="#bc"/><use transform="matrix(0.05,0,0,0.05,46.95,0)" xlink:href="#ar"/><use transform="matrix(0.05,0,0,0.05,56.95,0)" xlink:href="#aA"/><use transform="matrix(0.05,0,0,0.05,60.900000000000006,0)" xlink:href="#al"/></g><g id="ae"><use transform="matrix(0.05,0,0,0.05,0,0)" xlink:href="#bc"/><use transform="matrix(0.05,0,0,0.05,14,0)" xlink:href="#ar"/><use transform="matrix(0.05,0,0,0.05,24,0)" xlink:href="#aA"/><use transform="matrix(0.05,0,0,0.05,27.950000000000003,0)" xlink:href="#al"/></g><g id="af"><use transform="matrix(0.05,0,0,0.05,0,0)" xlink:href="#ay"/><use transform="matrix(0.05,0,0,0.05,10.3,0)" xlink:href="#am"/><use transform="matrix(0.05,0,0,0.05,14.25,0)" xlink:href="#ax"/><use transform="matrix(0.05,0,0,0.05,24.25,0)" xlink:href="#al"/><use transform="matrix(0.05,0,0,0.05,34.25,0)" xlink:href="#aP"/><use transform="matrix(0.05,0,0,0.05,39.25,0)" xlink:href="#bc"/><use transform="matrix(0.05,0,0,0.05,53.25,0)" xlink:href="#aZ"/><use transform="matrix(0.05,0,0,0.05,65.25,0)" xlink:href="#aU"/><use transform="matrix(0.05,0,0,0.05,75.25,0)" xlink:href="#aQ"/></g><use transform="matrix(0.05,0,0,0.05,0,0)" xlink:href="#ba" id="ag"/><g id="ah"><use transform="matrix(0.05,0,0,0.05,0,0)" xlink:href="#ak"/><use transform="matrix(0.05,0,0,0.05,9,0)" xlink:href="#al"/><use transform="matrix(0.05,0,0,0.05,19,0)" xlink:href="#am"/><use transform="matrix(0.05,0,0,0.05,22.95,0)" xlink:href="#an"/><use transform="matrix(0.05,0,0,0.05,32.95,0)" xlink:href="#aJ"/><use transform="matrix(0.05,0,0,0.05,43.900000000000006,0)" xlink:href="#al"/><use transform="matrix(0.05,0,0,0.05,53.900000000000006,0)" xlink:href="#aw"/><use transform="matrix(0.05,0,0,0.05,63.900000000000006,0)" xlink:href="#al"/></g><g id="ai"><use transform="matrix(0.05,0,0,0.05,0,0)" xlink:href="#aJ"/><use transform="matrix(0.05,0,0,0.05,10.950000000000001,0)" xlink:href="#al"/><use transform="matrix(0.05,0,0,0.05,20.950000000000003,0)" xlink:href="#aw"/><use transform="matrix(0.05,0,0,0.05,30.950000000000003,0)" xlink:href="#al"/></g><g id="aj"><use transform="matrix(0.05,0,0,0.05,0,0)" xlink:href="#ay"/><use transform="matrix(0.05,0,0,0.05,10.3,0)" xlink:href="#am"/><use transform="matrix(0.05,0,0,0.05,14.25,0)" xlink:href="#ax"/><use transform="matrix(0.05,0,0,0.05,24.25,0)" xlink:href="#al"/><use transform="matrix(0.05,0,0,0.05,34.25,0)" xlink:href="#aP"/><use transform="matrix(0.05,0,0,0.05,39.25,0)" xlink:href="#aJ"/><use transform="matrix(0.05,0,0,0.05,50.2,0)" xlink:href="#aQ"/><use transform="matrix(0.05,0,0,0.05,64.2,0)" xlink:href="#bc"/><use transform="matrix(0.05,0,0,0.05,78.2,0)" xlink:href="#aQ"/></g></defs></g></svg>